<svg xmlns="http://www.w3.org/2000/svg" width="32.757" height="31.392" viewBox="0 0 32.757 31.392"><defs><style>.a{fill:#e82337;}</style></defs><path class="a" d="M3.365,14.25A1.365,1.365,0,0,1,2.4,11.92l9.426-9.426a1.365,1.365,0,0,1,1.93,1.93L4.33,13.85a1.361,1.361,0,0,1-.965.4Z" transform="translate(0.73 -0.601)"/><path class="a" d="M12.8,7.824a1.019,1.019,0,0,1-.723-.3L7.3,2.747A1.023,1.023,0,0,1,8.024,1H12.8a1.024,1.024,0,0,1,1.024,1.024V6.8A1.023,1.023,0,0,1,12.8,7.824Z" transform="translate(2.554 -1)"/><path class="a" d="M9.189,15.706v7.848H1V15.706A1.707,1.707,0,0,1,2.706,14H7.483A1.707,1.707,0,0,1,9.189,15.706Z" transform="translate(0.365 3.743)"/><path class="a" d="M17.189,11.706V25.014H9V11.706A1.707,1.707,0,0,1,10.706,10h4.777A1.707,1.707,0,0,1,17.189,11.706Z" transform="translate(3.284 2.284)"/><path class="a" d="M25.189,7.706V26.473H17V7.706A1.707,1.707,0,0,1,18.706,6h4.777A1.707,1.707,0,0,1,25.189,7.706Z" transform="translate(6.203 0.824)"/><path class="a" d="M31.733,24.547H1.024a1.024,1.024,0,1,1,0-2.047H31.733a1.024,1.024,0,0,1,0,2.047Z" transform="translate(0 6.845)"/></svg>