<svg xmlns="http://www.w3.org/2000/svg" width="182.851" height="95.5" viewBox="0 0 182.851 95.5"><defs><style>.a{fill:#f5f5f5;}.b{fill:#e0e0e0;}.c{fill:#fafafa;}.d{fill:#263238;}.e{fill:#0c5174;}.f{opacity:0.4;}.g{fill:#0082c3;}.h{fill:#455a64;}.i{fill:#407bff;}.j{opacity:0.2;}.k{fill:#ebebeb;}.l{fill:#fff;}.m{fill:#ffbe9d;}.n{opacity:0.6;}.o{fill:#eb996e;}.p{opacity:0.3;}.q{fill:#aa6550;}.r{fill:#b78876;}</style></defs><g transform="translate(0.433 0)"><path class="a" d="M44.516,124.022c6.577-3.309,9.054-10.861,9.824-17.856a7.648,7.648,0,0,0,.026-3.476,2.389,2.389,0,0,0-2.706-1.643c-.922.28-1.443,1.23-2.054,1.992a6.864,6.864,0,0,1-3.1,2.208,2.618,2.618,0,0,1-2.418-.128c-.927-.688-.834-2.1-.67-3.255l.975-6.459a10.821,10.821,0,0,0,.146-3.483,3.623,3.623,0,0,0-1.9-2.749,2.2,2.2,0,0,0-2.9,1.068,11.084,11.084,0,0,0-.241,1.435,1.232,1.232,0,0,1-.875,1.042c-.475.069-.9-.326-1.194-.714a15.451,15.451,0,0,1-2.156-4.567,21.429,21.429,0,0,0-1.953-4.669,6.255,6.255,0,0,0-3.881-2.98,3.8,3.8,0,0,0-4.207,2c-.655,1.563.056,3.36.9,4.829a26.147,26.147,0,0,0,4.621,5.9,2.21,2.21,0,0,1,.77,1.1c.141.806-.7,1.466-1.5,1.61a13.456,13.456,0,0,1-2.742-.087,2.641,2.641,0,0,0-2.416,1.027c-.644,1.112.167,2.493,1.027,3.445a22.315,22.315,0,0,0,6,4.723,7.381,7.381,0,0,1,2.259,1.54,2.166,2.166,0,0,1,.331,2.549,2.2,2.2,0,0,1-2.5.567,15.594,15.594,0,0,1-2.4-1.335c-1.5-.829-3.568-1.027-4.785.211a3.7,3.7,0,0,0-.857,3.178,8.554,8.554,0,0,0,1.34,3.111,22.451,22.451,0,0,0,8.528,8.04c3.5,1.81,6.864,2.652,10.72,1.841" transform="translate(-23.876 -75.98)"/><path class="b" d="M52.778,121.519a104.374,104.374,0,0,0-2.5-11.744q-.411-1.54-.814-3.047c-.257-1-.534-1.989-.857-2.942a51.543,51.543,0,0,0-2.156-5.37c-.77-1.674-1.561-3.234-2.31-4.69s-1.481-2.793-2.2-3.989a41.525,41.525,0,0,0-3.791-5.378c-.5-.6-.9-1.047-1.171-1.35l-.308-.329a.739.739,0,0,0-.113-.11,1.179,1.179,0,0,0,.095.126l.3.354c.257.311.652.77,1.14,1.376a43.924,43.924,0,0,1,3.712,5.391c.706,1.2,1.425,2.539,2.169,3.994s1.54,3.019,2.29,4.69a53.362,53.362,0,0,1,2.138,5.355c.334.947.59,1.928.847,2.932s.539,2.015.811,3.042a107.045,107.045,0,0,1,2.526,11.721" transform="translate(-33.304 -78.103)"/><path class="b" d="M83.26,129.033a2.17,2.17,0,0,0,.19-.475c.108-.311.257-.77.411-1.33.331-1.127.732-2.7,1.171-4.436s.86-3.3,1.206-4.418c.172-.56.313-1.011.418-1.322a2.5,2.5,0,0,0,.136-.493,2.394,2.394,0,0,0-.216.462c-.128.3-.293.75-.483,1.307-.385,1.112-.834,2.672-1.284,4.41S84,126,83.707,127.2l-.344,1.345A2.639,2.639,0,0,0,83.26,129.033Z" transform="translate(-68.016 -103.368)"/><path class="b" d="M26.93,146a3.208,3.208,0,0,0,.583.157c.375.09.922.216,1.589.393,1.34.344,3.175.883,5.173,1.568s3.779,1.386,5.052,1.928c.639.257,1.15.5,1.5.655a3.239,3.239,0,0,0,.56.226,3.19,3.19,0,0,0-.513-.3c-.344-.18-.845-.431-1.479-.719-1.26-.58-3.039-1.3-5.044-1.995a52.691,52.691,0,0,0-5.2-1.509c-.678-.159-1.23-.257-1.612-.326A3.164,3.164,0,0,0,26.93,146Z" transform="translate(-26.146 -125.251)"/><path class="b" d="M99.18,181.295a.742.742,0,0,0,.128-.167l.331-.513c.287-.436.685-1.078,1.165-1.879.965-1.6,2.226-3.851,3.594-6.351s2.6-4.764,3.524-6.379c.454-.785.827-1.432,1.106-1.912.118-.211.216-.382.3-.513a.688.688,0,0,0,.09-.19.99.99,0,0,0-.128.167l-.341.5c-.287.436-.683,1.078-1.165,1.879-.963,1.6-2.223,3.851-3.594,6.353s-2.585,4.762-3.514,6.379l-1.1,1.91-.3.513a.817.817,0,0,0-.092.2Z" transform="translate(-79.849 -138.177)"/><path class="b" d="M25.83,197.22a.809.809,0,0,0,.185.108l.544.277,2.018.991c1.7.837,4.038,2.02,6.62,3.337s4.931,2.475,6.651,3.276c.86.4,1.558.719,2.054.929l.562.239a.98.98,0,0,0,.2.069.688.688,0,0,0-.185-.11l-.544-.275-2.015-.991c-1.7-.837-4.04-2.02-6.623-3.337s-4.939-2.475-6.659-3.286c-.86-.4-1.558-.721-2.054-.929l-.562-.239A.812.812,0,0,0,25.83,197.22Z" transform="translate(-25.328 -163.323)"/><path class="b" d="M626.749,333.325A8.752,8.752,0,0,0,623,332.041a2.5,2.5,0,0,0-1.771.326.37.37,0,0,0-.182.323.391.391,0,0,0,.175.221,5.356,5.356,0,0,0,5.524.421" transform="translate(-467.755 -263.515)"/><path class="b" d="M631.331,319.7a18.158,18.158,0,0,1-2.418-2.128,6.112,6.112,0,0,1-1.515-2.8,1.134,1.134,0,0,1,.118-.94,9.408,9.408,0,0,1,3.815,5.871" transform="translate(-472.434 -249.999)"/><path class="b" d="M642.813,320.276a8.728,8.728,0,0,1,.046-3.175,4.3,4.3,0,0,1,1.689-2.621,3.756,3.756,0,0,1-.044,2.49,12.087,12.087,0,0,1-1.676,3.53" transform="translate(-483.839 -250.482)"/><path class="b" d="M636.861,350.25a5.518,5.518,0,0,0-3,1.52,5.686,5.686,0,0,0-1.72,2.949,4.049,4.049,0,0,0,2.772-1.753c.69-.888,1.173-1.866,1.933-2.7" transform="translate(-475.998 -277.07)"/><path class="b" d="M650.639,332.075a7.408,7.408,0,0,1,.855-7.005,8.917,8.917,0,0,1-.855,7.005" transform="translate(-489.366 -258.353)"/><path class="b" d="M646.783,363.908a5.358,5.358,0,0,0-5.134,2.947.4.4,0,0,0-.033.4.382.382,0,0,0,.339.1,4.453,4.453,0,0,0,2.641-1.366,24.79,24.79,0,0,1,2.2-2.087" transform="translate(-483.011 -287.213)"/><path class="b" d="M660.31,342.77a9.541,9.541,0,0,1-.095-5.327,2.633,2.633,0,0,1,1.137-1.73.217.217,0,0,1,.172-.031.229.229,0,0,1,.11.128,3.2,3.2,0,0,1,.257,1.527,9.566,9.566,0,0,1-.241,1.54,8.193,8.193,0,0,1-.824,2.777,5.372,5.372,0,0,0-.329.611c-.1.205-.1.28-.19.444" transform="translate(-496.618 -266.237)"/><path class="b" d="M686.767,350.155a6.857,6.857,0,0,1,1.2-5.647c.085-.113.2-.234.341-.221.216.021.272.308.257.513a10.206,10.206,0,0,1-1.8,5.345" transform="translate(-516.465 -272.637)"/><path class="b" d="M689.62,363.08a8.214,8.214,0,0,0,6.741-1.371,5.457,5.457,0,0,0-3.65-.447,5.136,5.136,0,0,0-3.08,1.817" transform="translate(-518.723 -285.156)"/><path class="b" d="M691.58,353.657a7.821,7.821,0,0,1,6.117-3.537,3.767,3.767,0,0,1-2,2.213,11.118,11.118,0,0,1-2.937.86,2.06,2.06,0,0,0-1.178.465" transform="translate(-520.18 -276.973)"/><path class="b" d="M685.243,319.789a17.934,17.934,0,0,0,.783-3.594,6,6,0,0,0-.714-3.545,7.8,7.8,0,0,0-.105,7.252" transform="translate(-514.816 -249.122)"/><path class="b" d="M703.31,318.688a9.609,9.609,0,0,1,7.069-4.808,7.854,7.854,0,0,1-7.069,4.808" transform="translate(-528.899 -250.036)"/><path class="b" d="M699.92,333.374c2.054.316,3.825,1.633,5.753,2.434a2.619,2.619,0,0,0,1.3.257,1.027,1.027,0,0,0,.637-1.8,2.751,2.751,0,0,0-.945-.572,10.512,10.512,0,0,0-6.569-.367" transform="translate(-526.379 -264.229)"/><path class="b" d="M695.27,339.863a2.428,2.428,0,0,1,1,.693,10.781,10.781,0,0,0,4.364,2.241c.167.041.385.057.467-.092s-.018-.293-.113-.408a6,6,0,0,0-2.634-1.8,6.712,6.712,0,0,0-3.08-.729" transform="translate(-522.922 -269.271)"/><path class="b" d="M690,305.453a8.253,8.253,0,0,0,6.33,2.154.439.439,0,0,0,.29-.1c.159-.175-.033-.442-.218-.585a7.284,7.284,0,0,0-6.4-1.466" transform="translate(-519.005 -243.606)"/><path class="b" d="M696.233,298.85a8.825,8.825,0,0,1,7.9-1.3,6.261,6.261,0,0,1-3.763,1.653,11.962,11.962,0,0,1-4.135-.349" transform="translate(-523.636 -237.588)"/><path class="b" d="M690.681,271.987c-.185-1.856-.064-3.322-.2-5.19,0-.149-.041-.329-.18-.38-.2-.077-.357.162-.421.362a5.943,5.943,0,0,0,.793,5.167" transform="translate(-518.719 -214.746)"/><path class="b" d="M693.25,272.1a10.9,10.9,0,0,0,3.081-2.991,4.084,4.084,0,0,0,.983-2.847,2.937,2.937,0,0,0-2.221,1.1,6.205,6.205,0,0,0-1.132,2.277c-.257.816-.418,1.656-.706,2.459" transform="translate(-521.421 -214.64)"/><path class="b" d="M704.888,272.221a24.79,24.79,0,0,0,7.573-4.464,3.868,3.868,0,0,0-2.844.218,8.97,8.97,0,0,0-4.767,4.225" transform="translate(-530.043 -215.613)"/><path class="b" d="M696.53,286.578a15.182,15.182,0,0,0,4.2.021,18.071,18.071,0,0,0,3.925-1.3.457.457,0,0,0,.257-.2.306.306,0,0,0-.095-.336.828.828,0,0,0-.336-.157,7.243,7.243,0,0,0-4.241.257,19.766,19.766,0,0,0-3.725,1.725" transform="translate(-523.852 -228.115)"/><path class="b" d="M663.435,288.511a7.453,7.453,0,0,1-.067-6.161,4.7,4.7,0,0,1,.544,3.06c-.105,1.052-.426,2.133-.447,3.191" transform="translate(-498.739 -226.6)"/><path class="b" d="M632.141,298.858a8.59,8.59,0,0,0-6.382,2.718,5.97,5.97,0,0,0,3.494-.647,17.945,17.945,0,0,0,2.985-2" transform="translate(-471.256 -238.869)"/><path class="b" d="M623.262,295.2a8.931,8.931,0,0,0-3.406.105,4.086,4.086,0,0,0-2.6,2.2,6.188,6.188,0,0,0,3.193-.6,18.452,18.452,0,0,0,2.808-1.7" transform="translate(-464.938 -236.066)"/><path class="b" d="M635.653,290.5a10.753,10.753,0,0,0-3.337-1.671,3.649,3.649,0,0,0-3.486.845,6.5,6.5,0,0,0,3.337.647,11.424,11.424,0,0,1,3.627.37" transform="translate(-473.538 -231.327)"/><path class="b" d="M649.547,274.684a7.758,7.758,0,0,1-1.751-7.324,11.161,11.161,0,0,1,1.751,7.324" transform="translate(-487.424 -215.458)"/><path class="b" d="M674.63,259.731c.339-.786.575-1.61.878-2.408a6.933,6.933,0,0,1,1.253-2.223,3.314,3.314,0,0,1,2.221-1.15,8.936,8.936,0,0,1-4.308,5.794" transform="translate(-507.581 -205.49)"/><path class="b" d="M657.736,271.376a11.588,11.588,0,0,0-1.964-2.39,3.283,3.283,0,0,0-2.672-.7,6.22,6.22,0,0,0,4.636,3.08" transform="translate(-491.578 -216.096)"/><path class="b" d="M669.075,260a13.242,13.242,0,0,1-.883-2.862,4.466,4.466,0,0,1,.447-2.911,6.6,6.6,0,0,1,.488,5.8" transform="translate(-502.74 -205.698)"/><path class="b" d="M674.64,242.838a6.249,6.249,0,0,1,4.066-3.822,1.511,1.511,0,0,1,.711-.105.613.613,0,0,1,.526.439c.067.313-.193.593-.436.8a13.772,13.772,0,0,1-4.877,2.688" transform="translate(-507.581 -194.307)"/><path class="b" d="M674.643,230.424a13.3,13.3,0,0,1,.531-3.519,4.443,4.443,0,0,1,2.215-2.675,5.208,5.208,0,0,1-.983,3.427,15.875,15.875,0,0,0-1.8,3.16" transform="translate(-507.566 -183.399)"/><path class="b" d="M664.632,232.841c-.46-1.343-.514-3.05-1.312-4.22-.562-.816-1.463-1.373-1.948-2.241a3.4,3.4,0,0,0,.115,2.544,7.325,7.325,0,0,0,1.486,2.131c.6.637,1.106,1.114,1.658,1.8" transform="translate(-497.583 -184.997)"/><path class="b" d="M674.469,289.712c-.036,0-.067-8.959-.069-20.01s.023-20.023.059-20.023.067,8.956.069,20.023S674.5,289.712,674.469,289.712Z" transform="translate(-507.409 -202.316)"/><path class="b" d="M682.453,301.08a1.927,1.927,0,0,1-.336.126l-.929.313c-.77.257-1.853.652-3.021,1.13a11.326,11.326,0,0,0-2.86,1.435,2.128,2.128,0,0,0-.578.77c-.087.211-.1.339-.116.336s0-.031,0-.092a1.476,1.476,0,0,1,.064-.257,2.053,2.053,0,0,1,.562-.811,5,5,0,0,1,1.242-.77c.5-.234,1.047-.475,1.63-.714,1.171-.48,2.251-.852,3.042-1.1.4-.123.719-.213.942-.272A2.049,2.049,0,0,1,682.453,301.08Z" transform="translate(-507.564 -240.522)"/><path class="b" d="M686.821,276.52s-.031.039-.095.1-.172.159-.288.27l-1.073.975-3.573,3.181c-1.394,1.24-2.6,2.426-3.435,3.319-.419.447-.747.816-.973,1.073l-.257.3c-.059.067-.092.1-.1.1a.693.693,0,0,1,.077-.116c.054-.072.134-.177.241-.311.213-.257.534-.649.945-1.1a45.333,45.333,0,0,1,3.414-3.355c1.4-1.237,2.675-2.351,3.594-3.152l1.1-.945.3-.257A.512.512,0,0,1,686.821,276.52Z" transform="translate(-509.365 -222.266)"/><path class="b" d="M689.71,290.083c-.039-.015.256-.688.544-1.54s.431-1.568.467-1.563a5.3,5.3,0,0,1-.344,1.6,10.75,10.75,0,0,1-.434,1.076,1.717,1.717,0,0,1-.234.424Z" transform="translate(-518.787 -230.041)"/><path class="b" d="M659.663,301.231a1.585,1.585,0,0,1-.216-.257l-.549-.706c-.465-.6-1.1-1.422-1.82-2.326s-1.376-1.712-1.851-2.31l-.565-.7a1.432,1.432,0,0,1-.192-.257,1.826,1.826,0,0,1,.231.234c.144.157.347.385.6.67.5.572,1.165,1.373,1.884,2.277s1.345,1.74,1.8,2.351c.224.308.4.557.513.732a1.63,1.63,0,0,1,.172.287Z" transform="translate(-492.596 -235.765)"/><path class="b" d="M665.425,303.753a3.13,3.13,0,0,1-.719-1.345,3.885,3.885,0,0,1-.164-1.358h.059c-.026.1-.046.159-.057.157s0-.059,0-.167h.059a6.171,6.171,0,0,0,.228,1.322A9.638,9.638,0,0,0,665.425,303.753Z" transform="translate(-500.078 -240.492)"/><path class="b" d="M648.119,299.163a2.368,2.368,0,0,0-.514-.29,3.356,3.356,0,0,0-1.394-.113,8.6,8.6,0,0,0-1.4.228,4.459,4.459,0,0,1-.578.139,2.039,2.039,0,0,1,.552-.228,6.449,6.449,0,0,1,1.42-.257,3.015,3.015,0,0,1,1.437.157.9.9,0,0,1,.48.365Z" transform="translate(-484.984 -238.69)"/><path class="b" d="M641.55,295.737c0,.02-.293-.118-.77-.28a7.85,7.85,0,0,0-1.92-.4,7.956,7.956,0,0,0-1.956.1c-.5.087-.8.182-.8.159a.768.768,0,0,1,.205-.087,5.019,5.019,0,0,1,.58-.162,6.862,6.862,0,0,1,3.925.3,4.832,4.832,0,0,1,.549.257A.793.793,0,0,1,641.55,295.737Z" transform="translate(-478.942 -235.938)"/><path class="b" d="M671.746,275.62a16.537,16.537,0,0,1-.562-1.948,15.532,15.532,0,0,1-.434-1.982,16.433,16.433,0,0,1,.56,1.948A15.363,15.363,0,0,1,671.746,275.62Z" transform="translate(-504.697 -218.676)"/><path class="b" d="M670.318,280.883a9.593,9.593,0,0,0-.621-1.168,4.961,4.961,0,0,0-.917-.942.863.863,0,0,1,.354.18,2.821,2.821,0,0,1,.667.691A2.566,2.566,0,0,1,670.318,280.883Z" transform="translate(-503.233 -223.939)"/><path class="b" d="M650.9,349.129c-.015,0-.041-.216-.141-.6a8.531,8.531,0,0,0-.6-1.54,21.563,21.563,0,0,0-3.175-4.474c-.711-.811-1.4-1.576-1.982-2.31a16.1,16.1,0,0,1-1.417-2.054,9.879,9.879,0,0,1-.716-1.515c-.064-.187-.113-.334-.139-.434a1.022,1.022,0,0,1-.038-.156s.077.205.226.572a10.9,10.9,0,0,0,.747,1.486,16.9,16.9,0,0,0,1.43,2.015c.588.724,1.284,1.486,1.987,2.3a19.979,19.979,0,0,1,3.16,4.521,7.9,7.9,0,0,1,.567,1.579,3.835,3.835,0,0,1,.077.449A.821.821,0,0,1,650.9,349.129Z" transform="translate(-483.84 -266.515)"/><path class="b" d="M681.782,355.9a4.124,4.124,0,0,1-.372.208,8.206,8.206,0,0,0-.96.634,11.161,11.161,0,0,0-1.263,1.153c-.444.47-.9,1.011-1.368,1.6a38.1,38.1,0,0,0-2.31,3.029c-.257.408-.46.755-.585,1a4.153,4.153,0,0,1-.2.375.265.265,0,0,1,.033-.105c.033-.067.064-.167.123-.29a9.339,9.339,0,0,1,.552-1.027,33.552,33.552,0,0,1,2.31-3.062c.467-.583.929-1.13,1.381-1.6a10.2,10.2,0,0,1,1.284-1.142,6.786,6.786,0,0,1,.993-.608c.123-.062.223-.1.29-.128S681.779,355.89,681.782,355.9Z" transform="translate(-507.648 -281.264)"/><path class="b" d="M688.61,365.972a5.845,5.845,0,0,1-.785.113,10.286,10.286,0,0,0-1.859.367,5.57,5.57,0,0,0-1.663.873c-.385.3-.565.542-.583.526a.591.591,0,0,1,.115-.18,2.966,2.966,0,0,1,.408-.418,5.047,5.047,0,0,1,1.684-.924,8.487,8.487,0,0,1,1.889-.336A4.284,4.284,0,0,1,688.61,365.972Z" transform="translate(-514.338 -288.749)"/><path class="b" d="M684.6,364.539c-.041-.023.313-.562.588-1.284s.316-1.373.362-1.366a1.219,1.219,0,0,1,0,.421,4.55,4.55,0,0,1-.228.991,4.811,4.811,0,0,1-.454.909C684.716,364.423,684.616,364.549,684.6,364.539Z" transform="translate(-514.99 -285.721)"/><path class="b" d="M684.072,328.78a.462.462,0,0,1-.123.067l-.37.167c-.162.069-.357.159-.578.275s-.48.231-.75.393l-.426.244c-.149.085-.3.185-.452.285-.316.19-.631.426-.968.665a16.684,16.684,0,0,0-3.727,3.85c-.231.347-.454.67-.634.991-.092.159-.19.311-.257.459s-.154.3-.228.436c-.152.275-.257.536-.367.77s-.19.424-.257.588-.113.275-.154.372a.8.8,0,0,1-.062.128.478.478,0,0,1,.036-.136l.133-.385c.056-.167.131-.367.234-.6s.205-.5.352-.77l.223-.441c.077-.154.172-.306.257-.467.177-.326.4-.655.626-1a16.141,16.141,0,0,1,3.756-3.886c.341-.239.662-.472.983-.662.157-.1.306-.2.457-.28l.434-.236c.275-.157.536-.27.77-.38s.424-.19.588-.257l.38-.144A.691.691,0,0,1,684.072,328.78Z" transform="translate(-507.648 -261.111)"/><path class="b" d="M689.34,340.694a.909.909,0,0,1,.308-.46,1.943,1.943,0,0,1,1.24-.475,3.376,3.376,0,0,1,1.307.257,1.9,1.9,0,0,1,.493.239,2.969,2.969,0,0,1-.513-.151,3.957,3.957,0,0,0-1.284-.213,2.023,2.023,0,0,0-1.186.416A3.7,3.7,0,0,0,689.34,340.694Z" transform="translate(-518.515 -269.272)"/><path class="b" d="M686.08,339.981a4.706,4.706,0,0,0,.352-1.145,4.635,4.635,0,0,0-.08-1.2.791.791,0,0,1,.146.334,2.307,2.307,0,0,1,.062.878,2.345,2.345,0,0,1-.257.839C686.19,339.889,686.093,339.991,686.08,339.981Z" transform="translate(-516.091 -267.697)"/><path class="b" d="M650.56,392a29.415,29.415,0,0,0,2.824,10.427h6.89A29.939,29.939,0,0,0,662.918,392Z" transform="translate(-489.69 -308.102)"/><path class="c" d="M664.95,413.424c0,.036-2.272.067-5.072.067s-5.078-.031-5.078-.067,2.272-.064,5.078-.064S664.95,413.388,664.95,413.424Z" transform="translate(-492.841 -323.979)"/><path class="c" d="M666.193,418.257c0,.036-2.128.064-4.757.064s-4.757-.028-4.757-.064,2.128-.067,4.757-.067S666.193,418.221,666.193,418.257Z" transform="translate(-494.238 -327.569)"/><path class="c" d="M661.807,400.79a19.7,19.7,0,0,1,0,3.178A18.949,18.949,0,0,1,661.807,400.79Z" transform="translate(-498 -314.636)"/><path class="c" d="M676.164,400.79a21.1,21.1,0,0,1,0,3.291A21.155,21.155,0,0,1,676.164,400.79Z" transform="translate(-508.673 -314.636)"/><path class="c" d="M689.687,400.68a22.005,22.005,0,0,1,0,3.358A21.133,21.133,0,0,1,689.687,400.68Z" transform="translate(-518.723 -314.554)"/><path class="c" d="M663.376,400.6c0,.036-2.665.064-5.953.064s-5.953-.028-5.953-.064,2.665-.067,5.953-.067S663.376,400.561,663.376,400.6Z" transform="translate(-490.366 -314.443)"/><path class="b" d="M548.21,83.7h.57l1.24-1.728v-1.14s.878-.054.77,1.43,0,1.109,0,1.109a8.779,8.779,0,0,1,2.02.169,19.11,19.11,0,0,1,.185,2.975,1.088,1.088,0,0,1-.77,1.1.89.89,0,0,1-.2.026c-.465,0-2.842-.377-2.842-.377H548.2Z" transform="translate(-413.605 -76.809)"/><path class="b" d="M541.91,90.77l.349,3.886h.973V90.847Z" transform="translate(-408.93 -84.198)"/><path class="b" d="M530.881,65.173a.938.938,0,0,1,.139,0h.714l.359.051.423.062.47.116a7.685,7.685,0,0,1,2.285,1,8.161,8.161,0,0,1,2.364,2.31,8.273,8.273,0,0,1,1.353,3.773,8.807,8.807,0,0,1,0,1.117,2.778,2.778,0,0,1-.039.565l-.085.57a8.072,8.072,0,0,1-.77,2.249A8.654,8.654,0,0,1,536.626,79a8.523,8.523,0,0,1-2.115,1.52,7.683,7.683,0,0,1-2.567.778,4.726,4.726,0,0,1-.688.059,6.246,6.246,0,0,1-.693.013,8.277,8.277,0,0,1-1.394-.175,8.13,8.13,0,0,1-2.772-1.168h.085l-2.824,1.135-.169.067.049-.175c.285-1.027.562-2.054.829-3.019l.015.074a8.062,8.062,0,0,1-1.507-3.45,7.374,7.374,0,0,1-.11-1.766,5.84,5.84,0,0,1,.08-.85c.023-.139.044-.275.064-.413s.067-.257.1-.4a8.073,8.073,0,0,1,3.145-4.587,7.649,7.649,0,0,1,1.876-.988l.421-.151.4-.1.367-.09c.118-.023.231-.036.339-.051.213-.028.4-.064.565-.072l.416-.015h.341a.315.315,0,0,1-.085,0l-.257.021-.411.028a4.631,4.631,0,0,0-.562.085,8.03,8.03,0,0,0-6.418,5.955c-.031.131-.072.257-.095.4l-.062.406a5.529,5.529,0,0,0-.074.832,7.215,7.215,0,0,0,.115,1.733,7.916,7.916,0,0,0,1.486,3.376l.026.033v.041c-.257.975-.542,1.984-.824,3.021l-.118-.108,2.824-1.135.046-.018.039.026a7.957,7.957,0,0,0,2.711,1.14,8.151,8.151,0,0,0,1.36.172,6.016,6.016,0,0,0,.68,0,4.877,4.877,0,0,0,.673-.056,7.572,7.572,0,0,0,2.523-.77,8.386,8.386,0,0,0,2.072-1.484,8.572,8.572,0,0,0,1.443-1.974,7.99,7.99,0,0,0,.77-2.2c.031-.187.059-.375.087-.557s.023-.372.038-.554a7.919,7.919,0,0,0-3.625-7.072,7.7,7.7,0,0,0-2.249-1.014l-.49-.113-.419-.069-.357-.059c-.11,0-.21-.015-.3-.023l-.4-.041A.531.531,0,0,1,530.881,65.173Z" transform="translate(-394.69 -65.17)"/></g><g transform="translate(5.973 94.222)"><path class="d" d="M214.646,432.287c0,.036-37.876.067-84.588.067s-84.6-.031-84.6-.067,37.874-.067,84.593-.067S214.646,432.248,214.646,432.287Z" transform="translate(-45.46 -432.22)"/></g><g transform="translate(0 27.808)"><rect class="e" width="145.537" height="19.674" transform="translate(17.746 30.943)"/><g class="f" transform="translate(16.592 30.91)"><rect width="145.537" height="19.674" transform="translate(0 0)"/></g><path class="g" d="M191.6,202.784a12.065,12.065,0,0,0-9.919-7.832L149.008,191.1l-11.926-8.512a48.907,48.907,0,0,0-28.409-9.09H31.126a1.34,1.34,0,0,0-.513,2.567l5.591,2.39a10.285,10.285,0,0,0-.562,1.1l-3.157,7.316a14.252,14.252,0,0,0-1.165,5.647,3.2,3.2,0,0,0-3.2,3.2V208.46l-3.311,1.479a4.428,4.428,0,0,0-2.618,4.038v3.306a5.391,5.391,0,0,0,4.338,5.3l17.53,3.507V224.5A16.922,16.922,0,0,1,60.98,207.582h0A16.922,16.922,0,0,1,77.9,224.5v1.584H148.33V224.5a16.922,16.922,0,0,1,16.922-16.922h0A16.922,16.922,0,0,1,182.174,224.5v1.584h8.648a4.225,4.225,0,0,0,4.225-4.228V212.2Z" transform="translate(-22.19 -173.5)"/><path class="h" d="M62.063,193.929l-3.157,7.316a14.252,14.252,0,0,0-1.165,5.647H62.1l4.261-12.463-3.735-1.6A10.281,10.281,0,0,0,62.063,193.929Z" transform="translate(-48.614 -187.868)"/><path class="i" d="M665.892,281.634a11.984,11.984,0,0,0-.991-2.054H660.28l4.192,9.729,4.877,2.824v-1.078Z" transform="translate(-496.482 -252.349)"/><g class="j" transform="translate(163.798 27.231)"><path d="M665.892,281.634a11.984,11.984,0,0,0-.991-2.054H660.28l4.192,9.729,4.877,2.824v-1.078Z" transform="translate(-660.28 -279.58)"/></g><path class="k" d="M45.564,267.653h2.4a6.735,6.735,0,0,0,3.851-1.2l3.994-2.772a2.605,2.605,0,0,0,1.124-2.146h0a2.613,2.613,0,0,0-2.613-2.613H45.592a.382.382,0,0,0-.382.382v7.958A.383.383,0,0,0,45.564,267.653Z" transform="translate(-39.3 -236.993)"/><path class="i" d="M668.14,290.052l-1.391-.8h.85a.513.513,0,0,0,0-1.009H665l-.875-.513h2.968a.513.513,0,0,0,0-1.011h-3.94l-.218-.513H666.5a.513.513,0,1,0,0-1.009h-4l-.218-.513H666a.513.513,0,1,0,0-1.009h-4.166l-.218-.513h3.812a.513.513,0,0,0,0-1.009h-4.241l-.216-.513h3.868a.513.513,0,1,0,0-1.009h-4.3l-.218-.513h3.987a.513.513,0,0,0,0-1.011h-4.42l-.3-.7h3.866a.513.513,0,1,0,0-1.009h-4.621a.513.513,0,0,0-.465.7l1.389,3.222h0l.652,1.515h0l.652,1.515h0l.652,1.514h0l.652,1.512h0l.193.447a.528.528,0,0,0,.211.239l4.877,2.824a.513.513,0,0,0,.513-.875Z" transform="translate(-495.031 -250.718)"/><g class="j" transform="translate(163.297 26.667)"><path class="l" d="M668.14,290.052l-1.391-.8h.85a.513.513,0,0,0,0-1.009H665l-.875-.513h2.968a.513.513,0,0,0,0-1.011h-3.94l-.218-.513H666.5a.513.513,0,1,0,0-1.009h-4l-.218-.513H666a.513.513,0,1,0,0-1.009h-4.166l-.218-.513h3.812a.513.513,0,0,0,0-1.009h-4.241l-.216-.513h3.868a.513.513,0,1,0,0-1.009h-4.3l-.218-.513h3.987a.513.513,0,0,0,0-1.011h-4.42l-.3-.7h3.866a.513.513,0,1,0,0-1.009h-4.621a.513.513,0,0,0-.465.7l1.389,3.222h0l.652,1.515h0l.652,1.515h0l.652,1.514h0l.652,1.512h0l.193.447a.528.528,0,0,0,.211.239l4.877,2.824a.513.513,0,0,0,.513-.875Z" transform="translate(-658.328 -277.385)"/></g><circle class="d" cx="14.747" cy="14.747" r="14.747" transform="translate(24.21 37.176) rotate(-0.86)"/><path class="d" d="M117.345,373.94a.192.192,0,0,0,0,.038,14.747,14.747,0,1,0,29.491.426.192.192,0,0,0,0-.039Z" transform="translate(-92.918 -322.487)"/><path class="c" d="M134.447,344.791a10.353,10.353,0,1,0,10.5-10.2A10.353,10.353,0,0,0,134.447,344.791Z" transform="translate(-105.63 -293.235)"/><path class="b" d="M144.952,334.587a10.353,10.353,0,0,0-10.5,10.2l20.705.3A10.353,10.353,0,0,0,144.952,334.587Z" transform="translate(-105.633 -293.235)"/><path class="d" d="M150.208,356.563a6.307,6.307,0,1,0,6.4-6.215A6.307,6.307,0,0,0,150.208,356.563Z" transform="translate(-117.345 -304.951)"/><circle class="d" cx="14.747" cy="14.747" r="14.747" transform="translate(127.145 38.31) rotate(-5.03)"/><path class="d" d="M522.336,373.94v.039a14.748,14.748,0,1,0,29.492.426v-.039Z" transform="translate(-393.947 -322.487)"/><path class="c" d="M539.437,344.791a10.353,10.353,0,1,0,10.5-10.2A10.353,10.353,0,0,0,539.437,344.791Z" transform="translate(-406.658 -293.235)"/><path class="b" d="M549.942,334.587a10.353,10.353,0,0,0-10.5,10.2l20.706.3A10.353,10.353,0,0,0,549.942,334.587Z" transform="translate(-406.662 -293.235)"/><path class="d" d="M555.208,356.563a6.307,6.307,0,1,0,6.4-6.215A6.307,6.307,0,0,0,555.208,356.563Z" transform="translate(-418.381 -304.95)"/><path class="h" d="M438.114,200.282l-11.926-8.512a48.9,48.9,0,0,0-11.115-5.93H411.14L435,201.7Z" transform="translate(-311.296 -182.672)"/><path class="c" d="M653.289,267.261h5.8a14.118,14.118,0,0,0-2.983-2.926C654.778,263.908,653.161,265.569,653.289,267.261Z" transform="translate(-491.28 -240.967)"/><path class="d" d="M137.747,200.343h76.728l-21.912-15.115a9.359,9.359,0,0,0-5.537-1.812H139.466S122.38,183,118.63,188.152Z" transform="translate(-93.874 -180.865)"/><path class="h" d="M130.364,203.16c-.282,0-.56,0-.837-.026a13.431,13.431,0,0,1-9.678-5.006l-3.137-3.892a2.567,2.567,0,0,1,1.052-3.987l2.7-1.188a28.832,28.832,0,0,1,10.027-1.912h8.925l-2.86,16.01Zm12.437,0,2.852-16.01h26.286v16.01Zm37.129,0-3.08-16.01h9.085a6.466,6.466,0,0,1,3.868,1.284l19.7,14.724Z" transform="translate(-92.031 -183.646)"/><path class="d" d="M349.694,278.546a.243.243,0,0,1,0-.074v-1.078c0-.752.013-1.825.023-3.145.031-2.665.074-6.328.121-10.376.031-2.025.059-3.956.085-5.712,0-.878.028-1.712.041-2.493a13.906,13.906,0,0,0-.074-2.161,15.143,15.143,0,0,0-.714-3.05c-.121-.349-.223-.619-.3-.8l-.085-.205a.327.327,0,0,1-.026-.072.381.381,0,0,1,.039.067c.023.044.054.113.1.2.082.18.193.447.323.793a14.637,14.637,0,0,1,.755,3.055,13.69,13.69,0,0,1,.092,2.174c0,.783-.018,1.617-.028,2.493-.023,1.758-.049,3.686-.074,5.714-.062,4.046-.118,7.7-.162,10.373-.026,1.319-.049,2.392-.064,3.145q-.015.547-.023.855v.223A.282.282,0,0,1,349.694,278.546Z" transform="translate(-264.937 -229.902)"/><path class="d" d="M482.08,253.87a.232.232,0,0,1,.059.041c.046.033.1.077.172.133l.126.1.131.141a2.99,2.99,0,0,1,.311.367,9.826,9.826,0,0,1,1.33,2.752,20.44,20.44,0,0,1,.572,2.036c.087.37.164.755.236,1.155a5.716,5.716,0,0,1,.1,1.25c0,1.707-.054,3.594-.1,5.552-.1,3.938-.221,7.5-.316,10.081-.049,1.284-.09,2.323-.118,3.055-.018.352-.031.631-.041.829l-.013.216a.349.349,0,0,1,0,.074.421.421,0,0,1,0-.074v-1.047c.02-.732.046-1.771.077-3.055.072-2.588.169-6.148.277-10.083.049-1.966.1-3.851.113-5.547a5.729,5.729,0,0,0-.087-1.232c-.069-.4-.144-.77-.228-1.15-.167-.737-.354-1.417-.552-2.03a10.181,10.181,0,0,0-1.291-2.76A4.818,4.818,0,0,0,482.08,253.87Z" transform="translate(-364.026 -233.239)"/><path class="g" d="M455.458,237.093h0a2.634,2.634,0,0,0-1.345-2.31l-3.453-1.941a6.608,6.608,0,0,0-3.227-.842h0a6.581,6.581,0,0,0-2.054.326,3.748,3.748,0,0,0-2.518,3.44h0a3.807,3.807,0,0,0,3.8,3.951h6.161A2.636,2.636,0,0,0,455.458,237.093Z" transform="translate(-334.873 -216.983)"/><path class="d" d="M455.254,236.892a1.992,1.992,0,0,1-.041.334,2.631,2.631,0,0,1-.3.9,2.691,2.691,0,0,1-1.058,1.042,2.613,2.613,0,0,1-.888.28c-.326.038-.688.015-1.063.021l-5.27-.018a4.022,4.022,0,0,1-1.466-.241,3.743,3.743,0,0,1-.857-6.548,3.957,3.957,0,0,1,1.427-.6,6.647,6.647,0,0,1,1.491-.177,6.538,6.538,0,0,1,2.7.58c.4.177.77.4,1.122.6l1.027.57,1.771.983a2.657,2.657,0,0,1,1.06,1.035,2.7,2.7,0,0,1,.305.9c.033.218.028.334.039.334a1.678,1.678,0,0,0,0-.336,2.566,2.566,0,0,0-.285-.927,2.664,2.664,0,0,0-1.068-1.094l-1.758-1-1.027-.58c-.359-.2-.719-.426-1.127-.611a6.651,6.651,0,0,0-4.287-.431,4.137,4.137,0,0,0-1.481.621A3.879,3.879,0,0,0,442.6,235.4a3.962,3.962,0,0,0,.241,1.7,3.909,3.909,0,0,0,2.277,2.249,4.074,4.074,0,0,0,1.52.244l5.27-.015a10.465,10.465,0,0,0,1.076-.033,2.623,2.623,0,0,0,.916-.3,2.741,2.741,0,0,0,1.073-1.091,2.538,2.538,0,0,0,.28-.927A1.876,1.876,0,0,0,455.254,236.892Z" transform="translate(-334.668 -216.782)"/><path class="l" d="M454.78,235.288a3.3,3.3,0,0,1,.3-.287,2.035,2.035,0,0,1,1.027-.411,4.466,4.466,0,0,1,1.643.177,12.92,12.92,0,0,1,1.938.66,12.708,12.708,0,0,1,3.155,1.964c.734.614,1.119,1.068,1.142,1.047a1.859,1.859,0,0,0-.257-.329,9.874,9.874,0,0,0-.809-.806,11.7,11.7,0,0,0-3.165-2.023,12.016,12.016,0,0,0-1.966-.657,4.425,4.425,0,0,0-1.694-.146,2,2,0,0,0-1.042.477,1.3,1.3,0,0,0-.205.236A.352.352,0,0,0,454.78,235.288Z" transform="translate(-343.734 -218.805)"/><path class="d" d="M128.509,310.608v-.182c0-.121.015-.3.028-.534s.039-.513.041-.865-.013-.739-.021-1.183-.082-.937-.126-1.476c-.026-.27-.087-.547-.131-.837s-.087-.593-.162-.9a22.675,22.675,0,0,0-1.322-4.076,21.867,21.867,0,0,0-2.654-4.459,20.974,20.974,0,0,0-4.243-4.161,19.993,19.993,0,0,0-5.86-2.955,23.319,23.319,0,0,0-6.975-1.055,24.084,24.084,0,0,0-6.969,1.1,21.846,21.846,0,0,0-5.9,2.893,23.872,23.872,0,0,0-4.433,3.974,25.9,25.9,0,0,0-3,4.241,28.488,28.488,0,0,0-1.769,3.9c-.113.3-.2.59-.29.868s-.185.547-.257.809c-.131.513-.257,1-.365,1.438l-.231,1.16c-.062.336-.092.626-.128.857l-.077.529c-.018.118-.031.18-.031.18a1.392,1.392,0,0,1,.018-.182l.064-.529c.031-.234.059-.513.116-.863s.136-.726.221-1.165.223-.914.352-1.44c.064-.257.162-.531.257-.814s.175-.575.285-.873a27.9,27.9,0,0,1,1.771-3.922,25.994,25.994,0,0,1,3-4.269,24.023,24.023,0,0,1,4.449-4,21.923,21.923,0,0,1,5.927-2.916,24.276,24.276,0,0,1,7.008-1.109,23.434,23.434,0,0,1,7.013,1.063,20.131,20.131,0,0,1,5.891,2.98,21.072,21.072,0,0,1,4.264,4.192,21.978,21.978,0,0,1,2.652,4.49,22.645,22.645,0,0,1,1.307,4.107c.074.308.105.616.159.9s.1.57.126.842c.039.542.1,1.027.113,1.481s0,.842,0,1.186-.041.632-.054.868-.031.408-.041.531S128.509,310.608,128.509,310.608Z" transform="translate(-67.858 -258.452)"/><path class="d" d="M193.877,258.843a1.007,1.007,0,0,1-.077-.1c-.046-.067-.113-.185-.19-.305-.162-.257-.393-.652-.665-1.14a19,19,0,0,1-.883-1.751,3.062,3.062,0,0,1-.18-.549.719.719,0,0,1,.018-.313c.023-.1.054-.192.082-.29.128-.382.275-.77.434-1.165.634-1.579,1.268-2.98,1.728-3.994.234-.513.424-.914.56-1.194.062-.128.116-.236.159-.323a.4.4,0,0,1,.064-.108.552.552,0,0,1-.041.121l-.136.331-.513,1.212c-.439,1.027-1.058,2.431-1.692,4-.157.393-.305.77-.431,1.158a1.208,1.208,0,0,0-.1.544,2.675,2.675,0,0,0,.167.513c.282.675.593,1.26.852,1.753l.626,1.158.169.316A.68.68,0,0,1,193.877,258.843Z" transform="translate(-148.315 -228.586)"/><path class="d" d="M63.159,310.264c0,.038-4.128.049-9.218.026s-9.221-.072-9.221-.108,4.128-.049,9.221-.026S63.159,310.228,63.159,310.264Z" transform="translate(-38.937 -275.068)"/><path class="d" d="M318.346,361.9c0,.036-13.392.067-29.908.067s-29.908-.033-29.908-.069,13.387-.067,29.908-.067S318.346,361.874,318.346,361.9Z" transform="translate(-197.861 -313.486)"/><path class="d" d="M669.022,362.527c0,.039-2.054.067-4.58.067s-4.582-.028-4.582-.067,2.054-.067,4.582-.067S669.022,362.491,669.022,362.527Z" transform="translate(-496.169 -313.954)"/><path class="d" d="M542.455,253.314h-.11l-.285-.021-1.1-.09c-.96-.077-2.344-.205-4.056-.375-3.422-.341-8.143-.875-13.348-1.6s-9.883-1.507-13.266-2.12c-1.692-.306-3.06-.562-4-.75l-1.086-.218-.282-.059-.1-.026a.56.56,0,0,1,.1,0l.285.046,1.091.193L510.3,249c3.386.588,8.076,1.353,13.271,2.079s9.909,1.283,13.328,1.64l4.048.418,1.1.116.288.031Z" transform="translate(-380.928 -228.914)"/><path class="d" d="M370.749,266.044a1.034,1.034,0,0,0,.208-.031,1.439,1.439,0,0,0,.547-.218,1.391,1.391,0,0,0,.557-.724,1.541,1.541,0,0,0,.072-.572,1.417,1.417,0,0,0-.162-.621,1.373,1.373,0,0,0-1.2-.729h-5.781a1.366,1.366,0,0,0-1.353,1.209,1.541,1.541,0,0,0,.167.919,1.384,1.384,0,0,0,.667.593,2.138,2.138,0,0,0,.865.105h2.395l2.218.023h.6a1.334,1.334,0,0,1,.211.013,1.028,1.028,0,0,1-.211.013l-.6.013-2.218.051h-2.842a1.54,1.54,0,0,1-.465-.105,1.509,1.509,0,0,1-.732-.644,1.651,1.651,0,0,1-.185-1,1.494,1.494,0,0,1,1.484-1.33h5.781a1.479,1.479,0,0,1,1.284.8,1.5,1.5,0,0,1,.164.662,1.637,1.637,0,0,1-.087.6,1.44,1.44,0,0,1-.6.744,1.4,1.4,0,0,1-.572.2A.827.827,0,0,1,370.749,266.044Z" transform="translate(-275.882 -240.033)"/><path class="l" d="M376.614,261.594a37.606,37.606,0,0,1-4.564,0,39.048,39.048,0,0,1,4.564,0Z" transform="translate(-282.241 -238.924)"/><path class="d" d="M222.992,266.9a1.033,1.033,0,0,0,.208-.031,1.4,1.4,0,0,0,.547-.218,1.379,1.379,0,0,0,.557-.724,1.52,1.52,0,0,0,.072-.572,1.417,1.417,0,0,0-.162-.621,1.384,1.384,0,0,0-1.2-.729h-5.781a1.366,1.366,0,0,0-1.353,1.209,1.54,1.54,0,0,0,.167.919,1.384,1.384,0,0,0,.667.593,2.1,2.1,0,0,0,.865.105h2.392l2.218.021.6.013a1.341,1.341,0,0,1,.21.013,1.115,1.115,0,0,1-.21.015l-.6.013-2.218.021h-2.842a1.471,1.471,0,0,1-.465-.105,1.5,1.5,0,0,1-.732-.644,1.648,1.648,0,0,1-.185-1,1.491,1.491,0,0,1,1.484-1.332h5.783a1.476,1.476,0,0,1,1.283.8,1.5,1.5,0,0,1,.164.662,1.637,1.637,0,0,1-.087.6,1.44,1.44,0,0,1-.6.744,1.387,1.387,0,0,1-.57.2.841.841,0,0,1-.216.046Z" transform="translate(-166.053 -240.657)"/><path class="l" d="M228.884,262.5a37.606,37.606,0,0,1-4.564,0,39.066,39.066,0,0,1,4.564,0Z" transform="translate(-172.433 -239.601)"/><path class="d" d="M534.423,312.59v-1.581c0-.352-.051-.737-.082-1.178s-.123-.932-.192-1.468c-.036-.257-.108-.542-.162-.829s-.113-.588-.2-.891a24.411,24.411,0,0,0-1.427-4.038,23.157,23.157,0,0,0-2.711-4.418,21.713,21.713,0,0,0-4.251-4.146,20.258,20.258,0,0,0-5.832-2.991,22.509,22.509,0,0,0-13.908,0,20.331,20.331,0,0,0-5.835,2.988,21.779,21.779,0,0,0-4.251,4.146,23.178,23.178,0,0,0-2.711,4.42,24.41,24.41,0,0,0-1.427,4.035c-.082.305-.131.606-.2.893s-.126.562-.162.829c-.069.537-.154,1.027-.193,1.466s-.056.837-.082,1.178,0,.634,0,.868v0c0-.231-.015-.526,0-.868s.044-.739.069-1.183.115-.932.18-1.471c.033-.257.105-.544.159-.834s.108-.59.19-.9a24.6,24.6,0,0,1,1.412-4.058,23.264,23.264,0,0,1,2.652-4.446,21.8,21.8,0,0,1,4.266-4.179,20.433,20.433,0,0,1,5.866-3.014,22.59,22.59,0,0,1,13.99,0,20.282,20.282,0,0,1,5.863,3.014,21.714,21.714,0,0,1,4.266,4.177,23.2,23.2,0,0,1,2.713,4.449,24.419,24.419,0,0,1,1.414,4.061c.082.306.128.608.19.9s.123.565.157.832c.067.539.146,1.027.182,1.473s.049.839.069,1.183,0,.632,0,.865v.534A.548.548,0,0,1,534.423,312.59Z" transform="translate(-370.504 -259.957)"/><path class="d" d="M95.68,180.1a.562.562,0,0,1-.116,0H89.149l-15.769-.051L64.7,180c-2.667-.021-5.072,0-7.09-.118a35.015,35.015,0,0,1-4.749-.547c-.554-.105-.983-.2-1.271-.277l-.326-.085a.775.775,0,0,1-.11-.033l.113.021.331.072c.288.067.719.154,1.284.257a37.271,37.271,0,0,0,4.744.5c2.015.105,4.418.077,7.085.09l8.684.033L89.16,180l4.78.044,1.3.018h.336A.522.522,0,0,0,95.68,180.1Z" transform="translate(-43.716 -177.544)"/><path class="c" d="M259.192,209.918c.018.031-2.778,1.54-6.24,3.337s-6.287,3.258-6.3,3.224,2.775-1.54,6.24-3.337S259.177,209.885,259.192,209.918Z" transform="translate(-189.031 -200.569)"/><path class="c" d="M278.89,205.35a.728.728,0,0,1-.136.082l-.4.216-1.471.77c-1.242.652-2.955,1.556-4.834,2.567s-3.568,1.971-4.787,2.662l-1.445.816-.4.218a.576.576,0,0,1-.144.067.836.836,0,0,1,.128-.09l.382-.239c.336-.208.821-.5,1.427-.855,1.206-.711,2.89-1.674,4.772-2.7s3.594-1.915,4.854-2.544c.626-.313,1.135-.565,1.489-.732l.411-.193A.552.552,0,0,1,278.89,205.35Z" transform="translate(-202.879 -197.174)"/><path class="c" d="M385.4,213.64a.443.443,0,0,1-.11.062l-.321.149-1.191.531c-1.006.449-2.39,1.081-3.9,1.812s-2.867,1.422-3.851,1.93l-1.158.6-.318.159a.493.493,0,0,1-.113.049.77.77,0,0,1,.1-.072l.305-.182c.257-.157.655-.375,1.137-.639.968-.529,2.31-1.237,3.833-1.969s2.908-1.35,3.925-1.779c.513-.213.922-.382,1.209-.493l.331-.126A.494.494,0,0,1,385.4,213.64Z" transform="translate(-284.01 -203.336)"/><path class="c" d="M388.745,212.25a6.092,6.092,0,0,1-.732.375c-.454.223-1.081.539-1.756.916s-1.283.744-1.7,1.014a6.223,6.223,0,0,1-.706.426,4.2,4.2,0,0,1,.652-.513c.418-.293,1.011-.675,1.689-1.053a19.779,19.779,0,0,1,1.784-.886A4.055,4.055,0,0,1,388.745,212.25Z" transform="translate(-291.012 -202.303)"/><path class="c" d="M155.679,211.677c.015.036-1.835.77-4.13,1.661s-4.166,1.568-4.179,1.54,1.835-.77,4.13-1.658S155.666,211.643,155.679,211.677Z" transform="translate(-115.236 -201.876)"/><path class="c" d="M149.694,208.685c.013.033-1.584.649-3.563,1.371s-3.594,1.284-3.612,1.248,1.584-.649,3.566-1.373S149.682,208.649,149.694,208.685Z" transform="translate(-111.631 -199.652)"/><path class="c" d="M535.926,286.421a1.176,1.176,0,0,1-.21-.013l-.6-.059-.431-.046c-.159-.013-.331-.02-.513-.031-.372-.018-.793-.059-1.258-.051h-.734c-.257,0-.513.018-.793.028-.547,0-1.129.077-1.745.134a25.546,25.546,0,0,0-7.7,2.115c-.557.257-1.091.513-1.568.77-.241.133-.477.257-.7.383l-.626.377c-.4.234-.744.483-1.055.685-.154.105-.3.2-.426.293s-.244.18-.349.257l-.483.357a1.07,1.07,0,0,1-.175.118,1.131,1.131,0,0,1,.157-.139l.47-.377.341-.27c.128-.1.257-.193.421-.3.308-.213.647-.467,1.05-.706l.624-.388c.218-.134.457-.257.7-.39.477-.275,1.027-.513,1.571-.791a24.9,24.9,0,0,1,7.742-2.128c.619-.054,1.2-.115,1.756-.121.275,0,.539-.026.8-.02l.734.013c.47,0,.891.046,1.263.072.185.015.357.023.513.041l.431.059.6.085A1.115,1.115,0,0,1,535.926,286.421Z" transform="translate(-389.655 -257.201)"/><path class="c" d="M133.188,284.506a.835.835,0,0,1-.167.013h-.475c-.205,0-.457,0-.75.021s-.626.023-.991.064l-.578.051c-.2.021-.406.054-.621.08-.429.051-.883.141-1.363.223a28.564,28.564,0,0,0-3.062.8,31.184,31.184,0,0,0-2.952,1.145c-.886.4-1.669.8-2.31,1.16-.326.172-.608.347-.863.493s-.47.275-.644.385l-.406.257a.913.913,0,0,1-.146.08.667.667,0,0,1,.131-.1c.1-.067.231-.157.393-.257s.382-.257.634-.406.531-.334.855-.513c.639-.372,1.422-.77,2.31-1.191a29.483,29.483,0,0,1,2.957-1.183,26.874,26.874,0,0,1,3.08-.791c.483-.08.94-.167,1.373-.211.216-.026.424-.056.624-.074l.58-.044c.367-.036.7-.036,1-.044s.547,0,.752,0l.477.018A.693.693,0,0,1,133.188,284.506Z" transform="translate(-93.301 -255.974)"/><path class="b" d="M23.011,0h0Z" transform="translate(54.809 19.096) rotate(-2.37)"/><path class="d" d="M233.468,203.706l-.6-14.486,23.247-.96.6,14.488Zm-.331-14.229.578,13.975,22.733-.94-.578-13.975Z" transform="translate(-178.788 -184.471)"/><rect class="c" width="1.548" height="2.272" transform="translate(54.983 3.504)"/><rect class="c" width="1.548" height="1.083" transform="translate(75.236 3.43)"/></g><g transform="translate(109.831 12.799)"><path class="m" d="M532.972,222.406a.354.354,0,0,1,.051-.116l.891.175a12.926,12.926,0,0,1,1.479-.139c.062.051,1.579,1.54,1.63,1.54s2.118.218,2.118.218l.049,2.567-1.861-.028-1.589-2.292-2.51-1.389A.5.5,0,0,1,532.972,222.406Z" transform="translate(-511.678 -194.756)"/><path class="d" d="M602.61,282.39l3.15,18.318a5.873,5.873,0,0,0,1.212,2.683l7.758,9.636,3.16-2.585L612.046,298.8l-.8-16.377Z" transform="translate(-563.447 -239.429)"/><path class="d" d="M589.453,282.34l-.578,17.969a40.419,40.419,0,0,1,.77,5.424c.018,1.787-.829,9.567-.829,9.567l-3.337.039-2.372-13.862-.968-19.093Z" transform="translate(-548.232 -239.392)"/><path class="h" d="M606.8,300.93c-.036,0-.6-3.527-1.253-7.891s-1.155-7.9-1.117-7.909.6,3.527,1.25,7.891S606.839,300.925,606.8,300.93Z" transform="translate(-564.801 -241.465)"/><path class="g" d="M652.5,391.67l.1.133,1.895,2.547,2.367,1.676-3.293,6.117-3.527-.049s.257-.842,1.971-1.255l.162-3.383-3-3.391" transform="translate(-598.055 -320.656)"/><g class="n" transform="translate(51.98 75.013)"><path class="l" d="M659.363,407.607l-3.3,6.117-3.527-.049.406-.524,2.87-.118,3.042-5.783Z" transform="translate(-652.54 -407.25)"/></g><path class="d" d="M660.382,420.686c.026.036.231-.077.513-.064s.472.126.5.092-.164-.241-.5-.257S660.351,420.658,660.382,420.686Z" transform="translate(-606.386 -342.054)"/><path class="d" d="M660.64,416.941c.036.026.2-.18.477-.231s.513.082.529.044-.028-.074-.126-.128a.665.665,0,0,0-.811.149C660.638,416.862,660.622,416.921,660.64,416.941Z" transform="translate(-606.576 -339.148)"/><path class="d" d="M660.6,412.621c.039.021.162-.182.408-.257s.467,0,.485-.036-.036-.067-.131-.105a.611.611,0,0,0-.721.241C660.59,412.547,660.585,412.613,660.6,412.621Z" transform="translate(-606.546 -335.906)"/><path class="d" d="M656.96,408.918c.041.015.144-.182.365-.321s.439-.157.444-.2-.257-.1-.529.072S656.917,408.913,656.96,408.918Z" transform="translate(-603.835 -333.052)"/><path class="d" d="M654.653,403.685a1.876,1.876,0,0,0,.313-.365l.305-.421a1.138,1.138,0,0,0,.167-.282.273.273,0,0,0-.018-.213.221.221,0,0,0-.211-.115.684.684,0,0,0-.334.167,1.191,1.191,0,0,0-.408.747.655.655,0,0,0,.072.483,3.851,3.851,0,0,1,.036-.462,1.2,1.2,0,0,1,.2-.444,1.139,1.139,0,0,1,.2-.205.55.55,0,0,1,.257-.128.062.062,0,0,1,.067.031.133.133,0,0,1,0,.1,1.2,1.2,0,0,1-.139.244l-.277.439A1.578,1.578,0,0,0,654.653,403.685Z" transform="translate(-601.98 -328.549)"/><path class="d" d="M651.034,406.121c.015,0,0-.187-.182-.4a.888.888,0,0,0-1.045-.205.18.18,0,0,0-.057.126.226.226,0,0,0,.041.113.545.545,0,0,0,.126.113,1.749,1.749,0,0,0,.257.146,1.616,1.616,0,0,0,.462.136c.275.033.442-.018.436-.036s-.167-.015-.416-.072a1.77,1.77,0,0,1-.418-.157,1.392,1.392,0,0,1-.221-.141.479.479,0,0,1-.09-.08c-.015-.031,0-.023,0-.031a.275.275,0,0,1,.1-.038,1.138,1.138,0,0,1,.131-.018.875.875,0,0,1,.257.023.851.851,0,0,1,.377.2C650.959,405.967,651.008,406.132,651.034,406.121Z" transform="translate(-598.486 -330.882)"/><g class="n" transform="translate(55.99 74.81)"><path class="l" d="M668.16,406.871a.418.418,0,1,0,.424-.411A.418.418,0,0,0,668.16,406.871Z" transform="translate(-668.16 -406.46)"/></g><path class="g" d="M584.813,406.348l-.018,6.674-8.315.105c.039-.8,4.667-2.421,4.667-2.421l-.1-4.487Z" transform="translate(-544.025 -331.471)"/><g class="n" transform="translate(38.942 78.813)"><path class="l" d="M602.152,422.062a.341.341,0,0,1,.239.385.326.326,0,0,1-.38.241.359.359,0,0,1-.257-.408.339.339,0,0,1,.424-.208" transform="translate(-601.749 -422.055)"/></g><g class="n" transform="translate(32.454 80.879)"><path class="l" d="M584.792,430.775l-.031-.675-7.958.354s-.367.164-.324.426Z" transform="translate(-576.476 -430.1)"/></g><path class="d" d="M594.179,423.895c0,.041.205.057.406.185s.311.3.347.282-.026-.257-.272-.4S594.169,423.859,594.179,423.895Z" transform="translate(-557.18 -344.582)"/><path class="d" d="M590,425.482c0,.038.169.105.308.277s.182.349.223.349.064-.234-.116-.442S590,425.443,590,425.482Z" transform="translate(-554.074 -345.776)"/><path class="d" d="M587.176,427.45c.036,0,.09-.2-.015-.418s-.3-.306-.316-.272.1.151.187.334S587.14,427.445,587.176,427.45Z" transform="translate(-551.727 -346.733)"/><path class="d" d="M594.376,419.249c.018.036.2-.02.434,0s.408.082.429.046-.152-.177-.424-.187S594.355,419.219,594.376,419.249Z" transform="translate(-557.325 -341.051)"/><path class="d" d="M593.76,413.8a.811.811,0,0,0,.416,0,1.894,1.894,0,0,0,.672-.277.514.514,0,0,0,.123-.1.175.175,0,0,0,.018-.216.221.221,0,0,0-.18-.09.48.48,0,0,0-.156.023,1.436,1.436,0,0,0-.257.092,1.455,1.455,0,0,0-.382.257c-.19.18-.257.334-.241.341s.113-.116.305-.257a1.657,1.657,0,0,1,.37-.216,1.625,1.625,0,0,1,.239-.077c.087-.023.162-.026.185,0s0,.023,0,.049a.428.428,0,0,1-.092.072,1.956,1.956,0,0,1-.218.128,2.164,2.164,0,0,1-.4.159,2.463,2.463,0,0,0-.4.11Z" transform="translate(-556.869 -336.6)"/><path class="d" d="M592.382,412.172a.673.673,0,0,0,.105-.4,1.32,1.32,0,0,0-.064-.454,1.264,1.264,0,0,0-.108-.257.342.342,0,0,0-.27-.208.2.2,0,0,0-.172.118.655.655,0,0,0-.041.154,1.023,1.023,0,0,0,0,.28.942.942,0,0,0,.185.429.683.683,0,0,0,.336.257,1.277,1.277,0,0,1-.257-.3.948.948,0,0,1-.136-.39.765.765,0,0,1,0-.241c0-.087.043-.159.077-.151a.285.285,0,0,1,.146.136,1.176,1.176,0,0,1,.105.223,1.5,1.5,0,0,1,.087.416C592.382,412.016,592.351,412.172,592.382,412.172Z" transform="translate(-555.429 -334.913)"/><path class="c" d="M537.161,237.117c0,.033-.154.013-.29-.09s-.2-.236-.164-.257.126.059.244.149S537.174,237.084,537.161,237.117Z" transform="translate(-514.455 -205.517)"/><path class="c" d="M537.42,238.083c-.039,0-.062-.133-.054-.3s.046-.29.082-.288.062.133.051.3S537.456,238.085,537.42,238.083Z" transform="translate(-514.95 -206.062)"/><path class="o" d="M555.692,211.94c-.036,0-.172-1.45-.172-1.45s.537.113.634.49.174.7.174.7l1.34.377,1.407-.444-.583.916s-.77.113-.821.11S555.692,211.94,555.692,211.94Z" transform="translate(-528.445 -185.986)"/><path class="m" d="M557.047,212.474l-3.1-.293s-2.349-1.422-2.613-1.6a.256.256,0,0,1-.108-.162.293.293,0,0,1,.4-.305l2.752.963a.6.6,0,0,0,.5-.059l1.155-.693s-.475-.452-.77-.8a.554.554,0,0,1-.082-.67,15.246,15.246,0,0,1,2.264,1.438l.791.606Z" transform="translate(-525.251 -184.774)"/><path class="o" d="M558.6,211.724l.416-1.214s.37.044.331.513-.028.857-.028.857l.624.257-1.35-.372" transform="translate(-530.727 -186)"/><path class="g" d="M552.29,209.259l6.456-.529,4.069-6.04,1.923,4.636-2.2,3.311a4.235,4.235,0,0,1-3.7,1.887l-6.541-.257Z" transform="translate(-526.044 -180.188)"/><path class="d" d="M608.571,136.43c.069.929,1.335,1.445,1.356,2.38,0,.4-.226.77-.257,1.168a4.872,4.872,0,0,0,.406,1.54,2.839,2.839,0,0,1-1.23,2.872,4.794,4.794,0,0,1-3.186.683" transform="translate(-565.714 -130.937)"/><path class="d" d="M583.952,136.68a1.911,1.911,0,0,1-.575,1.348,2.634,2.634,0,0,0-.727,1.283c-.092.886.8,1.669.657,2.546-.077.47-.444.86-.5,1.332a1.646,1.646,0,0,0,.532,1.232c.316.334.665.257.947.634a3.768,3.768,0,0,0,1.2.988c.986.49,2.113-.321,2.567-.475" transform="translate(-548.606 -131.123)"/><path class="d" d="M595.445,129.942c0-.454-.439-.788-.865-.937a2.982,2.982,0,0,1-2.156-1.26,2.8,2.8,0,0,0-4.646,1.466,1.822,1.822,0,0,0,.531,1.82,2.618,2.618,0,0,0,2.231.146,2.892,2.892,0,0,1,2.251.049,3.267,3.267,0,0,1,.878,1.076,1.971,1.971,0,0,0,1,.929c.447.134,1.027-.151,1.027-.619" transform="translate(-552.385 -123.92)"/><path class="m" d="M593.068,135.79,589,134.92c-1.283-.087-2.095,1.54-2.128,2.824a23.133,23.133,0,0,0,.185,4.269,2.688,2.688,0,0,0,2.087,2.359s.108,2.634.154,3.673l4.551-.105-.077-11.41A.755.755,0,0,0,593.068,135.79Z" transform="translate(-551.738 -129.812)"/><path class="d" d="M588.258,151.1c.036.036.241-.128.539-.136s.513.128.552.092-.023-.082-.121-.146a.743.743,0,0,0-.444-.121.724.724,0,0,0-.426.157C588.271,151.011,588.243,151.077,588.258,151.1Z" transform="translate(-552.776 -141.608)"/><path class="d" d="M599.973,150.908c.036.036.239-.128.536-.139s.513.131.552.095-.021-.082-.118-.146a.755.755,0,0,0-.444-.121.724.724,0,0,0-.426.157C599.973,150.826,599.947,150.893,599.973,150.908Z" transform="translate(-561.48 -141.467)"/><path class="d" d="M593.638,151.6a2.146,2.146,0,0,0-.488-.069c-.074,0-.149-.018-.162-.069a.376.376,0,0,1,.041-.226c.064-.187.133-.382.205-.588a9.8,9.8,0,0,0,.447-1.54,10.228,10.228,0,0,0-.57,1.512c-.067.205-.133.4-.2.59a.432.432,0,0,0-.028.3.2.2,0,0,0,.131.108.473.473,0,0,0,.128,0A1.859,1.859,0,0,0,593.638,151.6Z" transform="translate(-556.21 -140.362)"/><path class="o" d="M595.77,169.83a4.23,4.23,0,0,0,2.806-.67,2.772,2.772,0,0,1-2.772,1.358Z" transform="translate(-558.363 -155.265)"/><path class="i" d="M596.368,160.964a.539.539,0,0,1,.475-.218.488.488,0,0,1,.344.169.313.313,0,0,1,.038.354.362.362,0,0,1-.388.113,1.1,1.1,0,0,1-.39-.213.3.3,0,0,1-.087-.085.1.1,0,0,1,0-.11" transform="translate(-558.789 -149.009)"/><path class="d" d="M596.629,159.5c-.046,0-.036.321-.305.562s-.614.216-.614.257.08.059.226.059a.809.809,0,0,0,.513-.2.709.709,0,0,0,.234-.472C596.691,159.577,596.652,159.5,596.629,159.5Z" transform="translate(-558.318 -148.085)"/><path class="d" d="M599.705,145.99c.033.08.329.031.68.062s.637.113.68.038-.033-.11-.149-.185a1.152,1.152,0,0,0-.513-.157,1.14,1.14,0,0,0-.529.082C599.754,145.887,599.692,145.954,599.705,145.99Z" transform="translate(-561.286 -137.86)"/><path class="d" d="M588.5,145.138c.054.064.257-.013.513-.026s.457.028.513-.044-.015-.1-.11-.162a.677.677,0,0,0-.413-.095.7.7,0,0,0-.4.149C588.507,145.035,588.479,145.115,588.5,145.138Z" transform="translate(-552.956 -137.165)"/><path class="d" d="M598.81,142.482c-.59.144-.655-.157-1.114-.552a1.941,1.941,0,0,1-.66-1.62c.046-.531.31-1.083.108-1.576-.257-.655-1.206-.822-1.479-1.473-.159-.38-.049-.834-.226-1.2a1.43,1.43,0,0,0-.916-.655,3.706,3.706,0,0,1-1.073-.418.841.841,0,0,1-.339-1,20.34,20.34,0,0,1,4.759.96,1.825,1.825,0,0,1,.955.567,1.917,1.917,0,0,1,.236,1.147q-.023,2.911-.044,5.822" transform="translate(-556.338 -129.116)"/><path class="d" d="M618.723,145.206a1.658,1.658,0,0,1,3.111-.706,2.347,2.347,0,0,1,0,1.974,2.086,2.086,0,0,1-1.766,1.44,1.88,1.88,0,0,1-1.643-1.366,5.567,5.567,0,0,1-.128-2.259" transform="translate(-575.067 -136.293)"/><path class="h" d="M621.655,149.359a.368.368,0,0,0,.108-.131,1.055,1.055,0,0,0,.144-.436,2.072,2.072,0,0,0-.046-.683c-.054-.257-.149-.513-.223-.793a1.978,1.978,0,0,1-.077-.8,6.24,6.24,0,0,1,.182-.644.832.832,0,0,0,0-.462.3.3,0,0,0-.09-.144.772.772,0,0,1,.054.157.839.839,0,0,1-.026.434,5.721,5.721,0,0,0-.2.644,2.052,2.052,0,0,0,.072.834c.077.285.175.547.231.791a2.107,2.107,0,0,1,.064.655A1.413,1.413,0,0,1,621.655,149.359Z" transform="translate(-577.461 -137.508)"/><path class="h" d="M621.94,150.922a1.052,1.052,0,0,0,.341.311,1.9,1.9,0,0,0,2.136-.046,1.026,1.026,0,0,0,.329-.326,2.233,2.233,0,0,1-.367.257,2,2,0,0,1-1.027.313,2.025,2.025,0,0,1-1.027-.257C622.073,151.037,621.955,150.909,621.94,150.922Z" transform="translate(-577.815 -141.663)"/><path class="h" d="M622.4,152.4a1.046,1.046,0,0,0,.2.331,2.364,2.364,0,0,0,1.6.88,1.027,1.027,0,0,0,.385-.013c0-.015-.146-.015-.377-.054a2.693,2.693,0,0,1-1.556-.855A3.347,3.347,0,0,0,622.4,152.4Z" transform="translate(-578.157 -142.807)"/><path class="h" d="M600.246,139.442l.023-.026a.838.838,0,0,0,.056-.09,1.137,1.137,0,0,0,.126-.382,1.32,1.32,0,0,0-.059-.637,1.212,1.212,0,0,0-.529-.655,3.1,3.1,0,0,1-.824-.562.652.652,0,0,1-.136-.513,2.849,2.849,0,0,1,.164-.567,1.6,1.6,0,0,0-.077-1.284,1.392,1.392,0,0,0-.46-.513,1.691,1.691,0,0,0-.673-.257c-.236-.044-.47-.067-.688-.123a1.337,1.337,0,0,1-.585-.29.945.945,0,0,1-.269-.557,5.041,5.041,0,0,0-.126-.621,2.172,2.172,0,0,0-.624-1,1.689,1.689,0,0,0-.934-.418,1.351,1.351,0,0,0-.829.159,1.3,1.3,0,0,0-.464.436,1.1,1.1,0,0,0-.154.372.474.474,0,0,0-.015.139,1.29,1.29,0,0,1,1.456-1.04,1.627,1.627,0,0,1,.891.411,2.093,2.093,0,0,1,.59.963,4.95,4.95,0,0,1,.121.616,1.026,1.026,0,0,0,.3.606,1.41,1.41,0,0,0,.626.316c.229.059.462.08.693.123a1.677,1.677,0,0,1,.639.234,1.34,1.34,0,0,1,.429.493,1.541,1.541,0,0,1,.077,1.217,2.756,2.756,0,0,0-.164.585.732.732,0,0,0,.157.56,3.077,3.077,0,0,0,.85.57,1.158,1.158,0,0,1,.513.616,1.311,1.311,0,0,1,.072.613A1.463,1.463,0,0,1,600.246,139.442Z" transform="translate(-556.429 -126.854)"/><path class="h" d="M599.159,131.368a.257.257,0,0,0,.023-.1.472.472,0,0,0-.082-.285.736.736,0,0,0-.372-.282,1.135,1.135,0,0,0-.621,0c-.226.051-.457.151-.711.211a.955.955,0,0,1-.786-.092,1.705,1.705,0,0,1-.49-.757,3.248,3.248,0,0,0-.534-.87,3.006,3.006,0,0,0-1.674-.991,1.7,1.7,0,0,0-.862.057,1.335,1.335,0,0,0-.616.431,1.009,1.009,0,0,0-.126,1.042.72.72,0,0,0,.172.239.274.274,0,0,0,.082.062,1.028,1.028,0,0,1-.221-.316.994.994,0,0,1-.069-.442.938.938,0,0,1,.216-.542,1.283,1.283,0,0,1,.588-.4,1.655,1.655,0,0,1,.821-.046,2.929,2.929,0,0,1,1.617.97,3.108,3.108,0,0,1,.513.845,1.777,1.777,0,0,0,.529.791.815.815,0,0,0,.431.144,1.489,1.489,0,0,0,.421-.046c.257-.067.493-.169.708-.223a1.1,1.1,0,0,1,.588-.018.727.727,0,0,1,.359.257.469.469,0,0,1,.092.257C599.164,131.332,599.154,131.368,599.159,131.368Z" transform="translate(-555.722 -124.796)"/><path class="g" d="M596.715,202.6c.257-6.418-2.131-10.833-2.552-12.75s.038-5.511-.049-7.47a11.011,11.011,0,0,0-.978-4.721,10.705,10.705,0,0,0-2.6-2.657l-4.562,2.013s-1.746,4.348-2.588,6.418c-.821,2.025,1.815,5.629,1.815,5.629s-3.034,8.53-3.034,13.538Z" transform="translate(-548.254 -159.606)"/><path class="h" d="M626.213,219.619l-5.391-9.059a13.376,13.376,0,0,0-4.364,1.54c-1.36,1.011-4.058,3.355-4.058,3.355l3.648,10.14a1.8,1.8,0,0,0,2.036,1.142h.041c.97-.2,5.257-3.08,7.526-4.654A1.846,1.846,0,0,0,626.213,219.619Z" transform="translate(-570.724 -186.038)"/><path class="g" d="M599.788,171.284,599.58,170s-5.073,1.953-4.965,2.226.436,1.615.436,1.615Z" transform="translate(-557.503 -155.889)"/><path class="d" d="M618.791,187.741a27.9,27.9,0,0,0-2.9-5.57c-1.284-1.817-2.944-3.214-4.025-2.855a3.743,3.743,0,0,1,2.007,1.6c1.337,1.81,3.168,7.46,3.168,7.46Z" transform="translate(-570.33 -162.772)"/><path class="d" d="M602.979,182.556a.565.565,0,0,1,0-.18c.015-.116.041-.28.082-.483a4.042,4.042,0,0,1,.583-1.507,2.069,2.069,0,0,1,1.338-.878,1.314,1.314,0,0,1,.5.013.473.473,0,0,1,.169.062,2.037,2.037,0,0,0-.652,0,2.1,2.1,0,0,0-1.266.865,4.473,4.473,0,0,0-.6,1.466A5.579,5.579,0,0,1,602.979,182.556Z" transform="translate(-563.716 -162.944)"/><path class="d" d="M602.265,182.44a6.607,6.607,0,0,0-1.284,3.252,15.827,15.827,0,0,0,.447,3.938l.141-2.588s-.054-.793-.031-1.54a5.567,5.567,0,0,1,.234-1.422Z" transform="translate(-562.214 -165.136)"/><path class="d" d="M622,200.274a1.833,1.833,0,0,1,.205-.444c.126-.239.223-.431.257-.421a.954.954,0,0,1-.159.47C622.18,200.12,622.033,200.292,622,200.274Z" transform="translate(-577.859 -177.749)"/><path class="d" d="M596.18,176.663a1.7,1.7,0,0,0,.729-.085,9.354,9.354,0,0,0,1.525-.96,13.729,13.729,0,0,1,1.592-.886c.213-.1.388-.172.513-.218a.771.771,0,0,1,.193-.064c0,.015-.257.136-.667.349a16.79,16.79,0,0,0-1.568.906c-.3.19-.57.385-.827.562a2.784,2.784,0,0,1-.732.38,1.357,1.357,0,0,1-.554.064A.438.438,0,0,1,596.18,176.663Z" transform="translate(-558.668 -159.197)"/><path class="d" d="M588.719,185a.669.669,0,0,1-.044.139l-.141.385c-.136.349-.323.824-.549,1.4l-.829,2.079-.5,1.227c-.082.213-.175.429-.257.649a2.878,2.878,0,0,0-.159.683,5.274,5.274,0,0,0,.539,2.621c.331.76.724,1.425.986,2.007a6.686,6.686,0,0,1,.513,1.43,3.119,3.119,0,0,1,.064.406.515.515,0,0,1,0,.144c-.013,0-.033-.2-.123-.536a7.441,7.441,0,0,0-.536-1.4c-.272-.575-.657-1.227-1.014-2a5.175,5.175,0,0,1-.56-2.688,3.068,3.068,0,0,1,.167-.716c.085-.223.177-.436.257-.649l.5-1.222.857-2.069c.241-.575.442-1.045.588-1.391l.167-.375A.446.446,0,0,1,588.719,185Z" transform="translate(-551.171 -167.039)"/><g class="p" transform="translate(36.812 31.476)"><path d="M593.45,238.079a4.748,4.748,0,0,0,5.622,2.485h0s.842,7.583,4.79,6.341a1.742,1.742,0,0,1-1.82-1.011l-2.97-8.243Z" transform="translate(-593.45 -237.65)"/></g><path class="g" d="M580.681,184.987l-.816,8.535-5.878-1.851-1.766,2.4s9.59,8.053,11.338,3.319a28.827,28.827,0,0,0,1.414-10.566,6.08,6.08,0,0,0-1.325-2.89A1.75,1.75,0,0,0,580.681,184.987Z" transform="translate(-540.858 -165.863)"/><path class="d" d="M580.291,193v.139c0,.09,0,.231-.015.4-.021.359-.049.878-.085,1.54-.077,1.335-.19,3.247-.329,5.578v.067l-.064-.023-5.884-1.841.072-.023-1.7,2.421-.013-.09c.77.621,1.653,1.2,2.541,1.8.575.38,1.142.752,1.692,1.137a16.685,16.685,0,0,0,1.666,1.047,8.282,8.282,0,0,0,1.743.721,3.866,3.866,0,0,0,1.781.105,2.632,2.632,0,0,0,1.435-.852,2.584,2.584,0,0,0,.367-.721c.1-.257.177-.513.257-.77a20.965,20.965,0,0,0,.734-2.844,34.186,34.186,0,0,0,.385-4.238c.028-.5.051-.886.067-1.158a2.563,2.563,0,0,1,.023-.3.6.6,0,0,1,0-.1.641.641,0,0,1,0,.1v.3c0,.272-.026.66-.041,1.158a32.223,32.223,0,0,1-.347,4.254,20.772,20.772,0,0,1-.721,2.86c-.077.257-.159.513-.257.77a2.659,2.659,0,0,1-.385.755,2.734,2.734,0,0,1-1.5.9,3.984,3.984,0,0,1-1.836-.1,8.414,8.414,0,0,1-1.776-.729,16.633,16.633,0,0,1-1.679-1.055c-.547-.382-1.114-.755-1.687-1.132-.891-.588-1.766-1.168-2.552-1.8l-.049-.039.036-.051,1.71-2.418.026-.039.044.015,5.876,1.861-.069.046.375-5.573c.049-.66.085-1.176.11-1.54.015-.172.026-.305.033-.4A.706.706,0,0,1,580.291,193Z" transform="translate(-540.791 -172.985)"/><path class="d" d="M584.3,238.13a.186.186,0,0,1,0,.056l-.051.162-.213.624c-.167.549-.411,1.345-.647,2.359a66.193,66.193,0,0,0-1.345,8.2l-.064-.072H584.8l11.726.028-.039.038c.026-.87.039-1.561.039-2.03v-.721a.875.875,0,0,1,.031.182c0,.123.021.3.026.539v2.072h-.039l-11.726.028H581.89v-.072a61.74,61.74,0,0,1,1.394-8.214c.257-1.027.513-1.81.685-2.354l.234-.616.064-.159A.264.264,0,0,1,584.3,238.13Z" transform="translate(-548.046 -206.53)"/><g class="p" transform="translate(43.748 22.505)"><path d="M620.863,202.7a37.76,37.76,0,0,1,.231,4.662l-.624.513S620.842,203.219,620.863,202.7Z" transform="translate(-620.47 -202.7)"/></g><path class="q" d="M553.133,191.16l2.038,1.124a.562.562,0,0,1-.8.257,17.819,17.819,0,0,1-1.64-.909l-.811.326-.619-.75Z" transform="translate(-525.308 -171.618)"/><path class="r" d="M535.743,195.212a2.054,2.054,0,0,0,1.9-.18c.927-.634.993-.842,1.378-.96.277-.085,1.571-.257,2.082-.383a.3.3,0,0,0,.121-.513,3.007,3.007,0,0,0-.878-.18,3.546,3.546,0,0,0-.8.085,2.12,2.12,0,0,1-1.15-.257l.015-.323,1.283-.228a5.137,5.137,0,0,0,1.42.8,1.687,1.687,0,0,0,.847-.113v-.072l-1.823-1.307-1.7-.287-.513-.09-4.392,2.626,1.142,2.023Z" transform="translate(-512.1 -171.647)"/><rect class="h" width="1.548" height="2.262" rx="0.774" transform="matrix(0.976, -0.219, 0.219, 0.976, 28.001, 22.52)"/><path class="d" d="M561.36,198.285c0-.015.077-.033.2,0a.6.6,0,0,1,.411.257.657.657,0,0,1,.077.485c-.031.123-.08.187-.1.18s0-.08,0-.19a.736.736,0,0,0-.095-.406.655.655,0,0,0-.326-.257C561.432,198.324,561.357,198.306,561.36,198.285Z" transform="translate(-532.786 -176.9)"/><path class="d" d="M560.348,201.829c.013.028-.169.133-.408.031a.329.329,0,0,1-.18-.257c0-.077,0-.123.026-.123s.059.182.216.257S560.335,201.791,560.348,201.829Z" transform="translate(-531.597 -179.288)"/><path class="d" d="M563.408,204.121a.185.185,0,0,0,.059-.069.323.323,0,0,0,.015-.257c-.074-.28-.144-.544-.218-.832s-.139-.554-.205-.837a.239.239,0,0,0-.139-.19.157.157,0,0,0-.09,0,.1.1,0,0,1,.095-.018.257.257,0,0,1,.169.2c.059.213.136.513.221.834s.154.619.2.837a.323.323,0,0,1-.033.257C563.446,204.116,563.408,204.123,563.408,204.121Z" transform="translate(-533.879 -179.611)"/><path class="d" d="M561,204.66a3.456,3.456,0,0,1-.549.185,3,3,0,0,1-.565.131,3.307,3.307,0,0,1,.549-.182A2.894,2.894,0,0,1,561,204.66Z" transform="translate(-531.693 -181.652)"/><path class="d" d="M561.765,207.32a2.944,2.944,0,0,1-.526.18,2.823,2.823,0,0,1-.539.128,3.044,3.044,0,0,1,.513-.18A2.776,2.776,0,0,1,561.765,207.32Z" transform="translate(-532.295 -183.629)"/><path class="b" d="M564.8,204.733a.323.323,0,0,0,.1-.323c-.046-.218-.377-1.561-.377-1.561l.2-.059.339,1.494S565.11,204.661,564.8,204.733Z" transform="translate(-535.135 -180.262)"/><path class="g" d="M496.357,402.217l-.732,4.51s4.364,1.879,4.313,2.726l-8.828-.726.857-7.077Z" transform="translate(-480.569 -328.075)"/><path class="k" d="M497.418,418.61a.36.36,0,0,0-.3.377.349.349,0,0,0,.372.3.383.383,0,0,0,.316-.4.362.362,0,0,0-.424-.27" transform="translate(-485.034 -340.681)"/><path class="k" d="M491.11,427.176l.087-.706,8.343.85s.452.329.413.6Z" transform="translate(-480.569 -346.523)"/><path class="d" d="M506.771,421.155c0,.041-.223.033-.452.146s-.365.277-.4.257.059-.257.339-.39S506.787,421.116,506.771,421.155Z" transform="translate(-491.569 -342.528)"/><path class="d" d="M510.775,423.19c0,.044-.19.1-.359.257s-.236.352-.277.344-.041-.257.175-.454S510.78,423.149,510.775,423.19Z" transform="translate(-494.697 -344.067)"/><path class="d" d="M514.077,425.782c-.041,0-.074-.216.067-.439s.352-.29.367-.257-.128.149-.239.334S514.121,425.785,514.077,425.782Z" transform="translate(-497.614 -345.489)"/><path class="d" d="M506.816,416.627c-.023.036-.213-.049-.457-.062s-.444.039-.462,0,.185-.172.472-.152S506.842,416.6,506.816,416.627Z" transform="translate(-491.559 -339.047)"/><path class="d" d="M506.3,411.226a.829.829,0,0,1-.439-.056,2.031,2.031,0,0,1-.68-.367.535.535,0,0,1-.121-.121.19.19,0,0,1,0-.231.241.241,0,0,1,.2-.074.642.642,0,0,1,.162.044,1.77,1.77,0,0,1,.257.128,1.587,1.587,0,0,1,.375.318c.18.216.229.385.213.39s-.1-.133-.293-.316a1.725,1.725,0,0,0-.364-.272,1.633,1.633,0,0,0-.244-.11c-.09-.036-.169-.046-.2,0s-.013.021,0,.051a.486.486,0,0,0,.09.087,1.958,1.958,0,0,0,.216.162,2.56,2.56,0,0,0,.406.218A3.106,3.106,0,0,1,506.3,411.226Z" transform="translate(-490.906 -334.56)"/><path class="d" d="M509.529,409.978a.718.718,0,0,1-.062-.442,1.481,1.481,0,0,1,.121-.475,1.614,1.614,0,0,1,.146-.257.365.365,0,0,1,.308-.185.21.21,0,0,1,.169.144.715.715,0,0,1,.026.169,1.027,1.027,0,0,1-.282.726c-.2.208-.388.236-.39.221a1.892,1.892,0,0,0,.308-.29,1.026,1.026,0,0,0,.193-.4.939.939,0,0,0,.023-.257c0-.095-.028-.175-.064-.169a.317.317,0,0,0-.172.126,1.6,1.6,0,0,0-.138.223,1.666,1.666,0,0,0-.141.429C509.529,409.806,509.555,409.973,509.529,409.978Z" transform="translate(-494.206 -333.255)"/><path class="g" d="M478.026,404.486l-.375,4.556s4.5,1.527,4.515,2.374l-8.856-.026.293-7.121Z" transform="translate(-467.338 -330.022)"/><path class="k" d="M478.83,420.858a.362.362,0,0,0-.27.4.349.349,0,0,0,.4.27.38.38,0,0,0,.282-.426.359.359,0,0,0-.442-.234" transform="translate(-471.238 -342.349)"/><path class="k" d="M473.31,429.941l.028-.711,8.386.187s.475.293.459.57Z" transform="translate(-467.338 -348.575)"/><path class="d" d="M488.382,422.567c0,.041-.221.051-.442.182s-.339.305-.38.285.039-.257.306-.416S488.392,422.525,488.382,422.567Z" transform="translate(-477.923 -343.585)"/><path class="d" d="M492.526,424.317c0,.044-.182.108-.339.282s-.205.37-.257.365-.059-.257.139-.465S492.526,424.276,492.526,424.317Z" transform="translate(-481.156 -344.91)"/><path class="d" d="M496.062,426.681c-.039,0-.09-.213.033-.444s.329-.316.344-.28-.113.157-.21.349S496.106,426.678,496.062,426.681Z" transform="translate(-484.217 -346.136)"/><path class="d" d="M488,418.117c-.021.038-.216-.031-.459-.026s-.439.074-.462.036.169-.185.46-.187S488.019,418.084,488,418.117Z" transform="translate(-477.568 -340.183)"/><path class="d" d="M487.065,412.784a.843.843,0,0,1-.444-.023,1.949,1.949,0,0,1-.457-.164,2.106,2.106,0,0,1-.257-.146.537.537,0,0,1-.128-.11.192.192,0,0,1,0-.231.233.233,0,0,1,.2-.09.511.511,0,0,1,.164.031,1.426,1.426,0,0,1,.272.108,1.559,1.559,0,0,1,.4.288.776.776,0,0,1,.244.372c-.013.008-.116-.128-.316-.3a1.911,1.911,0,0,0-.385-.241,2.22,2.22,0,0,0-.257-.09c-.092-.028-.172-.033-.2,0s0,.023,0,.051a.532.532,0,0,0,.095.08,2.562,2.562,0,0,0,.228.144,2.462,2.462,0,0,0,.421.185A2.952,2.952,0,0,1,487.065,412.784Z" transform="translate(-476.578 -335.782)"/><path class="d" d="M490.377,411.264a.7.7,0,0,1-.1-.434,1.473,1.473,0,0,1,.082-.483,1.765,1.765,0,0,1,.126-.257.372.372,0,0,1,.3-.21.2.2,0,0,1,.177.133.511.511,0,0,1,.038.164.955.955,0,0,1,0,.3,1,1,0,0,1-.211.449.691.691,0,0,1-.37.257,1.359,1.359,0,0,0,.285-.313,1.067,1.067,0,0,0,.159-.411.857.857,0,0,0,0-.257c0-.1-.041-.172-.077-.164a.32.32,0,0,0-.162.139,1.445,1.445,0,0,0-.121.234,1.5,1.5,0,0,0-.105.439C490.361,411.094,490.4,411.258,490.377,411.264Z" transform="translate(-479.949 -334.192)"/><path class="r" d="M474.034,137.09l5,1.027c.039-.565-.118-4.107-.118-4.107A2.426,2.426,0,0,0,481,131.7c.057-2.028-.228-6.656-.228-6.656h0a7.013,7.013,0,0,0-7.057.783l-.3.226Z" transform="translate(-467.413 -122.019)"/><path class="q" d="M487.3,159.414a4.877,4.877,0,0,1-2.613-.814,2.526,2.526,0,0,0,2.636,1.307Z" transform="translate(-475.797 -147.416)"/><path class="r" d="M470.327,138.8c-.036-.015-1.381-.429-1.358.95a1.032,1.032,0,0,0,1.407,1.027C470.378,140.728,470.327,138.8,470.327,138.8Z" transform="translate(-464.112 -132.645)"/><path class="q" d="M470.932,141.507a.425.425,0,0,1-.064.038.257.257,0,0,1-.18,0,.6.6,0,0,1-.285-.529.821.821,0,0,1,.062-.344.272.272,0,0,1,.18-.187.121.121,0,0,1,.141.062c.021.038,0,.067.018.069s.031-.023.018-.08a.146.146,0,0,0-.056-.087.19.19,0,0,0-.134-.033.341.341,0,0,0-.257.218.827.827,0,0,0-.077.388.626.626,0,0,0,.362.59.257.257,0,0,0,.218-.041C470.929,141.54,470.937,141.509,470.932,141.507Z" transform="translate(-465.099 -133.898)"/><path class="d" d="M498.645,138.984a.288.288,0,0,1-.282.285.272.272,0,0,1-.293-.257.287.287,0,0,1,.282-.285.272.272,0,0,1,.293.257Z" transform="translate(-485.743 -132.644)"/><path class="d" d="M497.116,137.019c-.036.036-.257-.128-.562-.131s-.539.146-.572.108.021-.085.121-.154a.77.77,0,0,1,.459-.133.75.75,0,0,1,.447.151C497.1,136.935,497.134,137,497.116,137.019Z" transform="translate(-484.183 -131.144)"/><path class="d" d="M486.895,138.8a.288.288,0,0,1-.283.288.28.28,0,0,1-.293-.257.29.29,0,0,1,.282-.288.275.275,0,0,1,.293.257Z" transform="translate(-477.009 -132.511)"/><path class="d" d="M485.249,137.1c-.036.036-.257-.128-.562-.131s-.542.146-.572.108.021-.085.121-.154a.77.77,0,0,1,.459-.133.75.75,0,0,1,.447.151C485.233,137.007,485.267,137.074,485.249,137.1Z" transform="translate(-475.363 -131.203)"/><path class="d" d="M492.505,139.515a2.009,2.009,0,0,1,.513-.085c.08,0,.157-.021.169-.074a.407.407,0,0,0-.049-.236l-.226-.606a10.465,10.465,0,0,1-.513-1.584,10.018,10.018,0,0,1,.629,1.54c.077.213.149.416.216.611a.45.45,0,0,1,.036.311.19.19,0,0,1-.131.113.545.545,0,0,1-.134.018A2.082,2.082,0,0,1,492.505,139.515Z" transform="translate(-481.528 -131.308)"/><path class="d" d="M489.086,147.77c.051,0,.046.336.331.578s.644.213.644.257-.08.064-.231.067a.842.842,0,0,1-.539-.2.732.732,0,0,1-.257-.483C489.025,147.852,489.063,147.767,489.086,147.77Z" transform="translate(-479.025 -139.366)"/><path class="d" d="M484.837,132.538c-.033.085-.341.039-.706.077s-.66.133-.706.056c-.023-.036.031-.113.151-.193a1.132,1.132,0,0,1,.513-.177,1.178,1.178,0,0,1,.552.074C484.783,132.43,484.852,132.5,484.837,132.538Z" transform="translate(-474.853 -127.863)"/><path class="d" d="M496.974,133.465c-.057.069-.257,0-.526-.015s-.475.041-.513-.033c-.021-.036.015-.105.11-.172a.734.734,0,0,1,.429-.108.726.726,0,0,1,.416.146C496.974,133.357,497.01,133.429,496.974,133.465Z" transform="translate(-484.151 -128.488)"/><path class="d" d="M479.732,116.82a.739.739,0,0,0-.257-.67.529.529,0,0,0-.686.041.613.613,0,0,0-.513-.755c-.329-.026-.614.218-.932.3a1.473,1.473,0,0,1-.94-.123c-.3-.123-.575-.293-.875-.408a2.567,2.567,0,0,0-3.322,1.466,1.147,1.147,0,0,0-1.222.442,1.887,1.887,0,0,0-.308,1.319,4.264,4.264,0,0,0,.218.909v.077c0,1.112.11,2.416.583,2.428.827.026.652-1.54.652-1.54,1.027-.375.662-1.9.919-2.123s.8-.755,2.9.359a4.107,4.107,0,0,0,2.511.311h.082a1.91,1.91,0,0,0,.547-.221,1.085,1.085,0,0,0,.457-.493.585.585,0,0,0-.108-.631A1.268,1.268,0,0,0,479.732,116.82Z" transform="translate(-465.369 -115.031)"/><path class="r" d="M522.941,220.42l3.337,1.417,1.027.013a1.122,1.122,0,0,1,.8.352l1.394,1.386.123,1.594-1.058.8s-.388.036-.257-.408l-.632.4H527l-.657-.092-.591-.788s-.118-.293.447-.128l.529.421.534-.539-1.047-.806-1.622-.108a.58.58,0,0,1-.411-.2l-.5-.567-.963-.154Z" transform="translate(-504.065 -193.367)"/><path class="q" d="M544.77,233a4.739,4.739,0,0,1,.187,1.094.828.828,0,0,1-.028.46.791.791,0,0,1-.272.257c-.169.11-.239.2-.257.2s.039-.139.2-.257a.866.866,0,0,0,.218-.236.792.792,0,0,0,0-.393A4.687,4.687,0,0,1,544.77,233Z" transform="translate(-520.178 -202.717)"/><path class="q" d="M539.08,237.584a3.535,3.535,0,0,1,.68-.637.412.412,0,0,0,.108-.29c.013-.11.021-.21.026-.293,0-.169.016-.275.036-.275s.046.1.059.275a2.915,2.915,0,0,1,0,.3,1.035,1.035,0,0,1-.023.185.424.424,0,0,1-.113.19A3.079,3.079,0,0,1,539.08,237.584Z" transform="translate(-516.225 -205.014)"/><path class="q" d="M542.05,236.735a2.035,2.035,0,0,1,.47-.367h0c-.028.033,0,0-.013,0v-.187a.961.961,0,0,1,.021-.239,4.663,4.663,0,0,1,.108-1.042,3.938,3.938,0,0,1,.026,1.055,1.217,1.217,0,0,1-.023.239l-.015.113v.085c0,.015,0,0-.031.059h0A1.847,1.847,0,0,1,542.05,236.735Z" transform="translate(-518.433 -204.129)"/><path class="m" d="M529.628,233.086s-.072.372.149.488a.572.572,0,0,0,.477-.018s-.105.575.662.406c0,0-.051.365.465.257,0,0,0,.549.478.416a.706.706,0,0,0,.534-.539s0-.66-.429-.621c0,0,.257-.431-.223-.513a.46.46,0,0,0-.562.316.257.257,0,0,0-.236-.336.467.467,0,0,0-.485.208S529.984,232.575,529.628,233.086Z" transform="translate(-509.191 -202.623)"/><path class="o" d="M532.3,233.874c.031.018,0,.126-.056.257s-.141.2-.172.177,0-.126.054-.241S532.27,233.856,532.3,233.874Z" transform="translate(-511.009 -203.365)"/><path class="o" d="M534.956,234.15c.036,0,.072.2-.023.426s-.257.344-.287.316.085-.169.164-.367S534.917,234.15,534.956,234.15Z" transform="translate(-512.925 -203.572)"/><path class="o" d="M537.072,235.178c.034,0,0,.239-.174.457s-.385.316-.4.282.141-.164.3-.365S537.036,235.165,537.072,235.178Z" transform="translate(-514.304 -204.336)"/><path class="d" d="M476.793,273.171c-.254-2.939-3.563-19.368-3.563-19.368l-3.892,1.027h0l-7.555-1.44-.634,4.847a7.406,7.406,0,0,0,.785,4.4l1.271,13.431.6,20.2,6.235-.177.021-1.052,4.017.4S477.044,276.113,476.793,273.171Zm-6.361,2.849-.054-1.078.069.329Z" transform="translate(-458.253 -217.873)"/><path class="h" d="M464.46,283.589a.916.916,0,0,0,.023.167l.054.493c.044.439.108,1.081.193,1.907.162,1.661.4,4.069.688,7.059.385,2.988.4,6.59.547,10.612s.27,8.471.418,13.184l-.069-.064,4.128-.116,2.108-.062-.064.067c.1-4.954.193-9.652.277-13.911.044-2.128.085-4.148.123-6.035.033-.942,0-1.853,0-2.729s-.021-1.712-.031-2.513c-.039-3.2-.067-5.776-.087-7.562,0-.886-.016-1.576-.018-2.054V281.5c0,.121,0,.3.013.531,0,.472.023,1.16.041,2.054.031,1.784.074,4.364.131,7.562q.021,1.2.038,2.513c0,.875.046,1.8.016,2.729-.036,1.889-.072,3.907-.11,6.038-.082,4.259-.172,8.956-.257,13.911v.064h-.064l-2.1.062-4.128.116h-.067v-.064c-.144-4.713-.28-9.162-.4-13.184s-.146-7.624-.513-10.612c-.275-2.991-.5-5.391-.647-7.062-.074-.827-.131-1.468-.169-1.907-.018-.213-.031-.38-.041-.5A1.231,1.231,0,0,0,464.46,283.589Z" transform="translate(-460.76 -238.633)"/><path class="h" d="M496.1,171s2.357.975,2.616,2.482c.085.49,1.473,7.17,1.473,7.17l5.311-2.341,2.023,2.849-8.582,5.617h0l-3.044-2.01Z" transform="translate(-484.13 -156.633)"/><path class="d" d="M504.225,184.63a.534.534,0,0,1,.026.136l.039.388c.026.354.059.837.1,1.425.074,1.222.177,2.878.29,4.708s.228,3.483.308,4.705c.041.588.077,1.07.1,1.425,0,.157.018.285.023.39a.464.464,0,0,1,0,.136.536.536,0,0,1-.026-.134c-.013-.105-.031-.231-.049-.388-.041-.334-.09-.821-.146-1.422-.108-1.2-.234-2.865-.347-4.705s-.2-3.5-.257-4.71c-.026-.588-.046-1.07-.059-1.427v-.39A.474.474,0,0,1,504.225,184.63Z" transform="translate(-490.316 -166.764)"/><path class="h" d="M465.628,165.083l-.513-1.574-.665,2.254L459.9,163.04l-.814,1.4-3.573,1.884c-.38.67-.613,6.746-.613,6.746,0,.326,2.053,8.9,2.053,8.9l-1.327,10.209,11.821.175.1-4.277.811,4.289,2.38-.678L468.6,181.13l-3.016-16.236" transform="translate(-453.654 -150.716)"/><path class="h" d="M452.011,175.83h0c-2.079,1.769-2.082,3.953-1.517,6.161l1.815,5.948a4.5,4.5,0,0,0,4.818,3.363l11.783-.993.131-3.27-11.57-1.181Z" transform="translate(-450.141 -160.223)"/><path class="d" d="M451.917,175.83l-.046.046-.141.133-.236.213c-.095.085-.18.205-.29.329-.051.064-.11.128-.167.2l-.157.244a2.3,2.3,0,0,0-.167.27l-.151.311a5.1,5.1,0,0,0-.421,1.579,6.842,6.842,0,0,0,.115,2.025,10.846,10.846,0,0,0,.321,1.112l.375,1.189c.513,1.64,1.1,3.489,1.735,5.5h0a3.414,3.414,0,0,0,1.9,1.91,5.782,5.782,0,0,0,2.942.313h0l7.08-.6,4.2-.359-.059.064q.067-1.674.131-3.27l.059.067-11.57-1.2h-.028v-.028c-.791-2.326-1.43-4.21-1.874-5.519-.216-.647-.385-1.153-.5-1.5-.057-.169-.1-.3-.128-.393a1.179,1.179,0,0,1-.039-.133s.018.041.051.128l.139.388.529,1.5c.452,1.3,1.106,3.183,1.912,5.5l-.041-.031,11.572,1.163h.059v.059q-.062,1.594-.128,3.27v.059h-.057l-4.194.354-7.08.593h0a5.9,5.9,0,0,1-3.014-.329,3.54,3.54,0,0,1-1.964-1.979h0c-.629-2.015-1.2-3.863-1.715-5.506l-.372-1.191a11.214,11.214,0,0,1-.316-1.122,6.9,6.9,0,0,1-.1-2.054,5.177,5.177,0,0,1,.441-1.594l.157-.311a3.09,3.09,0,0,1,.172-.272l.162-.244c.056-.072.118-.136.172-.2a4.4,4.4,0,0,1,.3-.323l.241-.21.149-.126A.405.405,0,0,1,451.917,175.83Z" transform="translate(-450.047 -160.223)"/><path class="d" d="M456.432,180.415a5.651,5.651,0,0,1-.531-.257,3.443,3.443,0,0,0-1.343-.336,2.3,2.3,0,0,0-1.307.375,5.464,5.464,0,0,0-.442.377,1.088,1.088,0,0,1,.385-.454,2.208,2.208,0,0,1,1.366-.431,3.081,3.081,0,0,1,1.384.385A1.674,1.674,0,0,1,456.432,180.415Z" transform="translate(-452.101 -163.09)"/><path class="l" d="M472.35,162.839l6.366,12.853,1.114.1L478.6,163.971l-.5-1.574-.675,2.133-4.562-2.991Z" transform="translate(-466.625 -149.601)"/><path class="d" d="M494.1,184.445a3.154,3.154,0,0,1-.118-.436c-.067-.282-.156-.693-.257-1.2-.21-1.027-.483-2.423-.77-3.981s-.513-2.973-.678-4c-.08-.513-.139-.929-.175-1.217a2.614,2.614,0,0,1-.041-.449,3.35,3.35,0,0,1,.092.442c.054.308.128.716.216,1.209.187,1.042.439,2.441.719,3.989s.534,2.947.724,3.989l.221,1.209A2.741,2.741,0,0,1,494.1,184.445Z" transform="translate(-481.275 -158.238)"/><path class="d" d="M477.42,168.292s0,.015-.031.036a.389.389,0,0,0-.085.092,1.452,1.452,0,0,0-.2.439,6.564,6.564,0,0,0-.193,1.712v.133l-.1-.087c-.406-.354-.878-.744-1.376-1.155-.9-.739-1.7-1.425-2.246-1.959-.275-.257-.488-.488-.631-.647a1.838,1.838,0,0,1-.211-.257,1.36,1.36,0,0,1,.257.221c.154.146.377.359.66.613.562.513,1.371,1.183,2.269,1.925.5.411.965.806,1.368,1.168l-.1.044a5.9,5.9,0,0,1,.244-1.733,1.284,1.284,0,0,1,.236-.444.384.384,0,0,1,.105-.085A.033.033,0,0,1,477.42,168.292Z" transform="translate(-466.625 -153.362)"/><path class="d" d="M493.262,171a1.822,1.822,0,0,1-.018.544c-.031.336-.108.793-.172,1.3v.041l-.041.321-.09-.308a4.452,4.452,0,0,0-.439-1.178.347.347,0,0,0-.287-.172c-.082,0-.131.028-.136.015s.036-.046.131-.067a.382.382,0,0,1,.365.167,3.572,3.572,0,0,1,.5,1.2h-.131v-.044c.067-.513.157-.963.213-1.283A2.629,2.629,0,0,1,493.262,171Z" transform="translate(-481.289 -156.633)"/><path class="d" d="M470.074,244.814a.535.535,0,0,1,.108-.023l.329-.051,1.235-.175,4.264-.565h.087l-.015.087-.357,1.825v.049h-.067c-2.5.218-4.731.406-6.143.513h-.064l.021-.059c.185-.5.331-.9.439-1.191l.118-.311a.067.067,0,1,1,.015.018l-.1.323c-.1.29-.228.69-.393,1.186l-.044-.054c1.409-.139,3.635-.347,6.138-.565h.018l-.062.054c.126-.631.257-1.245.359-1.823l.072.074-4.243.513-1.253.139-.339.033A.415.415,0,0,1,470.074,244.814Z" transform="translate(-464.469 -210.894)"/><path class="d" d="M477.989,181.622a.347.347,0,0,1-.082-.062l-.218-.193-.811-.732-2.747-2.567h0v-.015c-.193-.565-.4-1.173-.608-1.8l-1.592-4.8L471.464,170c-.049-.162-.09-.293-.121-.4a.59.59,0,0,1-.033-.144.767.767,0,0,1,.059.133l.144.393.513,1.445c.421,1.24,1,2.924,1.627,4.785l.6,1.8-.015-.026,2.713,2.6.77.77.205.208a.4.4,0,0,1,.059.056Z" transform="translate(-465.852 -155.488)"/><path class="d" d="M474.887,214.7c.028.031-.38.388-.714.95a11.651,11.651,0,0,0-.513,1.076,2.87,2.87,0,0,1,1.222-2.025Z" transform="translate(-467.599 -189.115)"/><path class="d" d="M502.562,234.09c.036,0,.174,1.653.311,3.7s.213,3.707.177,3.709-.177-1.656-.311-3.7S502.524,234.093,502.562,234.09Z" transform="translate(-489.075 -203.527)"/><g class="p" transform="translate(2.848 29.312)"><path d="M461.14,229.22s.575,3.245,2.6,3,7.7-1.756,7.7-1.756l-6.161.531S462.442,231.356,461.14,229.22Z" transform="translate(-461.14 -229.22)"/></g><g class="p" transform="translate(14.124 21.552)"><path d="M505.07,198.99l.036.157,1.094,4.744-.837-.085" transform="translate(-505.07 -198.99)"/></g></g></svg>