<svg xmlns="http://www.w3.org/2000/svg" width="105.801" height="222.189" viewBox="0 0 105.801 222.189"><defs><style>.a{fill:#0045ab;}.b{fill:#fff;}</style></defs><g transform="translate(-382.462 -104.254)"><path class="a" d="M483.968,263.273v-64.5a63.038,63.038,0,0,1-96.987.274V326.443h96.987Z"/><path class="a" d="M488.263,157.152a52.9,52.9,0,1,1-52.9-52.9A52.9,52.9,0,0,1,488.263,157.152Z"/><path class="b" d="M461.669,158.347a25.756,25.756,0,0,1-3.567-2.782,6.045,6.045,0,0,1-1.781-4.475V128.834h.29c2.116.125,4.433,2.117,6.508,5.561a15.185,15.185,0,0,1,1.57,3.311h.667l-1.119-9.9H427.8l-.04.788c1.943.329,2.611.948,2.611,2.487a4.928,4.928,0,0,1-.455,1.9,14.832,14.832,0,0,1-2.695,3.315l-6.42,6.214v-8.079a8.412,8.412,0,0,1,1.2-4.471,2.8,2.8,0,0,1,2.149-1.458v-.7h-16.2v.62c1.991.125,2.739.5,3.4,1.538a4.606,4.606,0,0,1,.834,2.276V151.09c0,2.277-.33,3.315-1.291,4.475a3.184,3.184,0,0,1-2.942,1.489v.624h6.227a8.745,8.745,0,0,0-3.272,3.447,12.125,12.125,0,0,0-.881,4.679,8.507,8.507,0,0,0,2.4,6.241c1.656,1.573,3.154,2.549,7.131,3.672,2.82.745,3.9,1.162,4.767,1.9a5.078,5.078,0,0,1,1.613,3.687c0,3.15-2.108,5.47-4.968,5.47-2.483,0-3.525-.5-5.841-2.9-1.992-2.029-2.861-3.562-4.189-6.958-.165-.5-.373-1.081-.622-1.7l-.582.042.749,12.43h.66c.5-1.157.916-1.489,1.992-1.489a8.85,8.85,0,0,1,2.361.415l3.315.906a10.288,10.288,0,0,0,3.026.375c7.457,0,12.3-3.98,12.3-10.068a8.843,8.843,0,0,0-3.725-7.588c-1.491-.99-2.9-1.528-6.423-2.483-3.19-.91-4.224-1.319-5.019-2.071a3.885,3.885,0,0,1-1.158-2.9,4.767,4.767,0,0,1,4.89-4.971,6.293,6.293,0,0,1,5.056,2.448,24.885,24.885,0,0,1,2.985,4.764c.243.542.5,1.325.868,2.4l.7-.124-.46-9.627h4.956c2.444.644,3.664,2.706,3.664,5.981v17.012c0,3.379-1.445,5.487-4.1,6.036v.634H453.2c5.51,0,9.527-1.6,12.554-5.109a15.086,15.086,0,0,0,3.774-10.134C469.524,166.37,465.948,161.333,461.669,158.347ZM425.8,156.76a7.28,7.28,0,0,1-2.145-.123c-1.9-.422-2.863-2.279-2.863-5.547v-7.375l.619-.708,4.184,7.09a19.651,19.651,0,0,0,1.2,1.908c1.075,1.611,1.214,1.8,1.214,2.669C428.019,155.9,427.447,156.431,425.8,156.76Zm2.033-19.844,1.45-1.366a36.454,36.454,0,0,1,5.884-4.891,20.636,20.636,0,0,1,4.324-2.091L438.505,138h.66l.622-1.33a15.17,15.17,0,0,1,3.148-4.768,12.205,12.205,0,0,1,4.314-2.9l.411-.079v20.924c.014,2.779-.63,5.531-3.36,6.085-4.214.864-7.511-4.13-7.511-4.13Zm30.868,43.715c-1.494,3.165-4.727,5.743-7.171,5.743-1.241,0-2.028-.764-2.275-2.243l-.122-3.286v-23.1h1.529a9.452,9.452,0,0,1,6.135,2.617c1.989,2.068,3.522,7.472,3.522,12.285A19.166,19.166,0,0,1,458.706,180.631Z"/><path class="b" d="M408.085,254.813,405,261.855h-1l-3.1-7.042h1.086l2.536,5.785,2.557-5.785Z"/><path class="b" d="M414.037,260.98v.875h-5.112v-7.042H413.9v.875h-3.965v2.163h3.533v.855h-3.533v2.274Z"/><path class="b" d="M421.531,255.688h-2.416v-.875h5.827v.875h-2.415v6.167h-1Z"/><path class="b" d="M431.306,260.98v.875h-5.112v-7.042h4.972v.875H427.2v2.163h3.532v.855H427.2v2.274Z"/><path class="b" d="M439.622,261.855l-.01-5.131L437.065,261H436.6l-2.544-4.245v5.1h-.967v-7.042h.824l2.938,4.95,2.9-4.95h.824l.009,7.042Z"/><path class="b" d="M442.769,253.465a.594.594,0,1,1,.593.592A.58.58,0,0,1,442.769,253.465Zm.089,1.348h1.007v7.042h-1.007Z"/><path class="b" d="M451.394,260.98v.875h-5.886v-.685l4.427-5.482h-4.357v-.875h5.686v.682l-4.407,5.485Z"/><path class="b" d="M452.9,254.813H453.9v6.167h3.814v.875H452.9Z"/><path class="b" d="M458.939,253.465a.595.595,0,1,1,.594.592A.581.581,0,0,1,458.939,253.465Zm.091,1.348h1.006v7.042H459.03Z"/><path class="b" d="M464.6,258.727l-1.288,1.307v1.821H462.3v-7.042h1.005v3.934l3.824-3.934h1.146l-3.008,3.169,3.2,3.873H467.3Z"/><path class="b" d="M401.907,274.833v-4h1.006v3.962c0,1.562.715,2.265,1.982,2.265s1.993-.7,1.993-2.265V270.83h.975v4c0,2.042-1.116,3.119-2.978,3.119S401.907,276.875,401.907,274.833Zm1.539-5.264a.514.514,0,1,1,1.027,0,.513.513,0,1,1-1.027,0Zm1.872,0a.514.514,0,1,1,1.027,0,.514.514,0,1,1-1.027,0Z"/><path class="b" d="M416.524,277.872l-1.519-2.164c-.141.011-.292.019-.443.019h-1.741v2.145h-1.006V270.83h2.747c1.831,0,2.938.924,2.938,2.453a2.222,2.222,0,0,1-1.55,2.224l1.67,2.365Zm-.03-4.589c0-1.008-.674-1.578-1.962-1.578h-1.711v3.169h1.711C415.82,274.874,416.494,274.29,416.494,273.283Z"/><path class="b" d="M420.959,274.833v-4h1v3.962c0,1.562.715,2.265,1.982,2.265s1.991-.7,1.991-2.265V270.83h.978v4c0,2.042-1.118,3.119-2.979,3.119S420.959,276.875,420.959,274.833Zm1.538-5.264a.514.514,0,1,1,1.027,0,.513.513,0,1,1-1.027,0Zm1.872,0a.514.514,0,1,1,1.027,0,.514.514,0,1,1-1.027,0Z"/><path class="b" d="M436.924,270.83v7.042H436.1l-4.226-5.252v5.252h-1.007V270.83h.824l4.227,5.25v-5.25Z"/><path class="b" d="M440.925,270.83h1.007V277h3.814v.874h-4.821Z"/><path class="b" d="M453.9,277v.874H448.79V270.83h4.971v.875H449.8v2.163h3.531v.855H449.8V277Z"/><path class="b" d="M462.129,277.872l-1.521-2.164c-.14.011-.291.019-.441.019h-1.743v2.145h-1.005V270.83h2.748c1.83,0,2.936.924,2.936,2.453a2.221,2.221,0,0,1-1.549,2.224l1.671,2.365Zm-.03-4.589c0-1.008-.674-1.578-1.962-1.578h-1.713v3.169h1.713C461.425,274.874,462.1,274.29,462.1,273.283Z"/><path class="b" d="M466.533,269.48a.594.594,0,0,1,1.189,0,.594.594,0,0,1-1.189,0Zm.09,1.35h1.007v7.042h-1.007Z"/><path class="b" d="M401.322,293.124l.374-.784a3.622,3.622,0,0,0,2.323.815c1.218,0,1.741-.474,1.741-1.089,0-1.719-4.266-.633-4.266-3.248,0-1.087.846-2.012,2.7-2.012a4.136,4.136,0,0,1,2.265.624l-.332.8a3.633,3.633,0,0,0-1.933-.573c-1.2,0-1.71.5-1.71,1.114,0,1.722,4.267.646,4.267,3.231,0,1.078-.866,2-2.728,2A4.189,4.189,0,0,1,401.322,293.124Z"/><path class="b" d="M412.7,292.168h-3.742l-.775,1.761h-1.036l3.19-7.042h1l3.2,7.042h-1.056Zm-.351-.806-1.52-3.451-1.518,3.451Z"/><path class="b" d="M421.628,286.887v7.042H420.8l-4.227-5.253v5.253h-1v-7.042h.824l4.227,5.249v-5.249Z"/><path class="b" d="M428.225,292.168h-3.744l-.774,1.761h-1.036l3.19-7.042h1l3.2,7.042H429Zm-.352-.806-1.521-3.451-1.517,3.451Z"/><path class="b" d="M433.372,291.494v2.435h-1v-2.455l-2.8-4.587h1.075l2.255,3.712,2.264-3.712h1Z"/><path class="b" d="M436.968,285.537a.594.594,0,1,1,.593.594A.589.589,0,0,1,436.968,285.537Zm.092,1.35h1v7.042h-1Z"/><path class="b" d="M439.6,290.408a3.56,3.56,0,0,1,3.732-3.6,3.483,3.483,0,0,1,2.677,1.1l-.654.635a2.61,2.61,0,0,0-1.984-.836,2.708,2.708,0,1,0,0,5.414,2.632,2.632,0,0,0,1.984-.844l.654.631a3.494,3.494,0,0,1-2.687,1.106A3.557,3.557,0,0,1,439.6,290.408Z"/><path class="b" d="M447.35,285.537a.594.594,0,1,1,.594.594A.589.589,0,0,1,447.35,285.537Zm.09,1.35h1.006v7.042H447.44Z"/><path class="b" d="M450.553,286.887h1.007v6.166h3.813v.876h-4.82Z"/><path class="b" d="M461.636,293.053v.876h-5.113v-7.042h4.971v.875h-3.965v2.162h3.532v.854h-3.532v2.275Z"/><path class="b" d="M467.97,293.929l-1.521-2.164c-.141.01-.291.019-.442.019h-1.741v2.145H463.26v-7.042h2.747c1.831,0,2.938.925,2.938,2.455a2.221,2.221,0,0,1-1.55,2.222l1.669,2.365Zm-.032-4.587c0-1.009-.674-1.58-1.961-1.58h-1.711v3.167h1.711C467.264,290.929,467.938,290.347,467.938,289.342Z"/><path class="b" d="M404.261,242.631l-1.287,1.308v1.82h-1.007v-7.043h1.007v3.935l3.823-3.935h1.146l-3.007,3.172,3.2,3.871h-1.178Z"/><path class="b" d="M410.3,242.238a3.745,3.745,0,1,1,3.754,3.6A3.581,3.581,0,0,1,410.3,242.238Zm6.479,0a2.737,2.737,0,1,0-2.725,2.706A2.643,2.643,0,0,0,416.775,242.238Z"/><path class="b" d="M426.421,244.884v.875h-5.885v-.685l4.426-5.483h-4.357v-.875h5.686v.683l-4.407,5.485Z"/><path class="b" d="M436.219,245.759l-.01-5.132-2.546,4.275H433.2l-2.547-4.243v5.1h-.965v-7.043h.827l2.938,4.951,2.9-4.951h.825l.01,7.043Z"/><path class="b" d="M446.331,244.884v.875h-5.112v-7.043h4.97v.875h-3.965v2.163h3.533v.854h-3.533v2.276Z"/><path class="b" d="M451.276,239.591h-2.415v-.875h5.826v.875h-2.414v6.168h-1Z"/><path class="b" d="M457.61,237.369a.594.594,0,1,1,1.188,0,.594.594,0,0,1-1.188,0Zm.091,1.347h1.006v7.043H457.7Z"/><path class="b" d="M465.031,242.631l-1.289,1.308v1.82h-1.006v-7.043h1.006v3.935l3.825-3.935h1.146l-3.008,3.172,3.2,3.871h-1.178Z"/><path class="b" d="M401.967,303.109h2.969a3.532,3.532,0,1,1,0,7.043h-2.969Zm2.908,6.166a2.653,2.653,0,1,0,0-5.291h-1.9v5.291Z"/><path class="b" d="M418.658,309.275v.877h-5.111v-7.043h4.971v.875h-3.965v2.164h3.532V307h-3.532v2.272Z"/><path class="b" d="M428.265,310.152l-1.52-2.163c-.141.009-.29.021-.441.021h-1.742v2.142h-1.006v-7.043H426.3c1.83,0,2.936.926,2.936,2.455a2.225,2.225,0,0,1-1.549,2.225l1.67,2.363Zm-.03-4.588c0-1.007-.674-1.58-1.962-1.58h-1.711v3.17h1.711C427.561,307.154,428.235,306.57,428.235,305.564Z"/><path class="b" d="M440.2,303.109v7.043h-.824l-4.227-5.253v5.253h-1v-7.043h.823l4.227,5.252v-5.252Z"/><path class="b" d="M450.69,309.275v.877h-5.112v-7.043h4.971v.875h-3.964v2.164h3.531V307h-3.531v2.272Z"/><path class="b" d="M460.438,306.592h.966v2.745a4.163,4.163,0,0,1-2.666.895,3.606,3.606,0,1,1,.018-7.2,3.532,3.532,0,0,1,2.708,1.088l-.623.623a2.8,2.8,0,0,0-2.043-.812,2.707,2.707,0,1,0-.011,5.411,2.965,2.965,0,0,0,1.651-.454Z"/><path class="b" d="M457,300.832h.655a.994.994,0,0,0,1.951,0h.655a1.656,1.656,0,0,1-3.261,0Z"/><path class="b" d="M466.5,301.761a.593.593,0,0,1,1.186,0,.593.593,0,1,1-1.186,0Zm.09,1.348H467.6v7.043h-1.005Z"/></g></svg>