<svg xmlns="http://www.w3.org/2000/svg" width="210.412" height="100" viewBox="0 0 210.412 100"><defs><style>.a{fill:#0045ab;}.b{fill:#fff;}</style></defs><g transform="translate(-291.032 -441.103)"><path class="a" d="M447.847,444.86H385.964a58.893,58.893,0,0,1,.264,91.55H508.454V444.86Z" transform="translate(-7.01 -0.152)"/><path class="a" d="M392.541,491.1c0,27.615-22.727,50-50.754,50s-50.755-22.385-50.755-50,22.726-50,50.755-50S392.541,463.484,392.541,491.1Z" transform="translate(0 0)"/><path class="b" d="M368.061,493.954a24.624,24.624,0,0,1-3.424-2.668,5.8,5.8,0,0,1-1.707-4.292V465.64h.277c2.03.121,4.253,2.03,6.244,5.333a14.534,14.534,0,0,1,1.507,3.178h.64l-1.074-9.5H335.562l-.039.758c1.864.315,2.506.909,2.506,2.385a4.75,4.75,0,0,1-.437,1.827,14.253,14.253,0,0,1-2.585,3.182l-6.161,5.96V471.01A8.074,8.074,0,0,1,330,466.72a2.683,2.683,0,0,1,2.063-1.4v-.674H316.517v.6c1.909.121,2.626.476,3.26,1.475a4.416,4.416,0,0,1,.8,2.184v18.09c0,2.184-.318,3.18-1.239,4.292a3.053,3.053,0,0,1-2.822,1.429v.6h5.974a8.4,8.4,0,0,0-3.14,3.308,11.63,11.63,0,0,0-.845,4.489,8.161,8.161,0,0,0,2.3,5.987c1.59,1.51,3.027,2.446,6.843,3.524,2.706.714,3.738,1.113,4.575,1.827a4.878,4.878,0,0,1,1.547,3.536c0,3.025-2.022,5.248-4.766,5.248-2.382,0-3.381-.476-5.6-2.782-1.912-1.947-2.745-3.417-4.019-6.675-.158-.483-.358-1.038-.6-1.634l-.558.041.72,11.926h.631c.484-1.109.88-1.43,1.911-1.43a8.5,8.5,0,0,1,2.266.4l3.18.869a9.886,9.886,0,0,0,2.905.359c7.153,0,11.8-3.818,11.8-9.66a8.481,8.481,0,0,0-3.573-7.279c-1.431-.951-2.785-1.467-6.162-2.383-3.062-.872-4.054-1.265-4.816-1.988a3.716,3.716,0,0,1-1.11-2.783,4.574,4.574,0,0,1,4.691-4.77,6.041,6.041,0,0,1,4.851,2.348,23.815,23.815,0,0,1,2.863,4.572c.235.521.478,1.271.835,2.306l.673-.12-.442-9.235h4.755c2.346.618,3.515,2.6,3.515,5.738v16.322c0,3.242-1.386,5.265-3.931,5.792v.607h16.141c5.285,0,9.14-1.538,12.044-4.9a14.469,14.469,0,0,0,3.622-9.723C375.6,501.653,372.166,496.821,368.061,493.954Zm-34.411-1.522a6.982,6.982,0,0,1-2.057-.118c-1.822-.4-2.747-2.187-2.747-5.32v-7.077l.594-.68,4.014,6.8a18.682,18.682,0,0,0,1.156,1.831c1.032,1.547,1.166,1.727,1.166,2.561C335.776,491.6,335.227,492.117,333.65,492.432Zm1.951-19.038,1.39-1.312a35.064,35.064,0,0,1,5.646-4.693,19.852,19.852,0,0,1,4.15-2.007l-.952,9.049h.632l.6-1.273a14.544,14.544,0,0,1,3.02-4.577,11.719,11.719,0,0,1,4.14-2.785l.393-.076V485.8c.013,2.666-.6,5.307-3.225,5.838-4.041.829-7.206-3.962-7.206-3.962Zm29.615,41.941c-1.432,3.037-4.533,5.51-6.879,5.51-1.191,0-1.946-.732-2.183-2.152l-.117-3.152V493.382H357.5a9.071,9.071,0,0,1,5.885,2.511c1.908,1.984,3.379,7.169,3.379,11.787A18.389,18.389,0,0,1,365.216,515.335Z" transform="translate(-1.034 -1.729)"/><g transform="translate(421.378 471.859)"><path class="b" d="M437.074,475.626l-2.964,6.758h-.955l-2.973-6.758h1.042l2.432,5.552,2.451-5.552Z" transform="translate(-430.182 -473.765)"/><path class="b" d="M443.11,481.545v.839h-4.9v-6.758h4.769v.841h-3.8v2.075h3.389v.819H439.17v2.183Z" transform="translate(-430.508 -473.765)"/><path class="b" d="M450.713,476.467H448.4v-.841h5.591v.841H451.67v5.917h-.957Z" transform="translate(-430.921 -473.765)"/><path class="b" d="M460.38,481.545v.839h-4.9v-6.758h4.769v.841h-3.805v2.075h3.39v.819h-3.39v2.183Z" transform="translate(-431.208 -473.765)"/><path class="b" d="M468.636,482.384l-.008-4.924-2.443,4.1h-.444L463.3,477.49v4.894h-.928v-6.758h.791l2.82,4.749,2.779-4.749h.792l.01,6.758Z" transform="translate(-431.488 -473.765)"/><path class="b" d="M472.049,474.254a.569.569,0,1,1,.569.57A.563.563,0,0,1,472.049,474.254Zm.087,1.293h.963v6.758h-.963Z" transform="translate(-431.88 -473.686)"/><path class="b" d="M480.435,481.545v.839h-5.647v-.657l4.248-5.26h-4.181v-.841h5.455v.656l-4.228,5.262Z" transform="translate(-431.992 -473.765)"/><path class="b" d="M482.179,475.626h.964v5.919H486.8v.839h-4.623Z" transform="translate(-432.291 -473.765)"/><path class="b" d="M488.221,474.254a.569.569,0,1,1,.568.57A.562.562,0,0,1,488.221,474.254Zm.085,1.293h.965v6.758h-.965Z" transform="translate(-432.537 -473.686)"/><path class="b" d="M493.784,479.383l-1.236,1.254v1.747h-.964v-6.758h.964V479.4l3.669-3.777h1.1l-2.885,3.041,3.069,3.717h-1.13Z" transform="translate(-432.673 -473.765)"/></g><g transform="translate(422.342 486.685)"><path class="b" d="M431.186,495.1v-3.841h.966v3.8c0,1.5.686,2.171,1.9,2.171s1.91-.674,1.91-2.171v-3.8h.937V495.1a2.861,2.861,0,1,1-5.716,0Zm1.478-5.048a.492.492,0,1,1,.984,0,.492.492,0,0,1-.984,0Zm1.8,0a.492.492,0,1,1,.984,0,.492.492,0,0,1-.984,0Z" transform="translate(-431.186 -489.4)"/><path class="b" d="M445.614,498.091l-1.459-2.075c-.134.011-.279.017-.423.017H442.06v2.058H441.1v-6.757h2.635c1.756,0,2.818.887,2.818,2.356a2.134,2.134,0,0,1-1.487,2.135l1.6,2.267Zm-.031-4.4c0-.967-.645-1.514-1.881-1.514H442.06v3.04H443.7C444.939,495.216,445.583,494.656,445.583,493.69Z" transform="translate(-431.588 -489.472)"/><path class="b" d="M450.238,495.1v-3.841h.964v3.8c0,1.5.687,2.171,1.9,2.171s1.912-.674,1.912-2.171v-3.8h.936V495.1a2.861,2.861,0,1,1-5.715,0Zm1.477-5.048a.492.492,0,1,1,.984,0,.492.492,0,0,1-.984,0Zm1.8,0a.493.493,0,1,1,.985,0,.493.493,0,0,1-.985,0Z" transform="translate(-431.959 -489.4)"/><path class="b" d="M465.957,491.334v6.757h-.791l-4.056-5.04v5.04h-.965v-6.757h.792l4.054,5.039v-5.039Z" transform="translate(-432.361 -489.472)"/><path class="b" d="M470.206,491.334h.965v5.919h3.659v.839h-4.624Z" transform="translate(-432.769 -489.472)"/><path class="b" d="M482.976,497.253v.839H478.07v-6.757h4.769v.841h-3.8v2.075h3.389v.819h-3.389v2.183Z" transform="translate(-433.088 -489.472)"/><path class="b" d="M491.218,498.091l-1.458-2.075c-.135.011-.279.017-.425.017h-1.67v2.058H486.7v-6.757h2.636c1.758,0,2.819.887,2.819,2.356a2.135,2.135,0,0,1-1.486,2.135l1.6,2.267Zm-.029-4.4c0-.967-.647-1.514-1.882-1.514h-1.643v3.04h1.643C490.543,495.216,491.189,494.656,491.189,493.69Z" transform="translate(-433.438 -489.472)"/><path class="b" d="M495.812,489.961a.57.57,0,0,1,1.141,0,.57.57,0,1,1-1.141,0Zm.087,1.294h.965v6.757H495.9Z" transform="translate(-433.808 -489.393)"/></g><g transform="translate(421.782 501.549)"><path class="b" d="M430.6,513.063l.358-.751a3.476,3.476,0,0,0,2.23.783c1.169,0,1.669-.455,1.669-1.045,0-1.65-4.093-.607-4.093-3.115,0-1.046.812-1.933,2.589-1.933a3.975,3.975,0,0,1,2.17.6l-.318.773a3.485,3.485,0,0,0-1.853-.551c-1.15,0-1.641.483-1.641,1.071,0,1.65,4.091.619,4.091,3.1,0,1.034-.829,1.92-2.615,1.92A4.008,4.008,0,0,1,430.6,513.063Z" transform="translate(-430.603 -505.216)"/><path class="b" d="M441.752,512.151h-3.59l-.743,1.69h-.993l3.059-6.757h.957l3.07,6.757H442.5Zm-.338-.772-1.457-3.314-1.457,3.314Z" transform="translate(-430.839 -505.22)"/><path class="b" d="M450.662,507.083v6.757h-.791l-4.055-5.042v5.042h-.964v-6.757h.792l4.055,5.037v-5.037Z" transform="translate(-431.181 -505.22)"/><path class="b" d="M457.28,512.151h-3.591l-.745,1.69h-.993l3.061-6.757h.956l3.07,6.757h-1.014Zm-.339-.772-1.456-3.314-1.458,3.314Z" transform="translate(-431.469 -505.22)"/><path class="b" d="M462.5,511.5v2.337h-.955v-2.357l-2.684-4.4h1.033l2.162,3.56,2.173-3.56h.956Z" transform="translate(-431.749 -505.22)"/><path class="b" d="M466.248,505.71a.57.57,0,1,1,.57.57A.565.565,0,0,1,466.248,505.71Zm.088,1.294h.964v6.757h-.964Z" transform="translate(-432.049 -505.141)"/><path class="b" d="M468.877,510.457A3.419,3.419,0,0,1,472.459,507a3.338,3.338,0,0,1,2.568,1.052l-.626.608a2.509,2.509,0,0,0-1.9-.8,2.6,2.6,0,1,0,0,5.193,2.523,2.523,0,0,0,1.9-.81l.626.606a3.347,3.347,0,0,1-2.576,1.061A3.416,3.416,0,0,1,468.877,510.457Z" transform="translate(-432.156 -505.216)"/><path class="b" d="M476.63,505.71a.57.57,0,1,1,.571.57A.565.565,0,0,1,476.63,505.71Zm.088,1.294h.964v6.757h-.964Z" transform="translate(-432.47 -505.141)"/><path class="b" d="M479.833,507.083h.965V513h3.658v.841h-4.624Z" transform="translate(-432.6 -505.22)"/><path class="b" d="M490.709,513v.841h-4.9v-6.757h4.767v.839h-3.8V510h3.389v.819h-3.389V513Z" transform="translate(-432.842 -505.22)"/><path class="b" d="M497.058,513.84l-1.457-2.077c-.136.011-.28.019-.426.019h-1.67v2.058h-.965v-6.757h2.635c1.757,0,2.82.888,2.82,2.354a2.134,2.134,0,0,1-1.486,2.134l1.6,2.269Zm-.029-4.4c0-.966-.647-1.515-1.881-1.515h-1.643v3.039h1.643C496.383,510.962,497.029,510.4,497.029,509.437Z" transform="translate(-433.116 -505.22)"/></g><g transform="translate(422.4 456.958)"><path class="b" d="M433.448,463.6l-1.236,1.255V466.6h-.965v-6.756h.965v3.773l3.669-3.773h1.1l-2.886,3.042,3.069,3.714h-1.13Z" transform="translate(-431.247 -457.979)"/><path class="b" d="M439.575,463.215a3.594,3.594,0,1,1,3.6,3.455A3.436,3.436,0,0,1,439.575,463.215Zm6.217,0a2.626,2.626,0,1,0-2.615,2.6A2.537,2.537,0,0,0,445.792,463.215Z" transform="translate(-431.585 -457.975)"/><path class="b" d="M455.463,465.758v.839h-5.647v-.656l4.246-5.26h-4.179v-.841h5.454v.653l-4.228,5.263Z" transform="translate(-432 -457.979)"/><path class="b" d="M465.234,466.6l-.01-4.924-2.443,4.1h-.444L459.9,461.7V466.6h-.927v-6.756h.792l2.819,4.748,2.781-4.748h.791l.011,6.756Z" transform="translate(-432.372 -457.979)"/><path class="b" d="M475.4,465.758v.839h-4.9v-6.756h4.769v.841h-3.8v2.075h3.389v.818h-3.389v2.183Z" transform="translate(-432.839 -457.979)"/><path class="b" d="M480.459,460.682h-2.317v-.841h5.589v.841h-2.315V466.6h-.957Z" transform="translate(-433.149 -457.979)"/><path class="b" d="M486.891,458.469a.57.57,0,1,1,.57.569A.563.563,0,0,1,486.891,458.469Zm.086,1.293h.965v6.756h-.965Z" transform="translate(-433.504 -457.9)"/><path class="b" d="M494.217,463.6l-1.236,1.255V466.6h-.964v-6.756h.964v3.773l3.67-3.773h1.1l-2.886,3.042,3.07,3.714h-1.129Z" transform="translate(-433.712 -457.979)"/></g><g transform="translate(422.4 516.249)"><path class="b" d="M431.247,523h2.85a3.388,3.388,0,1,1,0,6.755h-2.85Zm2.789,5.916a2.546,2.546,0,1,0,0-5.076h-1.824v5.076Z" transform="translate(-431.247 -520.812)"/><path class="b" d="M447.731,528.914v.84h-4.9V523H447.6v.84h-3.8v2.075h3.389v.82h-3.389v2.181Z" transform="translate(-431.717 -520.812)"/><path class="b" d="M457.355,529.753l-1.458-2.075c-.135.01-.28.019-.424.019H453.8v2.056h-.966V523h2.637c1.756,0,2.817.887,2.817,2.354a2.135,2.135,0,0,1-1.485,2.135l1.6,2.267Zm-.029-4.4c0-.967-.647-1.514-1.882-1.514H453.8v3.04h1.642C456.68,526.878,457.326,526.318,457.326,525.352Z" transform="translate(-432.123 -520.812)"/><path class="b" d="M469.23,523v6.755h-.792l-4.055-5.039v5.039h-.964V523h.79l4.057,5.036V523Z" transform="translate(-432.552 -520.812)"/><path class="b" d="M479.764,528.914v.84h-4.906V523h4.769v.84h-3.8v2.075h3.389v.82h-3.389v2.181Z" transform="translate(-433.016 -520.812)"/><path class="b" d="M489.5,526.333h.926v2.636a4,4,0,0,1-2.558.859,3.46,3.46,0,1,1,.018-6.913,3.383,3.383,0,0,1,2.6,1.044l-.6.6a2.686,2.686,0,0,0-1.961-.781,2.6,2.6,0,1,0-.011,5.194,2.858,2.858,0,0,0,1.586-.436Z" transform="translate(-433.398 -520.808)"/><path class="b" d="M486.277,520.719h.628a.954.954,0,0,0,1.872,0h.627a1.588,1.588,0,0,1-3.128,0Z" transform="translate(-433.48 -520.719)"/><path class="b" d="M495.784,521.623a.569.569,0,1,1,.569.571A.563.563,0,0,1,495.784,521.623Zm.086,1.3h.965v6.755h-.965Z" transform="translate(-433.865 -520.733)"/></g></g></svg>