<svg xmlns="http://www.w3.org/2000/svg" width="32.604" height="32.604" viewBox="0 0 32.604 32.604"><defs><style>.a{fill:#349bce;}</style></defs><path class="a" d="M23.508,11.13a1.273,1.273,0,0,1,0,1.8l-8.544,8.544a1.274,1.274,0,0,1-1.8,0L9.1,17.408a1.273,1.273,0,0,1,1.8-1.8l3.167,3.167,7.644-7.644a1.274,1.274,0,0,1,1.8,0ZM32.6,16.3A16.3,16.3,0,1,1,16.3,0,16.293,16.293,0,0,1,32.6,16.3Zm-2.547,0A13.755,13.755,0,1,0,16.3,30.058,13.747,13.747,0,0,0,30.057,16.3Zm0,0" transform="translate(0 0)"/></svg>