<svg xmlns="http://www.w3.org/2000/svg" width="25" height="25" viewBox="0 0 25 25"><defs><style>.a{fill:#fff;}.b{fill:#1d1e1f;}</style></defs><g transform="translate(-340.938 -4342)"><circle class="a" cx="12.5" cy="12.5" r="12.5" transform="translate(340.938 4342)"/><g transform="translate(346.797 4347.382)"><path class="b" d="M9.679,0H3.689A3.693,3.693,0,0,0,0,3.689v5.99a3.693,3.693,0,0,0,3.689,3.689h5.99a3.693,3.693,0,0,0,3.689-3.689V3.689A3.693,3.693,0,0,0,9.679,0Zm2.5,9.679a2.506,2.506,0,0,1-2.5,2.5H3.689a2.506,2.506,0,0,1-2.5-2.5V3.689a2.506,2.506,0,0,1,2.5-2.5h5.99a2.506,2.506,0,0,1,2.5,2.5v5.99Z"/><path class="b" d="M44.41,40.97a3.441,3.441,0,1,0,3.442,3.442A3.445,3.445,0,0,0,44.41,40.97Zm0,5.7a2.256,2.256,0,1,1,2.256-2.256A2.259,2.259,0,0,1,44.41,46.668Z" transform="translate(-37.726 -37.727)"/><path class="b" d="M119.792,28.251a.87.87,0,1,0,.616.255A.874.874,0,0,0,119.792,28.251Z" transform="translate(-109.519 -26.017)"/></g></g></svg>