<svg xmlns="http://www.w3.org/2000/svg" width="36" height="36" viewBox="0 0 36 36"><path d="M27.281,9.281H8.719a1.406,1.406,0,1,1,0-2.813H27.281a1.406,1.406,0,1,1,0,2.813Zm1.406,5.906a1.406,1.406,0,0,0-1.406-1.406H8.719a1.406,1.406,0,1,0,0,2.812H27.281A1.406,1.406,0,0,0,28.688,15.188ZM19.406,22.5A1.406,1.406,0,0,0,18,21.094H8.719a1.406,1.406,0,1,0,0,2.813H18A1.406,1.406,0,0,0,19.406,22.5Zm-.412,13.088,5.213-5.213H34.594A1.406,1.406,0,0,0,36,28.969V1.406A1.406,1.406,0,0,0,34.594,0H1.406A1.406,1.406,0,0,0,0,1.406V28.969a1.406,1.406,0,0,0,1.406,1.406H11.793l5.213,5.213A1.406,1.406,0,0,0,18.994,35.588ZM2.813,2.813H33.188v24.75H23.625a1.406,1.406,0,0,0-.994.412L18,32.605l-4.631-4.631a1.406,1.406,0,0,0-.994-.412H2.813Z"/></svg>