<svg xmlns="http://www.w3.org/2000/svg" width="32.31" height="33.26" viewBox="0 0 32.31 33.26"><defs><style>.a{fill:#349bce;}</style></defs><path class="a" d="M14.923.183a1.365,1.365,0,0,1-.329,2.5L1.718,6.133A1.365,1.365,0,0,1,1.012,3.5L13.888.047a1.361,1.361,0,0,1,1.036.136Z" transform="matrix(0.574, 0.819, -0.819, 0.574, 19.898, 0)"/><path class="a" d="M3.924.137A1.019,1.019,0,0,1,4.4.759L6.149,7.285a1.023,1.023,0,0,1-1.5,1.151L.512,6.047a1.024,1.024,0,0,1-.375-1.4L2.526.512a1.023,1.023,0,0,1,1.4-.375Z" transform="matrix(-0.602, -0.799, 0.799, -0.602, 24.22, 16.463)"/><path class="a" d="M1,15.706v7.848H9.189V15.706A1.707,1.707,0,0,0,7.483,14H2.706A1.707,1.707,0,0,0,1,15.706Z" transform="translate(21.756 5.611)"/><path class="a" d="M9,11.706V25.014h8.189V11.706A1.707,1.707,0,0,0,15.483,10H10.706A1.707,1.707,0,0,0,9,11.706Z" transform="translate(3.061 4.152)"/><path class="a" d="M17,7.706V26.473h8.189V7.706A1.707,1.707,0,0,0,23.483,6H18.706A1.707,1.707,0,0,0,17,7.706Z" transform="translate(-15.635 2.692)"/><path class="a" d="M1.01,24.547H31.3a1.024,1.024,0,0,0,0-2.047H1.01a1.024,1.024,0,0,0,0,2.047Z" transform="translate(0 8.712)"/></svg>