<svg xmlns="http://www.w3.org/2000/svg" width="138.033" height="137.035" viewBox="0 0 138.033 137.035"><defs><style>.a{fill:#f5f5f5;}.b{fill:#e0e0e0;}.c{fill:#ebebeb;}.d{fill:#455a64;}.e,.n{fill:#fff;}.f{fill:#0082c3;}.g,.j{opacity:0.1;}.h{fill:#407bff;}.i,.p{fill:#37474f;}.k{fill:#fafafa;}.l{opacity:0.05;}.m{fill:#263238;}.n{opacity:0.4;}.o{opacity:0.15;}.p{opacity:0.5;}.q{fill:#b16668;}.r{opacity:0.35;}.s{fill:#9a4a4d;}.t{opacity:0.2;}.u{fill:#ffa8a7;}.v{fill:#f28f8f;}</style></defs><g transform="translate(0)"><g transform="translate(0 64.909)"><path class="a" d="M51.8,308.561c26.952,14.093,70.653,14.093,97.6,0s26.952-36.911,0-50.992-70.653-14.093-97.6,0S24.847,294.481,51.8,308.561Z" transform="translate(-31.585 -247.005)"/></g><g transform="translate(80.491 89.629)"><ellipse class="b" cx="12.806" cy="7.394" rx="12.806" ry="7.394" transform="translate(0 11.052)"/><ellipse class="b" cx="11.328" cy="6.539" rx="11.328" ry="6.539" transform="translate(24.879)"/></g><g transform="translate(97.387 11.155)"><g transform="translate(0 0)"><path class="c" d="M370.116,76.453l2,1.156a1.937,1.937,0,0,1-.019-.266v-.579c0-1.033.727-1.45,1.619-.94a3.075,3.075,0,0,1,.965.94c.147-1.3,1.165-1.782,2.4-1.068a5.352,5.352,0,0,1,2.421,4.193v.868a2.293,2.293,0,0,1-.2,1.008l1.663.958a1.992,1.992,0,0,1,.9,1.566c0,.573-.4.8-.9.517l-10.852-6.264a1.989,1.989,0,0,1-.9-1.566C369.22,76.4,369.621,76.165,370.116,76.453Z" transform="translate(-360.868 -75.365)"/><path class="c" d="M343.23,95.659l1.513.871a1.436,1.436,0,0,1-.016-.2v-.435c0-.78.548-1.1,1.225-.708a2.411,2.411,0,0,1,.727.7c.11-.98.88-1.344,1.813-.8a4.037,4.037,0,0,1,1.826,3.166V98.9a1.71,1.71,0,0,1-.154.758l1.253.723a1.5,1.5,0,0,1,.676,1.174c0,.432-.313.608-.676.391l-8.19-4.729a1.488,1.488,0,0,1-.676-1.171C342.553,95.618,342.854,95.443,343.23,95.659Z" transform="translate(-342.55 -88.736)"/></g></g><g transform="translate(0.242 79.57)"><g transform="translate(0 13.015)"><path class="d" d="M46.8,354.294c-.2.106-3.887,1.156-5.252-.651s.9-4.616-.382-5.653-4.87,0-5.734-2.177,1.7-3.132.257-5.324c-.908-1.384-3.445-2.148-3.329-3.445.169-1.879,3.636-2.393,6.668-.373s4.441.363,5.405.229,3.035.163,2.966,3.539S46.8,354.294,46.8,354.294Z" transform="translate(-32.358 -335.377)"/><path class="e" d="M51.366,351.275a.2.2,0,0,1-.2-.169c-1.055-6.408-8.5-11.622-12.377-12.74a.207.207,0,0,1-.138-.251.2.2,0,0,1,.251-.135c3.959,1.143,11.588,6.486,12.662,13.059a.2.2,0,0,1-.166.232Z" transform="translate(-36.678 -337.159)"/><path class="e" d="M50.782,359.931a.2.2,0,0,1-.172-.1.2.2,0,0,1,.069-.276,8.358,8.358,0,0,1,5.809-.965.2.2,0,0,1,.141.247.2.2,0,0,1-.247.141c-2.656-.736-5.468.905-5.5.921A.2.2,0,0,1,50.782,359.931Z" transform="translate(-44.874 -351.18)"/></g><g transform="translate(121.261)"><path class="f" d="M420.666,308.738l-.971-.457a33.143,33.143,0,0,1,0-5.844c.626-4.356,3.667-8.111,6.376-8.553,3.489-.567,2.869,2.643.874,4.031A14.643,14.643,0,0,0,420.666,308.738Z" transform="translate(-419.556 -293.818)"/><g class="g" transform="translate(0.018 0.207)"><path d="M420.666,308.738l-.971-.457a33.143,33.143,0,0,1,0-5.844c.626-4.356,3.667-8.111,6.376-8.553,3.489-.567,2.869,2.643.874,4.031A14.643,14.643,0,0,0,420.666,308.738Z" transform="translate(-419.556 -293.818)"/></g><path class="e" d="M421.317,309.306h.025a.169.169,0,0,0,.135-.2c-.676-3.58,2.271-10.216,6.213-12.1a.173.173,0,0,0-.147-.313c-4.071,1.942-7.1,8.769-6.4,12.471A.169.169,0,0,0,421.317,309.306Z" transform="translate(-420.576 -295.782)"/><path class="f" d="M419.733,316.01c-.072-.52-.1-1.278-.113-1.466a4.773,4.773,0,0,1,.285-1.942,3.83,3.83,0,0,1,1.619-1.964,3.148,3.148,0,0,0,1.146-.792,2.531,2.531,0,0,0,.3-1.162,2.52,2.52,0,0,1,.811-1.748,2.622,2.622,0,0,1,1.879-.341,4.678,4.678,0,0,0,2.7-.2,18.408,18.408,0,0,1,2.167-.977c.94-.313,3.041-.783,3.482.535a1.268,1.268,0,0,1-.191,1.074,3.847,3.847,0,0,1-.789.8l-1.469,1.221a1.878,1.878,0,0,0-.448.467c-.285.489-.081,1.106-.144,1.666a1.988,1.988,0,0,1-.9,1.4,2.671,2.671,0,0,1-1.641.4c-.767-.053-2.02-.642-2.49.263a2.928,2.928,0,0,0-.225.971,1.456,1.456,0,0,1-1.638,1.481,7.547,7.547,0,0,0-2.02.313c-.263.1-.429.438-.582.661C420.986,316.514,420.46,316.323,419.733,316.01Z" transform="translate(-419.594 -301.547)"/><path class="e" d="M420.995,317.688a.147.147,0,0,1-.072,0,.16.16,0,0,1-.088-.207c1.973-4.9,8.268-8.412,12.02-9.577a.157.157,0,0,1,.2.106.16.16,0,0,1-.1.2c-3.692,1.146-9.887,4.591-11.819,9.4A.163.163,0,0,1,420.995,317.688Z" transform="translate(-420.427 -303.488)"/></g></g><g transform="translate(36.537 83.77)"><g transform="translate(0 0)"><path class="f" d="M278.832,308.473a3.877,3.877,0,0,0,1.757,3.041,1.413,1.413,0,0,0,1.008.213.881.881,0,0,1-.191.15l.423-.241.022-.016.063-.041a.557.557,0,0,0,.078-.069l.047-.047h0c0-.016.028-.031.041-.05a1.258,1.258,0,0,0,.144-.263l.031-.085a.234.234,0,0,0,0-.044.66.66,0,0,0,.019-.075,1.9,1.9,0,0,0,.047-.438,3.877,3.877,0,0,0-1.754-3.038,1.566,1.566,0,0,0-.786-.241h-.11l-.1.019-.06.016h-.038a.348.348,0,0,0-.072.028h0l-.066.034-.366.21a.736.736,0,0,1,.188-.066A1.4,1.4,0,0,0,278.832,308.473Zm2.891,3.213h0Z" transform="translate(-237.934 -307.23)"/><path class="c" d="M162.43,329.188l2.477,4.3.42-.244,36.134-20.861a.881.881,0,0,0,.191-.15,1.4,1.4,0,0,0,.313-.987,3.89,3.89,0,0,0-1.757-3.041,1.588,1.588,0,0,0-.786-.238.876.876,0,0,0-.222.025.74.74,0,0,0-.188.066l-.031.016h0Z" transform="translate(-157.989 -307.738)"/><path class="h" d="M162.547,375.583c-.971-.561-1.757-.106-1.757,1.012a3.877,3.877,0,0,0,1.757,3.041c.968.561,1.754.107,1.754-1.015A3.877,3.877,0,0,0,162.547,375.583Z" transform="translate(-156.863 -354.012)"/><path class="b" d="M154.011,378.2a.228.228,0,0,1,.044-.05l2.239-2.465h0l.019-.019.041-.044.022-.025h0a1.122,1.122,0,0,1,1.4,0,3.877,3.877,0,0,1,1.754,3.038,1.147,1.147,0,0,1-.677,1.209h-.025a.933.933,0,0,1-.128.028h-.028l-3.244.708a.786.786,0,0,1-.567-.122,2.214,2.214,0,0,1-1.005-1.735A.814.814,0,0,1,154.011,378.2Z" transform="translate(-152.1 -354.021)"/><path class="d" d="M185.56,333.272h0l.059-.034a.454.454,0,0,1,.407.059,1.378,1.378,0,0,1,.626,1.08.461.461,0,0,1-.147.376h0l-.078.044-26.673,15.4L158,349.182Z" transform="translate(-154.947 -325.077)"/><path class="i" d="M162.221,379.522l-2.477,1.431-1.754-1.015L161.344,378A4.25,4.25,0,0,1,162.221,379.522Z" transform="translate(-154.94 -355.837)"/><path class="h" d="M151.3,382.729h0l2.026-2.246.053-.059a.79.79,0,0,1,1,0,2.737,2.737,0,0,1,1.253,2.148.811.811,0,0,1-.473.852h-.019l-.081.019-2.988.658h0a.479.479,0,0,1-.313-.069,1.252,1.252,0,0,1-.564-.98A.445.445,0,0,1,151.3,382.729Z" transform="translate(-150.273 -357.38)"/><path class="j" d="M151.3,382.729h0l2.026-2.246.053-.059a.79.79,0,0,1,1,0,2.737,2.737,0,0,1,1.253,2.148.811.811,0,0,1-.473.852h-.019l-.081.019-2.988.658h0a.479.479,0,0,1-.313-.069,1.252,1.252,0,0,1-.564-.98A.445.445,0,0,1,151.3,382.729Z" transform="translate(-150.273 -357.38)"/><path class="f" d="M151.165,385.687a1.253,1.253,0,0,0,.564.98.454.454,0,0,0,.313.066h0l1.5-.329c.238-.05.395-.272.395-.626a2,2,0,0,0-.9-1.566.579.579,0,0,0-.723,0l-.041.044-1.008,1.109h0A.432.432,0,0,0,151.165,385.687Z" transform="translate(-150.251 -360.016)"/><path class="j" d="M151.764,387.992c-.313-.179-.564-.034-.564.313a1.253,1.253,0,0,0,.564.98c.313.179.564.031.564-.329A1.253,1.253,0,0,0,151.764,387.992Z" transform="translate(-150.276 -362.646)"/><path class="k" d="M252.747,321.061a.435.435,0,0,1,.442.044,1.375,1.375,0,0,1,.626,1.074.429.429,0,0,1-.182.4h0l-6.577,3.789a.46.46,0,0,0,.147-.376,1.378,1.378,0,0,0-.626-1.081.454.454,0,0,0-.407-.06Z" transform="translate(-215.504 -316.701)"/><path class="a" d="M266.573,321.43a1.381,1.381,0,0,0,.626,1.077.379.379,0,0,0,.626-.36,1.375,1.375,0,0,0-.626-1.074.379.379,0,0,0-.626.357Z" transform="translate(-229.511 -316.67)"/><path class="f" d="M270.046,310.445h.022l.025-.016,2.59-1.494.063-.034h0a1.134,1.134,0,0,1,1.071.135,3.482,3.482,0,0,1,1.566,2.734,1.112,1.112,0,0,1-.467,1.027h0l-2.621,1.513h-.016a1.134,1.134,0,0,1-1.1-.122,3.5,3.5,0,0,1-1.566-2.737A1.131,1.131,0,0,1,270.046,310.445Z" transform="translate(-231.604 -308.325)"/><path class="l" d="M270.046,310.445h.022l.025-.016,2.59-1.494.063-.034h0a1.134,1.134,0,0,1,1.071.135,3.482,3.482,0,0,1,1.566,2.734,1.112,1.112,0,0,1-.467,1.027h0l-2.621,1.513h-.016a1.134,1.134,0,0,1-1.1-.122,3.5,3.5,0,0,1-1.566-2.737A1.131,1.131,0,0,1,270.046,310.445Z" transform="translate(-231.002 -308.341)"/><path class="j" d="M271.256,313.757c-.871-.5-1.566-.094-1.566.911a3.5,3.5,0,0,0,1.566,2.737c.874.5,1.582.094,1.582-.911A3.492,3.492,0,0,0,271.256,313.757Z" transform="translate(-231.658 -311.565)"/><path class="d" d="M148.461,389.713h0l1.071-.645h0a.194.194,0,0,1,.21.016.626.626,0,0,1,.291.5.213.213,0,0,1-.085.188h0l-1.068.645h0a.433.433,0,0,1-.2.05.409.409,0,0,1-.219-.755Z" transform="translate(-148.264 -363.422)"/><path class="m" d="M148.385,391.207h0l.056-.047h0a.216.216,0,0,1,.188.031.626.626,0,0,1,.288.5.2.2,0,0,1-.081.185h-.044a.312.312,0,0,1-.132.022.41.41,0,0,1-.41-.41A.417.417,0,0,1,148.385,391.207Z" transform="translate(-148.25 -364.869)"/></g></g><g transform="translate(14.279 0)"><g transform="translate(0)"><path class="f" d="M78.9,152.668l-1.093-.626a1.381,1.381,0,0,1-.626-1.08V69.983a1.378,1.378,0,0,1,.626-1.08l50.234-29a1.375,1.375,0,0,1,1.253,0l1.093.626a1.381,1.381,0,0,1,.626,1.08v80.978a1.375,1.375,0,0,1-.626,1.08l-50.24,29a1.369,1.369,0,0,1-1.246,0Z" transform="translate(-77.18 -39.747)"/><path class="n" d="M131.388,41.507c-.041-.313-.313-.442-.626-.26l-50.218,29a1.312,1.312,0,0,0-.442.463l-2.343-1.35A1.312,1.312,0,0,1,78.2,68.9l50.237-29a1.369,1.369,0,0,1,1.253,0l1.1.626A1.387,1.387,0,0,1,131.388,41.507Z" transform="translate(-77.578 -39.745)"/><path class="o" d="M80.064,217.651a.1.1,0,0,1-.038,0l-.063.022h-.025a.566.566,0,0,0-.116.028h0a1.413,1.413,0,0,1-.742-.059,1.136,1.136,0,0,1-.138-.063l-1.1-.626a1.391,1.391,0,0,1-.626-1.08V134.916a1.318,1.318,0,0,1,.182-.626l2.343,1.35a1.253,1.253,0,0,0-.185.626v80.978a.507.507,0,0,0,.1.329.313.313,0,0,0,.332.106A.411.411,0,0,0,80.064,217.651Z" transform="translate(-77.207 -104.681)"/><path class="d" d="M151.254,73.588l-.091-.056-1.037-.6a3.836,3.836,0,0,0-1.212-.429c-.178-.041-.338-.088-.479-.135a3.64,3.64,0,0,1-.457-.185l.075-.1h0l-1.165-.68h0a1.231,1.231,0,0,0-.313-.122c-.442-.11-1.1.147-1.76.072a1.638,1.638,0,0,1-1.2-.711,14.4,14.4,0,0,1-1-2.264l.313-.454a.963.963,0,0,0-.1-.053l-1.074-.626a1.177,1.177,0,0,0-.6-.163,2.292,2.292,0,0,0-1.127.366c-2.571,1.488-2.659,5.011-3.586,7.335s-2.239,3.047-2.953,4.046-.764,1.738-2.346,3.918-1.644,2.712-1.644,3.132v3.248l1.171.676L151.733,77.65Zm-19.3,12.527c-.272.153-.5-.056-.5-.479a1.331,1.331,0,0,1,.5-1.055c.272-.157.495.06.495.482a1.322,1.322,0,0,1-.495,1.046ZM141.2,77a1.059,1.059,0,0,1-1.619-.495c-.817.157-1.425-.626-1.425-1.986a4.956,4.956,0,0,1,1.879-3.974,1.059,1.059,0,0,1,1.619.5c.817-.163,1.422.626,1.422,1.982a4.942,4.942,0,0,1-1.876,3.968Zm6.993-.263c-.276.16-.5-.053-.5-.476a1.3,1.3,0,0,1,.5-1.055c.276-.16.5.053.5.476a1.3,1.3,0,0,1-.5,1.049Z" transform="translate(-113.121 -58.526)"/><path class="p" d="M131.869,126.806,129.6,125.5a1.617,1.617,0,0,0-.075.5v3.248l1.171.676,1.168-.676Z" transform="translate(-113.135 -98.644)"/><path class="p" d="M139.766,108.413l1.171-2.7-1.86-1.09h0c-.545.755-.7,1.365-1.437,2.565Z" transform="translate(-118.705 -84.303)"/><path class="p" d="M153.254,83.5l.15-.789c-.517-.216-.861-.914-.861-1.932a5.386,5.386,0,0,1,1.425-3.623l-1.622-.94c-.689,1.566-.94,3.445-1.51,4.845a7.9,7.9,0,0,1-.376.824Z" transform="translate(-127.51 -64.797)"/><path class="i" d="M153.809,75.113l-.091-.056a4.721,4.721,0,0,0-1.08-.351,3.357,3.357,0,0,1-1.647-.8,2.392,2.392,0,0,0-.382-.282,1.089,1.089,0,0,0-.313-.125c-.708-.172-2,.6-2.925-.6a.169.169,0,0,1-.028-.038c-.648-.871-.886-2.819-1.857-3.392a.959.959,0,0,0-.1-.053,1.742,1.742,0,0,0-1.635.254c-2.571,1.488-2.659,5.011-3.586,7.335s-2.236,3.047-2.95,4.046-.761,1.738-2.346,3.918-1.641,2.715-1.641,3.132v3.251l21.052-12.161V75.93A.814.814,0,0,0,153.809,75.113Zm-18.145,13.2c-.276.16-.5-.053-.5-.479a1.309,1.309,0,0,1,.5-1.052c.276-.16.495.056.495.479A1.309,1.309,0,0,1,135.663,88.317Zm8.08-9.79a1.059,1.059,0,0,1-1.619-.495,2.982,2.982,0,0,1-.257-1.312,4.941,4.941,0,0,1,1.879-3.971,1.485,1.485,0,0,1,.454-.178c.817-.163,1.422.626,1.422,1.982a4.918,4.918,0,0,1-1.87,3.965Zm8.171.395c-.276.16-.5-.053-.5-.473a1.3,1.3,0,0,1,.5-1.052c.272-.16.495.053.495.476A1.306,1.306,0,0,1,151.914,78.921Z" transform="translate(-115.676 -60.051)"/><path class="m" d="M165.148,81.609a4.938,4.938,0,0,1-1.879,3.974,1.059,1.059,0,0,1-1.619-.495,1.565,1.565,0,0,0,.454-.179,4.956,4.956,0,0,0,1.879-3.974,3,3,0,0,0-.257-1.309C164.544,79.47,165.148,80.256,165.148,81.609Z" transform="translate(-135.196 -67.123)"/><path class="m" d="M139.907,126.527c-.276.157-.5-.056-.5-.476a1.315,1.315,0,0,1,.5-1.055c.272-.16.495.06.495.479a1.318,1.318,0,0,1-.495,1.052" transform="translate(-119.921 -98.261)"/><path class="m" d="M191.8,96.53c-.276.157-.5-.053-.5-.476A1.315,1.315,0,0,1,191.8,95c.272-.157.495.06.495.482a1.315,1.315,0,0,1-.495,1.049" transform="translate(-155.56 -77.659)"/><path class="a" d="M96.236,105.793l43.713-25.239a.83.83,0,0,1,.748,0l.423.244a.827.827,0,0,1,.373.648v66.688a.821.821,0,0,1-.373.648L97.407,174.022a.83.83,0,0,1-.748,0l-.423-.244a.824.824,0,0,1-.376-.648V106.442A.83.83,0,0,1,96.236,105.793Z" transform="translate(-90.01 -67.713)"/><path class="k" d="M141.721,81.334c-.047-.153-.191-.2-.36-.1L97.647,106.47a.714.714,0,0,0-.266.279l-1.171-.673a.771.771,0,0,1,.266-.282l43.713-25.239a.83.83,0,0,1,.748,0l.423.244A.83.83,0,0,1,141.721,81.334Z" transform="translate(-90.25 -67.713)"/><path class="b" d="M97.323,230.228a.886.886,0,0,1-.138.038h-.072a1.114,1.114,0,0,1-.229,0,.991.991,0,0,1-.138-.038l-.085-.041-.42-.241a.83.83,0,0,1-.373-.648V162.606a.727.727,0,0,1,.106-.366l1.171.673a.786.786,0,0,0-.11.37v66.688C97.038,230.174,97.163,230.275,97.323,230.228Z" transform="translate(-90.017 -123.878)"/><path class="d" d="M151.874,85.511l-1.165-.673a1.253,1.253,0,0,0-1.168.034c-1.359.6-1.948.871-2.649,1.165l-.507.2c-.276.11-.824.016-.655-.94l1.807-4.864h-.028l-1.143-.661a.476.476,0,0,0-.191-.069h-.125c-.739-.019-.94-4.788-.955-4.936h0l-.053-.028-1.131-.651a1.253,1.253,0,0,0-.645-.163,2.377,2.377,0,0,0-1.074.313c-1.776.94-3.57,3.7-4.009,6.182a11.922,11.922,0,0,1-2.762,4.867,2.911,2.911,0,0,0-.974,1.629l-.708,4.015-.229,1.287A4.165,4.165,0,0,1,132.36,94.1l-3.667,2.712a9.3,9.3,0,0,0-3.382,6.21v.019c0,.085,0,.141.041.163a.038.038,0,0,0,.041,0h0l.47-.266,25.23-14.55a.545.545,0,0,0,.229-.351h0c.144-.867.564-2.505.564-2.505Zm-7.294-7.369a5.881,5.881,0,0,1-2.465,3.8c-.755.395-1.306.15-1.491-.545a.868.868,0,0,1-.827-.106c-.351-.276,2.862-5.794,3.132-5.672a.939.939,0,0,1,.485.658C144.317,76.006,144.821,76.77,144.58,78.142Z" transform="translate(-110.237 -63.224)"/><path class="p" d="M129,153.232l-1.838-1.062a10.174,10.174,0,0,0-1.81,4.591v.019c0,.085,0,.141.041.163a.038.038,0,0,0,.041,0h0l1.45-1.146Z" transform="translate(-110.264 -116.961)"/><path class="p" d="M151.1,119.031l2.593,1.494,1.168-6.755-2.336-1.35a2.224,2.224,0,0,0-.366.893l-.708,4.015-.229,1.287A2.036,2.036,0,0,1,151.1,119.031Z" transform="translate(-127.95 -89.66)"/><path class="p" d="M165.632,84.23a10.122,10.122,0,0,0-1.228,3.226,8.119,8.119,0,0,1-.914,2.292l2.22,1.284,1.106-2.552a.858.858,0,0,1-.8-.113c-.182-.144.583-1.669,1.4-3.1Z" transform="translate(-136.46 -70.298)"/><path class="i" d="M152.1,86.978h-.016a1.278,1.278,0,0,0-1.165.038c-1.666.736-2.17.977-3.16,1.369-.263.106-.8.022-.658-.88a.429.429,0,0,1,0-.063l.229-1.284.626-3.5s.144-.551-.219-.758H147.7a.68.68,0,0,0-.291-.063,1.425,1.425,0,0,1-1.043-.667,2.631,2.631,0,0,1-.391-2c.266-1.5-.025-2.552-.689-2.944l-.053-.031a1.782,1.782,0,0,0-1.679.163c-1.779.94-3.573,3.7-4.009,6.182a11.941,11.941,0,0,1-2.765,4.867,2.882,2.882,0,0,0-.971,1.629l-.686,3.993-.225,1.284a4.189,4.189,0,0,1-1.152,1.879l-3.664,2.75a8.841,8.841,0,0,0-3.016,4.563s-1.375,1.068-1.459,1.152h0l.47-.266,25.3-14.544s.288-.16.354-.2,1.084-1,1.084-1A2.021,2.021,0,0,0,152.1,86.978Zm-7.31-7.378a5.881,5.881,0,0,1-2.465,3.8c-.755.395-1.306.15-1.491-.545a2.863,2.863,0,0,1,0-1.184,5.861,5.861,0,0,1,2.468-3.8,1.966,1.966,0,0,1,.313-.138C144.523,77.464,145.027,78.228,144.786,79.6Z" transform="translate(-110.443 -64.681)"/><path class="m" d="M178.165,83.173a5.881,5.881,0,0,1-2.465,3.8c-.755.395-1.306.15-1.491-.545a2.163,2.163,0,0,0,.313-.132,5.868,5.868,0,0,0,2.465-3.805,2.871,2.871,0,0,0,0-1.184C177.9,81.038,178.407,81.8,178.165,83.173Z" transform="translate(-143.823 -68.255)"/><path class="m" d="M176.974,81.448h0a.6.6,0,0,1,.526.257c.454.645.019,2.286-.169,2.819-.26.73-1.957,2.446-2.424,2.446a1.153,1.153,0,0,1-.767-.492,2.84,2.84,0,0,1,0-1.14,5.822,5.822,0,0,1,2.43-3.758,2.081,2.081,0,0,1,.3-.128h.1m0-.072h-.116a1.968,1.968,0,0,0-.313.138,5.873,5.873,0,0,0-2.468,3.8,2.861,2.861,0,0,0,0,1.184,1.234,1.234,0,0,0,.83.532h0c.507,0,2.214-1.732,2.487-2.505s.864-3.166-.426-3.166Z" transform="translate(-143.687 -68.327)"/><path class="m" d="M125.559,132.3l25.768-14.813.357-.2c.063-.038,1.08-1.005,1.08-1.005l-25.749,14.863S125.456,132.352,125.559,132.3Z" transform="translate(-110.405 -92.311)"/><path class="b" d="M114.54,155.366v.586c0,.313.225.448.5.288l34.092-19.686a1.109,1.109,0,0,0,.5-.864V135.1c0-.313-.226-.448-.5-.288L115.041,154.5A1.106,1.106,0,0,0,114.54,155.366Z" transform="translate(-102.84 -104.993)"/><path class="b" d="M114.54,166.672v.586c0,.313.225.448.5.288l34.092-19.689a1.105,1.105,0,0,0,.5-.864V146.4c0-.313-.226-.445-.5-.288l-34.092,19.693A1.106,1.106,0,0,0,114.54,166.672Z" transform="translate(-102.84 -112.757)"/><path class="b" d="M114.54,177.916v.583c0,.313.225.448.5.288L149.133,159.1a1.109,1.109,0,0,0,.5-.864v-.589c0-.313-.226-.448-.5-.288l-34.092,19.689A1.106,1.106,0,0,0,114.54,177.916Z" transform="translate(-102.84 -120.481)"/><path class="b" d="M114.54,202.842v.586c0,.313.225.448.5.288l34.092-19.68a1.106,1.106,0,0,0,.5-.864v-.589c0-.313-.226-.445-.5-.288l-34.092,19.683A1.105,1.105,0,0,0,114.54,202.842Z" transform="translate(-102.84 -137.606)"/><path class="b" d="M114.54,214.126v.589c0,.313.225.445.5.288l34.092-19.689a1.105,1.105,0,0,0,.5-.864v-.589c0-.313-.226-.448-.5-.288l-34.092,19.689A1.109,1.109,0,0,0,114.54,214.126Z" transform="translate(-102.84 -145.351)"/><path class="b" d="M114.54,225.372v.586c0,.313.225.448.5.288l34.092-19.689a1.106,1.106,0,0,0,.5-.864V205.1c0-.313-.226-.445-.5-.288l-34.092,19.693A1.105,1.105,0,0,0,114.54,225.372Z" transform="translate(-102.84 -153.074)"/><path class="b" d="M114.54,250.276v.589c0,.313.225.445.5.288l34.092-19.689a1.106,1.106,0,0,0,.5-.864v-.589c0-.313-.226-.448-.5-.288l-34.092,19.689a1.109,1.109,0,0,0-.5.864Z" transform="translate(-102.84 -170.179)"/><path class="b" d="M114.54,261.586v.586c0,.313.225.448.5.288l34.092-19.689a1.1,1.1,0,0,0,.5-.861v-.589c0-.313-.226-.448-.5-.288l-34.092,19.689A1.105,1.105,0,0,0,114.54,261.586Z" transform="translate(-102.84 -177.947)"/><path class="b" d="M114.54,272.839v.589c0,.313.225.445.5.288l34.092-19.683a1.106,1.106,0,0,0,.5-.864v-.589c0-.313-.226-.448-.5-.288l-34.092,19.683A1.109,1.109,0,0,0,114.54,272.839Z" transform="translate(-102.84 -185.681)"/><path class="b" d="M170.58,297.341l17.554-10.131v.338L170.58,297.68Z" transform="translate(-141.329 -209.71)"/><path class="d" d="M178.934,289.232a2.622,2.622,0,0,0,1.412-2.286.747.747,0,0,0-1.105-.611c-1.068.41-1.741,2.017-2.114,2.988-.313.849-.742,2.449.532,2.721,1.494.313,2.649-1.879,2.988-3.019.047-.16-.213-.247-.288-.1-.132.26-1.012,1.976-.044,1.76.345-.075.542-.611.667-.883a7,7,0,0,1,.673-1.588l-.254-.116a1.469,1.469,0,0,0,.313,1.109.153.153,0,0,0,.213.034c.495-.46.529-1.209,1.074-1.625l-.222-.106c0,.144-.066.554-.075.745a.152.152,0,0,0,.194.122.426.426,0,0,0,.313-.269l-.238-.088c.207,1.105,1.149,0,1.472-.42a7.1,7.1,0,0,0,1.635-4.2c0-.128-.241-.194-.244-.041a13.375,13.375,0,0,1-.908,3.53c-.373,1.253-.683,2.534-.94,3.824l.222.081a7.68,7.68,0,0,1,.689-2.637,5.214,5.214,0,0,1,1.187-1.979l-.207-.078a2.236,2.236,0,0,1-.5,1.823c-.066.085.081.244.147.16.344-.432.911-.57,1.281-.99a10.967,10.967,0,0,0,.924-1.491l-.169-.085c-.022,1.052.971-.589,1.105-.764l-.163-.063c.066.216.153.36.4.363.485,0,.667-.708,1.033-.789a.855.855,0,0,0,.216.141.918.918,0,0,0,.586-.11,2.724,2.724,0,0,0,.958-1.071c.056-.1-.135-.225-.2-.116-.241.407-.993,1.488-1.538.958-.034-.031-.106-.063-.144-.019-.147.182-.99,1.146-1.146.626-.019-.063-.11-.132-.16-.063-.128.169-.232.357-.351.536-.066.1-.432.714-.42.4,0-.075-.116-.163-.169-.084A7.7,7.7,0,0,1,186.5,287.1c-.354.313-.817.432-1.124.811l.147.16a2.4,2.4,0,0,0,.573-1.979.132.132,0,0,0-.207-.078,5.362,5.362,0,0,0-1.206,2.023,7.915,7.915,0,0,0-.7,2.69c0,.1.2.207.222.081a37.219,37.219,0,0,1,1.03-4.121,11.76,11.76,0,0,0,.833-3.3l-.244-.041a6.072,6.072,0,0,1-1.087,3.351c-.175.272-.36.545-.561.8-.088.116-.864,1.131-.965.542-.016-.085-.182-.2-.238-.088l-.225.2.194.119c.016-.254.066-.492.078-.749a.15.15,0,0,0-.222-.1c-.554.423-.6,1.171-1.093,1.632l.213.034a1.694,1.694,0,0,1-.238-.94c0-.11-.169-.216-.254-.116a7.818,7.818,0,0,0-.752,1.719c-.138.291-.626,1.068-.47.241a4.07,4.07,0,0,1,.442-.974l-.288-.1c-.294,1-1.08,2.505-2.155,2.819-1.372.41-1.134-1.29-.883-2.048a8.436,8.436,0,0,1,1.309-2.449,2.728,2.728,0,0,1,.354-.407c.279-.251.36-.313.749-.091s.407.344.313.764a2.307,2.307,0,0,1-.257.592,3.931,3.931,0,0,1-.921.983c-.05.041.022.175.078.135Z" transform="translate(-145.599 -206.862)"/></g></g><g transform="translate(84.077 41.93)"><g transform="translate(0 0)"><path class="q" d="M305.671,240.269c-1.134-.269-2.383.539-3.113,2.318s-2.192,6.326-2.505,7.516c-.138.532,3.908,5.249,3.758,5.18-.044-.022,1.318-2.3,1.318-2.3l-1.964-3.022,1.253-3.279Z" transform="translate(-300.049 -219.364)"/><path class="m" d="M309.105,369.2c-.153.059-.194.351-.216.939-.019.442-.113,1.209.4,1.362a1.62,1.62,0,0,0,1.6-.338,20.391,20.391,0,0,1,1.281-1.607,4.488,4.488,0,0,0,1.268-1.832c.188-.7.031-1-.442-1.2-.655-.276-1.679.626-2.192.773C310.377,367.419,309.258,369.144,309.105,369.2Z" transform="translate(-306.108 -306.08)"/><path class="q" d="M309.62,372.89v.714a1.754,1.754,0,0,0,1.807.05c.031-.069.188-1.024.188-1.024Z" transform="translate(-306.623 -310.308)"/><path class="m" d="M325.618,387.31a12.008,12.008,0,0,0-.313,1.165,3.082,3.082,0,0,0-.063,1.478c.154.323.739.536,1.657.529a5.433,5.433,0,0,1,2.148.752,3.314,3.314,0,0,0,2.051.285,2.594,2.594,0,0,0,1.791-.905c.132-.335-.038-.5-1.957-1.319a10.84,10.84,0,0,1-2.953-1.939Z" transform="translate(-317.302 -320.39)"/><path class="q" d="M326.6,384.84v.833c0,.3.357.755,1.284.723.651-.025,1.105-.2,1.077-.736v-.77Z" transform="translate(-318.285 -318.694)"/><path class="h" d="M307.23,298.731a16.98,16.98,0,0,1,.874-3.677s-.4-3.163-.626-6.2c-.417-5.446-.081-7.225.99-9.668,0,0,9.135-.94,9.414,2.872a151.6,151.6,0,0,1-.238,15.537,58.174,58.174,0,0,1-.871,5.913c-.451,2.656-1.146,8.747-1.146,8.747a2.505,2.505,0,0,1-2.361-.05s-.745-7.6-.667-9.53a16.373,16.373,0,0,1,.717-4.2s-.567-7.707-.73-8.935c0,0-.288,2.446-.413,4.115s-.626,3.266-1.1,6.37c-.42,2.69-1.2,8.706-1.2,8.706a1.589,1.589,0,0,1-1.935-.085S306.9,301.064,307.23,298.731Z" transform="translate(-304.938 -246.058)"/><g class="r" transform="translate(2.229 33.025)"><path d="M307.23,298.731a16.98,16.98,0,0,1,.874-3.677s-.4-3.163-.626-6.2c-.417-5.446-.081-7.225.99-9.668,0,0,9.135-.94,9.414,2.872a151.6,151.6,0,0,1-.238,15.537,58.174,58.174,0,0,1-.871,5.913c-.451,2.656-1.146,8.747-1.146,8.747a2.505,2.505,0,0,1-2.361-.05s-.745-7.6-.667-9.53a16.373,16.373,0,0,1,.717-4.2s-.567-7.707-.73-8.935c0,0-.288,2.446-.413,4.115s-.626,3.266-1.1,6.37c-.42,2.69-1.2,8.706-1.2,8.706a1.589,1.589,0,0,1-1.935-.085S306.9,301.064,307.23,298.731Z" transform="translate(-307.167 -279.083)"/></g><path class="q" d="M325.163,234.987l-.429,3.53-3.1-.279.354-3.918Z" transform="translate(-314.871 -215.313)"/><path class="c" d="M308.518,242.114a2.657,2.657,0,0,1,2.7-1.741l.877.16c.025.814,1.566,1.234,3.088.742.457.132.88.266,1.253.4,1.093.391,1.531,2.192,1.566,5.243s.348,10.607.348,10.607l-1.293.41-.6-2.214-.241,2.653a9.511,9.511,0,0,1-4.413-.022c-3.282-.717-4.3-2.487-4.3-2.487a16.019,16.019,0,0,1,2.349-5.741C308.208,245.75,308.014,243.5,308.518,242.114Z" transform="translate(-305.167 -219.449)"/><path class="m" d="M321.319,212.884a2.728,2.728,0,0,0-.235-2.624c-1.043-1.635-3.05-1.913-5.43-1.275a4.219,4.219,0,0,0-2.978,3.833c-.116,1.744,4.754,3.032,4.641,4.228Z" transform="translate(-308.72 -197.695)"/><path class="s" d="M340.61,224.25s.661,1.059.567,1.168a1.651,1.651,0,0,1-.532.213Z" transform="translate(-327.907 -208.397)"/><path class="q" d="M323.937,212.854c.658.363,1.8,1.033,2.029,3.508.238,2.537-.351,3.4-.7,3.724a3.261,3.261,0,0,1-2.064.056,6.533,6.533,0,0,1-3.216-2.477c-.9-1.566-1.034-3.617.069-4.384A4.037,4.037,0,0,1,323.937,212.854Z" transform="translate(-313.248 -200.355)"/><path class="m" d="M319.595,211.714a6.742,6.742,0,0,1-.219,3.758s-.382-.911-1.165-.673-.742,1.281-.144,1.829a1.159,1.159,0,0,0,1.2.288,5.2,5.2,0,0,1-1.162,1.754,3.809,3.809,0,0,1-4.316-1.231c-1.82-2.051-1.481-5.637,1.3-6.473A4.759,4.759,0,0,1,319.595,211.714Z" transform="translate(-308.712 -199.106)"/><path class="m" d="M312.047,214.368a.545.545,0,0,1,.06.767l-.827-.711a.542.542,0,0,1,.767-.056Z" transform="translate(-307.763 -201.518)"/><path class="q" d="M361.13,254.687c.451-.514.626-1.66,1.221-2.443s.82-1.356,1.059-1.015c.313.454-.395,1.359-.238,1.45a4.712,4.712,0,0,1,.8,1.948c.06.664-1.7,2.33-1.7,2.33Z" transform="translate(-342.001 -226.858)"/><path class="q" d="M367.49,255.573a10.8,10.8,0,0,1,2.433,0c.31.182.216,1.1,0,1.666s-1.3.94-2.3,1.61C367.618,258.749,367.49,255.573,367.49,255.573Z" transform="translate(-346.369 -229.855)"/><path class="q" d="M333.272,244.33a4.005,4.005,0,0,1,2.562,2.286c1.093,2.058,3.085,6.085,3.085,6.085l2.48-2.684s.36-.507,1.03.6.376,1.416.376,1.416-2.884,3.865-3.414,4.356-1.4.11-1.97-.664-4.15-5.255-4.15-5.255A5.73,5.73,0,0,1,333.272,244.33Z" transform="translate(-322.27 -222.188)"/><path class="t" d="M317.973,306.09l-.175-1.845a7.01,7.01,0,0,1-2.787-1.055,3.856,3.856,0,0,0,2.224,1.384l.169,2.349.1,3.852Z" transform="translate(-310.325 -262.615)"/><path class="m" d="M303.7,224.753h0a3.216,3.216,0,0,0,3.226-3.213v-4.882h0a2.455,2.455,0,0,0-3.213,2.336Z" transform="translate(-302.557 -203.1)"/><path class="b" d="M336.082,264.483s-1.782-2.3-2.352-3.223l2.415,5.1Z" transform="translate(-323.182 -233.816)"/><path class="u" d="M375.78,207.273c-.677,1.995-2.12,7.945-2.12,7.945s-2.753,3.661-3.511,4.359c-.42.388-1.369,1.087-1.369,1.087l.789.583s1.315-.4,1.425.313a40.064,40.064,0,0,0,3.883-3.57,2.506,2.506,0,0,0,.626-1.146l1.174-5.052s0-4.071.626-4.6.379-1.738.379-1.738C377.255,205.463,376.312,205.71,375.78,207.273Z" transform="translate(-347.255 -195.485)"/><path class="f" d="M381.62,204.81a11.3,11.3,0,0,0,.7,1.566c.276.473-1.832,8.976-1.973,9.608s-4.228,4.319-4.228,4.319a3.069,3.069,0,0,1-1.635-1.641l2.95-3.84s.918-4.027,1.4-5.875S379.826,205.01,381.62,204.81Z" transform="translate(-351.17 -195.045)"/><path class="j" d="M381.62,204.81a11.3,11.3,0,0,0,.7,1.566c.276.473-1.832,8.976-1.973,9.608s-4.228,4.319-4.228,4.319a3.069,3.069,0,0,1-1.635-1.641l2.95-3.84s.918-4.027,1.4-5.875S379.826,205.01,381.62,204.81Z" transform="translate(-350.927 -195.322)"/><rect class="u" width="2.036" height="3.489" transform="translate(37.046 49.723)"/><path class="u" d="M393.556,327.009l-2.036.072-.1-3.692,2.136-.069Z" transform="translate(-362.805 -276.441)"/><path class="i" d="M401.064,251.983c0,1.945.135,13.257.135,13.257a15.672,15.672,0,0,1,.626,3.57c.059,2.925-.392,9.812-.392,9.812a2.681,2.681,0,0,1-2.267.044s-1.6-9.74-1.964-12.637c-.313-2.524-1.419-9.267-1.419-9.267l-1.566,8.537a11.586,11.586,0,0,1,.254,3.238c-.1,1.337-1.337,8.042-1.337,8.042a2.781,2.781,0,0,1-2.352.182s-.122-10.526-.144-11.754c-.028-1.4.582-13.448.582-13.448Z" transform="translate(-362.267 -227.154)"/><path class="m" d="M412.614,339.687V339.4c-.11,0-.175.107-.219.366a5.282,5.282,0,0,1-.119.576,6.838,6.838,0,0,1-.354,1.043,6.315,6.315,0,0,1-1.19,1.8,7.706,7.706,0,0,0-.626.73c-.122.219-.166.827.044.968a3.538,3.538,0,0,0,2.762.285,1.672,1.672,0,0,0,1.2-1.347c.031-.188.019-.382.041-.57a2.718,2.718,0,0,1,.511-1.184,3.657,3.657,0,0,0,.391-.645,2.1,2.1,0,0,0-.075-1.306c-.094-.36-.2-.755-.313-.72v.219a1.6,1.6,0,0,1-1.021.344C413.334,339.972,412.61,339.912,412.614,339.687Z" transform="translate(-375.568 -287.48)"/><path class="m" d="M381.048,333.029c-.107,0-.191.153-.426.407a4.5,4.5,0,0,1-1.2.861c-.764.382-2.246.968-2.919,1.272-.42.188-.4.7.034.983a3.939,3.939,0,0,0,2.737.216c.683-.154,1.566-.786,2.139-.752a4.187,4.187,0,0,0,2.036-.263c.417-.288.251-.9.132-1.425-.128-.573-.288-1.472-.479-1.431v.2a2.21,2.21,0,0,1-2.045.251Z" transform="translate(-352.354 -283.017)"/><path class="m" d="M400.844,264.619A7.563,7.563,0,0,1,398,263a5.836,5.836,0,0,0,2.192,1.979l-.789,7.595Z" transform="translate(-367.324 -235.011)"/><path class="a" d="M398.447,205.051c.7.169,2.092.4,2.405,1.779a40.359,40.359,0,0,1,.5,5.268l.128,8.036c-1.4,1.021-6.555,1.566-9.508-.579,0,0,.363-9.646.363-11.149a3.235,3.235,0,0,1,3.132-3.445Z" transform="translate(-363.183 -195.148)"/><path class="f" d="M395.042,204.04a4.1,4.1,0,0,0-1.315,2.036c-.282,1.215-.313,14.785-.313,14.785a6.157,6.157,0,0,1-2.114-.8s.085-10.711.222-12.483c.21-2.684.188-3.445,3.529-3.743Z" transform="translate(-362.722 -194.379)"/><path class="f" d="M410,203.84s-1.92,1.181-1.942,5.881c-.019,4.071-.153,11.14-.153,11.14s3.179.467,5.192-.736c0,0,.241-9.853.2-11.378-.044-1.748-.451-4.006-1.012-4.231A15.99,15.99,0,0,0,410,203.84Z" transform="translate(-374.124 -194.379)"/><path class="u" d="M424.154,215.524c-1.91-7.811-3.323-10.416-5.637-10.385-.68.808-.492,3.257.579,4.741a54.362,54.362,0,0,1,2.768,6.827,25.31,25.31,0,0,1,.692,4.908.987.987,0,0,1-.266.642,5.093,5.093,0,0,0-.72,1.378c-.222.407-.463.561-.395.655a.532.532,0,0,0,.717.053,2.737,2.737,0,0,0,.542-.523,5.452,5.452,0,0,1-.429,1.45c-.492,1.106-.373,1.669,1.121,1.275.94-.247,1.522-1.024,1.66-3.273a17.053,17.053,0,0,0,.025-2.487A43.265,43.265,0,0,0,424.154,215.524Z" transform="translate(-381.142 -195.271)"/><path class="f" d="M417.557,204.727a3.562,3.562,0,0,1,2.371.774c.833.842,1.957,2.615,3.047,6.489a35.614,35.614,0,0,1,1.478,8.885,3.127,3.127,0,0,1-2.624-.088s-.557-3.373-1.052-5.167a48.519,48.519,0,0,0-2.339-5.575A6.791,6.791,0,0,1,417.557,204.727Z" transform="translate(-380.586 -194.987)"/><path class="j" d="M417.557,204.727a3.562,3.562,0,0,1,2.371.774c.833.842,1.957,2.615,3.047,6.489a35.614,35.614,0,0,1,1.478,8.885,3.127,3.127,0,0,1-2.624-.088s-.557-3.373-1.052-5.167a48.519,48.519,0,0,0-2.339-5.575A6.791,6.791,0,0,1,417.557,204.727Z" transform="translate(-380.422 -194.987)"/><path class="j" d="M411.784,212.05l-.88,1.087.442,1.24-1.156,2.963,1.391-2.963-.485-1.171Z" transform="translate(-375.696 -200.018)"/><path class="j" d="M394.23,210.93l.191,1.124-.761.993,1.059,3.332-.82-3.295.7-.927Z" transform="translate(-364.343 -199.249)"/><circle class="m" cx="2.8" cy="2.8" r="2.8" transform="translate(28.76 5.527) rotate(-80.78)"/><path class="m" d="M414.984,190.23s-.454,2.133-.626,2.483a.968.968,0,0,1-.557.448l.031-1.5Z" transform="translate(-378.176 -185.031)"/><path class="m" d="M415.108,180.466a1.049,1.049,0,0,1,.871.313c.373.382.166,1.566-.313,2.747l-.855.1Z" transform="translate(-378.87 -178.32)"/><path class="u" d="M400.668,180.737c.172.1.417-.229.626-.448a.742.742,0,0,1,1.253.2,1.55,1.55,0,0,1-.846,1.879c-.94.294-1.077-.313-1.077-.313l-.069,3.479h0c-.648.83-2.1,1.807-2.884,1.666-.626-.11-.761-1.165-.163-1.857v-1.021a5.829,5.829,0,0,1-1.253.063,1.716,1.716,0,0,1-1.331-1.394,10.005,10.005,0,0,1-.179-4.516c.313-2.581,3.313-2.606,4.933-1.588S400.668,180.737,400.668,180.737Z" transform="translate(-364.981 -175.438)"/><path class="m" d="M399.867,179.238c.088,0,.417-.542.626-.736.294-.269-.088-2.706-.088-2.706a1.181,1.181,0,0,0-.2-1.315c-.4-.445-.968-.99-2.819-.77-1.309.153-2.734.561-3.887,0a1.961,1.961,0,0,0,.683,2.083,3.906,3.906,0,0,0,1.513.4,16.183,16.183,0,0,0,3.038-.056c.313-.044.385.263.557,1.105C399.463,177.979,399.588,179.231,399.867,179.238Z" transform="translate(-364.18 -173.651)"/><path class="m" d="M415.621,179.151l1.037-.557a.573.573,0,0,0-.786-.26A.626.626,0,0,0,415.621,179.151Z" transform="translate(-379.383 -176.815)"/><path class="v" d="M403.93,199.081a11.874,11.874,0,0,0,2.073-.6,1.767,1.767,0,0,0,.742-.736,2.4,2.4,0,0,1-.423.867c-.391.5-2.393.871-2.393.871Z" transform="translate(-371.397 -190.196)"/><path class="m" d="M405.11,188.633a.313.313,0,1,0,.313-.313A.313.313,0,0,0,405.11,188.633Z" transform="translate(-372.207 -183.719)"/><path class="m" d="M406.15,185.156l.658.363a.4.4,0,0,0-.153-.526.366.366,0,0,0-.5.163Z" transform="translate(-372.922 -181.404)"/><path class="v" d="M402.832,196.11l-.7.263a.366.366,0,0,0,.476.235A.4.4,0,0,0,402.832,196.11Z" transform="translate(-370.161 -189.07)"/><path class="m" d="M396.179,185.07l.6-.463a.366.366,0,0,0-.523-.081.4.4,0,0,0-.078.545Z" transform="translate(-366.023 -181.061)"/><path class="m" d="M396.93,188.313a.313.313,0,1,0,.313-.313A.313.313,0,0,0,396.93,188.313Z" transform="translate(-366.589 -183.5)"/><path class="v" d="M399.6,188.11l-.1,1.851-.968-.329Z" transform="translate(-367.688 -183.575)"/><path class="h" d="M400.87,208.819c.188.451.539.626,1.168.7a2.352,2.352,0,0,0,1.748-.626l-.783-.78-1,.748-.085-.836Z" transform="translate(-369.295 -197.257)"/><path class="j" d="M400.87,208.819c.188.451.539.626,1.168.7a2.352,2.352,0,0,0,1.748-.626l-.783-.78-1,.748-.085-.836Z" transform="translate(-369.295 -197.257)"/><path class="h" d="M402.207,209.77a2.067,2.067,0,0,0-.1.842,1.43,1.43,0,0,0,.282.7.764.764,0,0,0,.676.075,1.86,1.86,0,0,0,.648-1.406l-.864.1Z" transform="translate(-370.138 -198.452)"/><path class="h" d="M400.661,214.69s-1.024,5.637-1.065,6.1.586,2.073.977,2.086,1.156-1.45,1.165-1.879-.4-6.248-.4-6.248Z" transform="translate(-368.419 -201.831)"/><path class="j" d="M403.7,214.765a.677.677,0,0,1-.677-.075v.091a.777.777,0,0,0,.7.138Z" transform="translate(-370.772 -201.831)"/><path class="b" d="M404.49,204.514l2.881-2.192v-.651s.67.254.821,1.434a5.055,5.055,0,0,1-2.245,2.39l-.6-1.077Z" transform="translate(-371.782 -192.889)"/><path class="b" d="M401.368,202.62a1.444,1.444,0,0,0-.94.573,7.186,7.186,0,0,0-.222,2.292l.689-.626.626.313c-.06-.6-.179-1.707-.179-1.707Z" transform="translate(-368.835 -193.541)"/><path class="u" d="M368,261.4a2.474,2.474,0,0,0,.454-1.287c.081-.592,1.7-1.228,1.757-.786a1.28,1.28,0,0,1-.313,1.344C369.384,261.206,368.755,261.8,368,261.4Z" transform="translate(-346.719 -232.387)"/><path class="u" d="M365.885,252.783a14.108,14.108,0,0,0-.833,1.8c-.207.329-.451.626,0,.673s1.105-.817,1.35-1.35a1.441,1.441,0,0,1,.42-.539.941.941,0,0,1,.235-.138c-.21-.072-.1-.918-.247-1.034C366.809,252.2,366.044,252.513,365.885,252.783Z" transform="translate(-344.519 -227.594)"/></g></g></g></svg>