<svg xmlns="http://www.w3.org/2000/svg" width="124.808" height="135.405" viewBox="0 0 124.808 135.405"><defs><style>.a{fill:#f5f5f5;}.b{fill:#e0e0e0;}.c{fill:#407bff;}.d,.f{fill:#0082c3;}.d,.h{opacity:0.1;}.e,.g{fill:#fff;}.g{opacity:0.4;}.i{fill:#ebebeb;}.j{fill:#fafafa;}.k{fill:#0782cb;}.l{fill:#37474f;}.m{fill:#455a64;}.n{fill:#263238;}.o{opacity:0.15;}.p{fill:#ffa8a7;}.q{fill:#f28f8f;}.r{fill:#b16668;}.s{fill:#9a4a4d;}</style></defs><g transform="translate(0 69.629)"><path class="a" d="M62.581,312.524c24.369,12.846,63.88,12.846,88.249,0s24.372-33.667,0-46.51-63.88-12.846-88.252,0S38.208,299.672,62.581,312.524Z" transform="translate(-44.3 -256.381)"/></g><g transform="translate(7.56 78.618)"><path class="b" d="M69.565,317.18l1.131.65a1.449,1.449,0,0,0,1.31,0l52.271-30.177a.4.4,0,0,0,0-.753l-1.122-.641a1.449,1.449,0,0,0-1.31,0l-52.28,30.164a.4.4,0,0,0,0,.756Z" transform="translate(-69.294 -286.103)"/><ellipse class="b" cx="15.952" cy="8.744" rx="15.952" ry="8.744" transform="translate(59.78 24.459)"/><ellipse class="b" cx="12.307" cy="6.748" rx="12.307" ry="6.748" transform="translate(81.854 4.657)"/></g><g transform="translate(107.535 73.396)"><path class="c" d="M400.509,278.683a13.548,13.548,0,0,1,2.641-6.784c1.579-2.026,4.08-3.524,5.88-2.931,1.676.551,1.512,2.74-.487,4.213s-5.024,3.327-5.886,5.85l-1.83,3.1Z" transform="translate(-400.305 -268.837)"/><path class="d" d="M400.509,278.683a13.548,13.548,0,0,1,2.641-6.784c1.579-2.026,4.08-3.524,5.88-2.931,1.676.551,1.512,2.74-.487,4.213s-5.024,3.327-5.886,5.85l-1.83,3.1Z" transform="translate(-400.305 -268.837)"/><path class="e" d="M399.951,283.219a.115.115,0,0,0,.1-.094c.971-5.287,5.187-9.624,7.728-10.6a.115.115,0,0,0,.067-.148.112.112,0,0,0-.145-.063c-2.592,1-6.887,5.4-7.864,10.774a.112.112,0,0,0,.091.13Z" transform="translate(-399.834 -271.256)"/><path class="f" d="M402.114,299.533a7.789,7.789,0,0,1,2.982-3.524c1.884-1.331,4.28-1.963,4.821-2.988.65-1.234-.4-2.377-2.344-2.117s-5.341,2.967-5.844,6.978Z" transform="translate(-401.157 -284.204)"/><path class="e" d="M401.384,301.088a.115.115,0,0,0,.1-.076c1.561-4.537,4.991-6.164,6.585-6.391a.115.115,0,0,0,.1-.127.112.112,0,0,0-.127-.1c-1.763.251-5.172,1.909-6.769,6.542a.112.112,0,0,0,.07.142A.091.091,0,0,0,401.384,301.088Z" transform="translate(-400.829 -286.666)"/></g><g transform="translate(8.345 0)"><path class="f" d="M72.785,135.108l-.23-.133a1.47,1.47,0,0,1-.665-1.149V56.317a1.479,1.479,0,0,1,.665-1.152L122.5,26.334a1.473,1.473,0,0,1,1.331,0l.227.133a1.467,1.467,0,0,1,.665,1.152v77.506a1.467,1.467,0,0,1-.665,1.152L74.116,135.108a1.473,1.473,0,0,1-1.331,0Z" transform="translate(-71.89 -26.175)"/><path class="g" d="M125.168,27.513c-.045-.345-.324-.472-.656-.281L74.566,56.066a1.373,1.373,0,0,0-.469.5l-1.558-.907a1.391,1.391,0,0,1,.472-.5l49.939-28.825a1.473,1.473,0,0,1,1.331,0l.23.133A1.512,1.512,0,0,1,125.168,27.513Z" transform="translate(-72.343 -26.175)"/><path class="h" d="M74.025,203.166a1.479,1.479,0,0,1-1.21-.051l-.233-.133a1.467,1.467,0,0,1-.662-1.152V124.323a1.337,1.337,0,0,1,.194-.653l1.558.907a1.394,1.394,0,0,0-.215.644V202.73C73.456,203.112,73.711,203.29,74.025,203.166Z" transform="translate(-71.911 -94.181)"/><g transform="translate(6.554 6.594)"><g transform="translate(0 31.571)"><path class="i" d="M94.455,195.112l-.23-.133a1.47,1.47,0,0,1-.665-1.149V179.9a1.476,1.476,0,0,1,.665-1.152l45.342-26.2a1.467,1.467,0,0,1,1.328,0l.23.133a1.467,1.467,0,0,1,.665,1.152v13.931a1.461,1.461,0,0,1-.665,1.149l-45.339,26.2A1.473,1.473,0,0,1,94.455,195.112Z" transform="translate(-93.56 -152.376)"/><path class="j" d="M142.238,153.7c-.045-.345-.324-.472-.659-.281L96.236,179.626a1.373,1.373,0,0,0-.469.5l-1.558-.907a1.364,1.364,0,0,1,.472-.5l45.339-26.2a1.467,1.467,0,0,1,1.328,0l.23.133A1.491,1.491,0,0,1,142.238,153.7Z" transform="translate(-94.013 -152.355)"/><path class="b" d="M95.685,257.112a1.473,1.473,0,0,1-1.21-.054l-.236-.13a1.482,1.482,0,0,1-.659-1.152V241.843a1.337,1.337,0,0,1,.194-.653l1.558.907a1.394,1.394,0,0,0-.2.653v13.934C95.132,257.054,95.374,257.233,95.685,257.112Z" transform="translate(-93.574 -214.321)"/><path class="k" d="M111.291,237.927c2.586-1.494,4.682-.333,4.682,2.6a10.093,10.093,0,0,1-4.688,7.946c-2.589,1.461-4.685.3-4.685-2.6A10.2,10.2,0,0,1,111.291,237.927Z" transform="translate(-102.656 -211.59)"/></g><g transform="translate(0 50.46)"><path class="i" d="M94.455,257.532l-.23-.133a1.47,1.47,0,0,1-.665-1.149V242.318a1.476,1.476,0,0,1,.665-1.152l45.342-26.2a1.467,1.467,0,0,1,1.328,0l.23.133a1.464,1.464,0,0,1,.665,1.152v13.931a1.461,1.461,0,0,1-.665,1.149l-45.339,26.2A1.473,1.473,0,0,1,94.455,257.532Z" transform="translate(-93.56 -214.805)"/><path class="j" d="M142.238,216.168c-.045-.345-.324-.469-.659-.278L96.236,242.1a1.388,1.388,0,0,0-.469.493l-1.558-.907a1.343,1.343,0,0,1,.472-.475L140.021,215a1.467,1.467,0,0,1,1.328,0l.23.133A1.485,1.485,0,0,1,142.238,216.168Z" transform="translate(-94.013 -214.833)"/><path class="b" d="M95.685,319.529a1.473,1.473,0,0,1-1.21-.051l-.236-.133a1.473,1.473,0,0,1-.659-1.152V304.263a1.328,1.328,0,0,1,.194-.653l1.558.907a1.415,1.415,0,0,0-.2.656v13.934C95.132,319.474,95.374,319.653,95.685,319.529Z" transform="translate(-93.574 -276.75)"/><path class="k" d="M111.291,300.347c2.586-1.494,4.682-.333,4.682,2.6a10.093,10.093,0,0,1-4.688,7.946c-2.589,1.461-4.685.3-4.685-2.6A10.2,10.2,0,0,1,111.291,300.347Z" transform="translate(-102.656 -274.019)"/></g><path class="i" d="M94.455,90.732l-.23-.133a1.476,1.476,0,0,1-.665-1.152V75.527a1.47,1.47,0,0,1,.665-1.149l45.342-26.214a1.467,1.467,0,0,1,1.328,0l.23.133a1.461,1.461,0,0,1,.665,1.149V63.378a1.467,1.467,0,0,1-.665,1.152l-45.339,26.2A1.473,1.473,0,0,1,94.455,90.732Z" transform="translate(-93.56 -47.996)"/><path class="j" d="M142.238,49.319c-.045-.345-.324-.469-.659-.278L96.236,75.246a1.34,1.34,0,0,0-.469.493l-1.558-.907a1.334,1.334,0,0,1,.472-.5l45.339-26.2a1.467,1.467,0,0,1,1.328,0l.23.133A1.485,1.485,0,0,1,142.238,49.319Z" transform="translate(-94.013 -47.975)"/><path class="b" d="M95.678,152.743a1.473,1.473,0,0,1-1.21-.051l-.236-.133a1.473,1.473,0,0,1-.662-1.158V137.486a1.337,1.337,0,0,1,.194-.656l1.558.907a1.4,1.4,0,0,0-.2.656v13.913C95.125,152.688,95.367,152.863,95.678,152.743Z" transform="translate(-93.567 -109.955)"/><path class="k" d="M111.291,133.547c2.586-1.494,4.682-.333,4.682,2.592a10.108,10.108,0,0,1-4.688,7.949c-2.589,1.464-4.685.3-4.685-2.6A10.207,10.207,0,0,1,111.291,133.547Z" transform="translate(-102.656 -107.21)"/><g transform="translate(3.188 17.694)"><path class="l" d="M105,149.205l-.23-.133a1.467,1.467,0,0,1-.665-1.152V133.988a1.473,1.473,0,0,1,.665-1.152l45.339-26.2a1.473,1.473,0,0,1,1.331,0l.23.13a1.479,1.479,0,0,1,.665,1.152v13.931a1.476,1.476,0,0,1-.665,1.152l-45.342,26.205A1.467,1.467,0,0,1,105,149.205Z" transform="translate(-104.1 -106.475)"/><path class="m" d="M152.778,107.813c-.045-.345-.324-.472-.659-.278L106.776,133.74a1.373,1.373,0,0,0-.472.493l-1.555-.907a1.358,1.358,0,0,1,.469-.5l45.339-26.193a1.473,1.473,0,0,1,1.331,0l.23.13A1.491,1.491,0,0,1,152.778,107.813Z" transform="translate(-104.553 -106.475)"/><path class="n" d="M106.225,211.2a1.479,1.479,0,0,1-1.21-.051l-.233-.133a1.473,1.473,0,0,1-.662-1.152V195.933a1.34,1.34,0,0,1,.2-.653l1.555.907a1.388,1.388,0,0,0-.194.653v13.934C105.672,211.144,105.9,211.323,106.225,211.2Z" transform="translate(-104.114 -168.42)"/><path class="a" d="M121.831,192.021c2.586-1.491,4.682-.33,4.682,2.6a10.108,10.108,0,0,1-4.688,7.949c-2.589,1.464-4.688.3-4.685-2.6A10.216,10.216,0,0,1,121.831,192.021Z" transform="translate(-113.196 -165.693)"/><path class="c" d="M126.5,194.53a.508.508,0,0,1-.575.027L123.87,193c-.275-.209-.242-.78.076-1.282s.8-.738,1.071-.529l1.434,1.086,3.983-8.557c.248-.535.723-.907,1.062-.8s.411.6.16,1.131l-4.549,9.77a1.642,1.642,0,0,1-.584.693Z" transform="translate(-117.76 -159.785)"/></g></g></g><g transform="translate(47.143 34.519)"><path class="c" d="M219.33,163.6l-1.316-.759h0a1.7,1.7,0,0,0-1.639.224l-.832-.463h0c-1-.6-2.38.656-2.689.956l-.357-.2h0c-1.056-.635-2.976,1.068-2.976,1.068v-6.358l.835-.4-1.328-.768h0a1.189,1.189,0,0,0-1.18.124h0a3.726,3.726,0,0,0-1.688,2.922v14.691a4.964,4.964,0,0,0-3.63-1.249,3.654,3.654,0,0,0-2.2,1.512c-.557.986.363,1.6,1.549,2.958s2.214,2.964,3.285,3.962a5.792,5.792,0,0,0,1.848,1.258v1.912l1.3.753,8.614-6.476v-1.915s1.228-4.906,1.621-6.957c.378-1.972.726-5.121.076-6.754l.7-.048Z" transform="translate(-200.168 -151.805)"/><path class="g" d="M219.33,163.6l-1.316-.759h0a1.7,1.7,0,0,0-1.639.224l-.832-.463h0c-1-.6-2.38.656-2.689.956l-.357-.2h0c-1.056-.635-2.976,1.068-2.976,1.068v-6.358l.835-.4-1.328-.768h0a1.189,1.189,0,0,0-1.18.124h0a3.726,3.726,0,0,0-1.688,2.922v14.691a4.964,4.964,0,0,0-3.63-1.249,3.654,3.654,0,0,0-2.2,1.512c-.557.986.363,1.6,1.549,2.958s2.214,2.964,3.285,3.962a5.792,5.792,0,0,0,1.848,1.258v1.912l1.3.753,8.614-6.476v-1.915s1.228-4.906,1.621-6.957c.378-1.972.726-5.121.076-6.754l.7-.048Z" transform="translate(-200.168 -151.805)"/><path class="c" d="M209.616,222.648l-6.515-3.76-2.852-1.648c-.363.889.517,1.512,1.63,2.786,1.177,1.346,2.214,2.964,3.285,3.962a5.791,5.791,0,0,0,1.848,1.258v1.9l1.3.753,1.9-1.431C209.97,224.856,209.616,222.648,209.616,222.648Z" transform="translate(-200.166 -193.969)"/><path class="c" d="M221.291,167.973l-1.3-.753v15.41l1.3.033Z" transform="translate(-213.994 -159.079)"/><path class="c" d="M255.06,178.538l1.01-.744c-.024-.067-.042-.133-.07-.2l.369-.024-.811-.036-1.352-.747a3.208,3.208,0,0,0-.457.227l.423.245Z" transform="translate(-237.543 -165.754)"/><path class="c" d="M243.39,178.352l.947-.72-1.307-.792a5.747,5.747,0,0,0-.88.7l.907.526Z" transform="translate(-229.451 -165.789)"/><path class="c" d="M236.725,179.838l-1.295-.756.006-.012v1.636l1.506-.551Z" transform="translate(-224.764 -167.344)"/><g class="o" transform="translate(0 8.141)"><path d="M209.616,222.648l-6.515-3.76-2.852-1.648c-.363.889.517,1.512,1.63,2.786,1.177,1.346,2.214,2.964,3.285,3.962a5.791,5.791,0,0,0,1.848,1.258v1.9l1.3.753,1.9-1.431C209.97,224.856,209.616,222.648,209.616,222.648Z" transform="translate(-200.166 -202.111)"/><path d="M221.291,167.973l-1.3-.753v15.41l1.3.033Z" transform="translate(-213.994 -167.22)"/><path d="M255.06,178.538l1.01-.744c-.024-.067-.042-.133-.07-.2l.369-.024-.811-.036-1.352-.747a3.208,3.208,0,0,0-.457.227l.423.245Z" transform="translate(-237.543 -173.895)"/><path d="M243.39,178.352l.947-.72-1.307-.792a5.747,5.747,0,0,0-.88.7l.907.526Z" transform="translate(-229.451 -173.93)"/><path d="M236.725,179.838l-1.295-.756.006-.012v1.636l1.506-.551Z" transform="translate(-224.764 -175.486)"/></g><path class="f" d="M211.307,187.489v-1.915a5.8,5.8,0,0,1-1.845-1.27c-1.071-1-2.117-2.619-3.285-3.962s-2.117-1.975-1.549-2.958a3.654,3.654,0,0,1,2.2-1.512,5,5,0,0,1,3.63,1.249V162.44a3.726,3.726,0,0,1,1.685-2.922h0c.932-.538,1.688-.1,1.688.974v6.415s2.326-2.063,3.264-.8c0,0,2.287-2.392,3.327-.372,0,0,1.676-1.352,2.42.218s.393,4.891,0,6.941-1.624,6.957-1.624,6.957v1.915Z" transform="translate(-203.161 -153.545)"/><path class="m" d="M235.436,185.22s.212-2.928,1.288-3.63h-.039a7.137,7.137,0,0,0-1.249.856v-.054a.063.063,0,0,0,0,.054Z" transform="translate(-224.764 -169.102)"/><path class="m" d="M246.25,180.131v2.68s.3-2.755.907-3.421A5.345,5.345,0,0,0,246.25,180.131Z" transform="translate(-232.311 -167.568)"/><path class="m" d="M257.21,179.647h0v2.689s.163-2.707.747-3.106A2.938,2.938,0,0,0,257.21,179.647Z" transform="translate(-239.956 -167.456)"/><path class="i" d="M224.661,144.657h0c-.212.121-.381.051-.381-.16V142.38a.786.786,0,0,1,.381-.6h0c.209-.121.378-.048.378.16v2.117a.783.783,0,0,1-.378.6Z" transform="translate(-216.986 -141.289)"/><path class="i" d="M210.67,159.428h0c-.148.254-.387.393-.535.3l-1.231-.711c-.148-.085-.148-.363,0-.6h0c.148-.257.387-.4.535-.3l1.231.711C210.83,158.893,210.83,159.171,210.67,159.428Z" transform="translate(-206.183 -152.705)"/><path class="i" d="M204.928,176.516v.06a.841.841,0,0,1-.408.641l-1.682.971c-.224.13-.408.054-.408-.172v-.061a.85.85,0,0,1,.408-.641l1.682-.971C204.747,176.213,204.928,176.289,204.928,176.516Z" transform="translate(-201.745 -165.398)"/><path class="i" d="M240.38,156.111v-.061a.841.841,0,0,1,.408-.644l1.682-.971c.224-.13.408-.051.408.172v.06a.85.85,0,0,1-.408.641l-1.682.971C240.568,156.41,240.38,156.334,240.38,156.111Z" transform="translate(-228.217 -150.117)"/><path class="i" d="M235.744,143.357h0c-.148-.085-.148-.36,0-.6l1.231-2.117c.148-.257.387-.4.535-.3h0c.148.088.148.363,0,.62l-1.231,2.117C236.143,143.306,235.9,143.445,235.744,143.357Z" transform="translate(-224.905 -140.303)"/></g><g transform="translate(82.293 24.068)"><path class="n" d="M385.445,314.425v-.345a8.361,8.361,0,0,1-1.718,3.025c-.759.693-1.8,1.491-2.06,2.262s1.443,1.074,2.15.95a4.332,4.332,0,0,0,2.471-1.328c.408-.5.668-1.095.959-1.491s.962-.832,1.122-1.288a2.953,2.953,0,0,0-.139-1.264c-.121-.463-.233-.892-.378-.853v.266a1.911,1.911,0,0,1-1.21.405C386.286,314.764,385.442,314.691,385.445,314.425Z" transform="translate(-361.9 -251.068)"/><path class="p" d="M385.659,313.166c.236-.209.475-.414.69-.6a6.983,6.983,0,0,0,1.467-2.344,3.328,3.328,0,0,0,.251-1.267v-1.37h2.42v2.232h0v.061h0a16.325,16.325,0,0,1-1.848,2.7,3.479,3.479,0,0,1-2.175,1.449C385.535,314.14,385.072,313.853,385.659,313.166Z" transform="translate(-364.522 -246.534)"/><path class="n" d="M354.408,306.575v-.345a8.331,8.331,0,0,1-1.721,3.025c-.759.693-1.8,1.494-2.06,2.265s1.443,1.074,2.151.947a4.327,4.327,0,0,0,2.471-1.325c.408-.5.668-1.1.959-1.491s.965-.835,1.122-1.292a2.939,2.939,0,0,0-.139-1.261c-.121-.463-.233-.907-.378-.856v.263a1.9,1.9,0,0,1-1.21.408C355.258,306.914,354.4,306.844,354.408,306.575Z" transform="translate(-340.249 -245.593)"/><path class="p" d="M354.624,305.319c.233-.212.472-.414.687-.6a6.994,6.994,0,0,0,1.467-2.347,3.3,3.3,0,0,0,.254-1.264V299.73h2.4v2.232h0v.06h0a15.6,15.6,0,0,1-1.848,2.7,3.467,3.467,0,0,1-2.175,1.449C354.5,306.29,354.034,306.006,354.624,305.319Z" transform="translate(-342.872 -241.058)"/><path class="l" d="M372.376,190.19c1.866,4.074-.07,18.432-.07,18.432a26.867,26.867,0,0,1,1.095,4.873c.333,3.439-.523,12.074-.523,12.074a2.6,2.6,0,0,1-2.42.1s-2.293-13.006-2.722-16.424c-.381-2.985-1.113-9.54-1.113-9.54l-2.054,9.528a17.839,17.839,0,0,1,.65,2.946c.2,2.011-1.754,11.376-1.754,11.376a5.378,5.378,0,0,1-2.4.073s-.69-12.428-.871-14.851c-.3-4.068.774-16.765,1.512-19.173Z" transform="translate(-346.902 -164.239)"/><path class="n" d="M371.591,210.521l-.605-3.787a9.54,9.54,0,0,1-3.726-1.624,6.618,6.618,0,0,0,3.025,2.014l.681,2.916-1.189,8.823Z" transform="translate(-351.87 -175.057)"/><path class="p" d="M334.577,144.073a3.457,3.457,0,0,0-3.064,1.373c-.962,1.258-4.649,6.049-4.649,6.049s-5.444-2.722-5.7-3.043-.115-.974-.042-1.331.2-1.158.275-1.382c.139-.39-.439-.284-.78.082s-.49,1.08-.662,1.21-1.461-1.364-2.09-2.081-.907-1.21-1.34-.923c-.3.212-.109.638.342,1.252a8.315,8.315,0,0,1,.581.817c.051.109-.112.2-.178.257-.121.109-.339.3-.354.457a1.421,1.421,0,0,1-.018.278c-.057.206-.3.3-.381.5a2.513,2.513,0,0,0-.024.457c-.018.1-.073.185-.091.284a.674.674,0,0,0,.2.526,5.032,5.032,0,0,0,1.618,1.047c.481.266.977.381,1.53.626s6.972,4.7,7.988,4.135S334,148.011,334,148.011C335.512,145.5,334.577,144.073,334.577,144.073Z" transform="translate(-316.377 -132.392)"/><path class="a" d="M372.022,144.477h0c2.389.166,2.559,1.322,3.158,2.583a4.1,4.1,0,0,1,.112,3.085l-1.673,4.821s.78,1.887,1.688,3.669c-4.183,2.335-9.407,1.107-10.665-.6-.054-.363.269-3.188.469-5.033a6.516,6.516,0,0,1-.62-4.234c.578-2.268,2.816-4.476,3.808-4.4Z" transform="translate(-349.838 -132.684)"/><path class="n" d="M370.873,115.562h.929a4.891,4.891,0,0,0,4.891-4.9h0a4.918,4.918,0,0,0-4.918-4.915H370.9a4.915,4.915,0,0,0-4.9,4.915h0A4.888,4.888,0,0,0,370.873,115.562Z" transform="translate(-350.991 -105.75)"/><path class="n" d="M403.339,125.777h0a2.892,2.892,0,0,1-2.888-2.889V116.7h0a2.888,2.888,0,0,1,2.888,2.892Z" transform="translate(-375.021 -113.388)"/><path class="n" d="M400.533,113.08l-.723,1.161a.665.665,0,0,0,.944-.191A.723.723,0,0,0,400.533,113.08Z" transform="translate(-374.575 -110.863)"/><path class="p" d="M368.994,112.93c-.566.333-1.264,1.754-1.195,4.737.057,2.529.877,3.152,1.288,3.327a4.393,4.393,0,0,0,1.975-.06v1.512s-1.065,1.237-1,1.933,1.54.859,2.538.181a6.505,6.505,0,0,0,1.636-1.715v-3.654a.965.965,0,0,0,1.37.13,1.814,1.814,0,0,0,.39-2.468,1.1,1.1,0,0,0-1.76.351,6.092,6.092,0,0,1-2.867-.853A4.6,4.6,0,0,1,368.994,112.93Z" transform="translate(-352.242 -110.758)"/><path class="n" d="M378.069,125.792a.318.318,0,1,0,.336-.3A.33.33,0,0,0,378.069,125.792Z" transform="translate(-359.409 -119.519)"/><path class="q" d="M375.158,133.58l-.738.233a.381.381,0,0,0,.478.266.405.405,0,0,0,.26-.5Z" transform="translate(-356.864 -125.162)"/><path class="n" d="M369.311,121.831l.641-.448a.375.375,0,0,0-.532-.109A.411.411,0,0,0,369.311,121.831Z" transform="translate(-353.256 -116.532)"/><path class="n" d="M370,125.007a.321.321,0,0,0,.3.345.33.33,0,1,0-.3-.345Z" transform="translate(-353.779 -118.964)"/><path class="q" d="M372.639,125.13l-.051,1.915-1.007-.312Z" transform="translate(-354.883 -119.268)"/><path class="q" d="M378.6,136.536c.814-.106,2.486-.587,2.746-1.246a1.724,1.724,0,0,1-.587.844,8.825,8.825,0,0,1-2.16.907Z" transform="translate(-359.78 -126.355)"/><path class="h" d="M375.612,165.909a2.526,2.526,0,0,0,1.881-3.082.907.907,0,0,0-.889-.693h0a2.444,2.444,0,0,0,1.047-1.558l.508-3.025a3.49,3.49,0,0,0-.13-1.467l1.682-1.945.3.215a4.18,4.18,0,0,1-.07,2.607l-1.664,4.824s.78,1.887,1.688,3.669a10.813,10.813,0,0,1-8.938.6,12.234,12.234,0,0,0,4.582-.151Z" transform="translate(-354.5 -139.504)"/><path class="p" d="M398.914,157.225c-2.172-8.877-3.778-11.838-6.415-11.8-.771.907-.557,3.7.659,5.39,0,0,2.722,5.726,3.149,7.761a28.849,28.849,0,0,1,.783,5.574,1.122,1.122,0,0,1-.3.732,5.869,5.869,0,0,0-.82,1.564c-.251.466-.526.641-.448.744a.6.6,0,0,0,.817.06,3.1,3.1,0,0,0,.6-.6,6.169,6.169,0,0,1-.49,1.648c-.557,1.255-.42,1.9,1.273,1.449,1.062-.281,1.73-1.164,1.89-3.72a19.685,19.685,0,0,0,.027-2.825A46.686,46.686,0,0,0,398.914,157.225Z" transform="translate(-369.16 -133.427)"/></g><g transform="translate(61.184 48.237)"><path class="r" d="M330.321,239.992c.233-8.641-.46-10.71-2.758-12.292l-.892,5.006a58.936,58.936,0,0,1,.935,7.864,26.926,26.926,0,0,1-.674,5.281,1.052,1.052,0,0,1-.457.6,5.878,5.878,0,0,0-1.264,1.21c-.345.363-.638.451-.6.566a.572.572,0,0,0,.729.26,4.116,4.116,0,0,0,.829-.451,5.262,5.262,0,0,1-.85,1.461c-.823,1.007-.859,1.627.8,1.642,1.037,0,1.866-.632,2.65-2.922a18.794,18.794,0,0,0,.729-2.574A44.435,44.435,0,0,0,330.321,239.992Z" transform="translate(-301.004 -214.983)"/><path class="f" d="M328,225.432a3.313,3.313,0,0,1,3.554,1.794c.965,1.724,1.21,4.691,1.31,7.64a4.685,4.685,0,0,1-4.213.814Z" transform="translate(-303.375 -213.371)"/><path class="h" d="M328,225.432a3.313,3.313,0,0,1,3.554,1.794c.965,1.724,1.21,4.691,1.31,7.64a4.685,4.685,0,0,1-4.213.814Z" transform="translate(-303.375 -213.33)"/><path class="n" d="M327.12,375.522c.172.067.218.4.245,1.059.018.5.127,1.373-.46,1.546a1.832,1.832,0,0,1-1.815-.384,19.592,19.592,0,0,0-1.452-1.815,5.068,5.068,0,0,1-1.44-2.075c-.212-.789-.036-1.131.5-1.361.738-.3,1.9.717,2.48.877C325.677,373.514,326.944,375.456,327.12,375.522Z" transform="translate(-299.267 -315.942)"/><path class="r" d="M333.452,379.943v.811a1.987,1.987,0,0,1-2.051.054c-.033-.079-.212-1.158-.212-1.158Z" transform="translate(-305.6 -320.974)"/><path class="n" d="M296.193,398.09a13.419,13.419,0,0,1,.357,1.322,3.606,3.606,0,0,1,.073,1.679c-.169.369-.841.6-1.881.6a6.177,6.177,0,0,0-2.435.85,6.6,6.6,0,0,1-3.067.487A2.923,2.923,0,0,1,287.21,402c-.151-.384.048-.777,2.226-1.706.021,0,3.025-.986,4.077-2.147Z" transform="translate(-274.895 -333.837)"/><path class="r" d="M310.849,395.19v.947c0,.342-.4.856-1.455.817-.738-.024-1.252-.224-1.21-.832v-.877Z" transform="translate(-289.551 -331.814)"/><path class="l" d="M310.984,295.786a22.186,22.186,0,0,0-.956-4.234s.287-3.63.426-7.1c.151-3.732,0-8.421.064-9.352,0,0-12.038-2.42-12.253,1.875s.475,15.292.6,17.186.469,3.572.862,6.654,1.467,10.187,1.467,10.187a2.843,2.843,0,0,0,2.68-.054s.847-8.623.759-10.81a18.691,18.691,0,0,0-.829-4.77s.227-3.557.429-6.654.414-4.579.46-5.922l.26-.13s.263,5.335.405,7.232.445,3.711.992,7.229c.478,3.055,1.893,9.512,1.893,9.512a1.807,1.807,0,0,0,2.2-.1S311.356,298.436,310.984,295.786Z" transform="translate(-282.605 -247.575)"/><path class="n" d="M319.67,295.8a25.188,25.188,0,0,0,4.383-2.737,9.665,9.665,0,0,1-3.14,2.758s-.632,6.63-.629,6.5l-.366-6.53Z" transform="translate(-297.565 -260.574)"/><path class="r" d="M311.08,219.2l.714,3.92,3.539-.257-.741-4.446Z" transform="translate(-291.573 -208.51)"/><path class="f" d="M310.125,227.535a2.984,2.984,0,0,0-3.055-1.975,40.125,40.125,0,0,0-5.928,1.479c-1.24.445-2.368,1.512-2.471,5.59,0,0-.414,9.5-.42,11.339a15.029,15.029,0,0,0,8.133.8c3.726-.814,4.174-2.359,4.174-2.359s.048-6.833-.064-9.785A29.437,29.437,0,0,0,310.125,227.535Z" transform="translate(-282.623 -213.466)"/><path class="r" d="M300.205,205.24s-.907,1.434-.789,1.57a2.394,2.394,0,0,0,.8.245Z" transform="translate(-283.429 -199.316)"/><path class="r" d="M304.456,191.633c-1.872.439-2.4,1.276-2.507,4.271-.115,3.127.227,4.1.647,4.513a4.263,4.263,0,0,0,2.6.064c.965-.3,3.146-1.119,4.138-2.722,1.168-1.875,1.431-4.386.112-5.387A6.127,6.127,0,0,0,304.456,191.633Z" transform="translate(-285.187 -189.669)"/><path class="s" d="M306.264,219.781c.635-.511.578-.841.578-.841a4.873,4.873,0,0,1-2.722.681A3.732,3.732,0,0,0,306.264,219.781Z" transform="translate(-286.718 -208.873)"/><path class="n" d="M301.214,188.4a3.829,3.829,0,0,0,1.742,1.391c.36.408.16,2.005.792,2.256,0,0,.272-1.161,1.249-1.037s1.143,1.37.541,2.141-1.18.5-1.18.5a5.107,5.107,0,0,0,.82,2.568,4.42,4.42,0,0,0,5.13-2.795c1.125-2.662,1.152-5.033-.544-5.7a2.516,2.516,0,0,0-2.271-1.96c-2.356-.484-3.875.986-5.689.859C300.764,186.54,300.57,187.293,301.214,188.4Z" transform="translate(-284.432 -185.656)"/><path class="n" d="M330.243,191.5l1.11-.69a.653.653,0,1,0-1.11.69Z" transform="translate(-304.871 -189.034)"/><path class="r" d="M265.2,230.48a4.52,4.52,0,0,0-2.68,1.718c-.919,1.391-4.9,6.382-4.9,6.382s-5.723-2.864-6-3.206-.124-1.025-.045-1.4.206-1.21.3-1.452c.145-.414-.463-.3-.823.082s-.517,1.137-.7,1.267-1.543-1.437-2.2-2.193-.971-1.285-1.415-.974c-.318.227-.112.675.36,1.322a7.308,7.308,0,0,1,.6.859c.057.115-.118.209-.185.269-.13.115-.357.3-.375.484a1.6,1.6,0,0,1,0,.3c-.064.215-.33.3-.405.526a2.571,2.571,0,0,0-.024.484c-.021.1-.076.194-.1.3a.723.723,0,0,0,.215.557,5.3,5.3,0,0,0,1.706,1.1c.505.281,1.028.4,1.612.662s7.444,5.329,8.514,4.74,6.557-7,6.557-7A4.431,4.431,0,0,0,265.2,230.48Z" transform="translate(-246.585 -216.922)"/><path class="f" d="M294.877,229.8a4.1,4.1,0,0,0-3.3,1.536,46.32,46.32,0,0,0-3.327,4.295,4.207,4.207,0,0,0,3.327,3.124,25.37,25.37,0,0,0,3.327-4.126C295.636,233.163,295.766,230.786,294.877,229.8Z" transform="translate(-275.648 -216.448)"/><path class="h" d="M294.877,229.8a4.1,4.1,0,0,0-3.3,1.536,46.32,46.32,0,0,0-3.327,4.295,4.207,4.207,0,0,0,3.327,3.124,25.37,25.37,0,0,0,3.327-4.126C295.636,233.163,295.766,230.786,294.877,229.8Z" transform="translate(-275.535 -216.496)"/></g></svg>