<svg xmlns="http://www.w3.org/2000/svg" width="25" height="25" viewBox="0 0 25 25"><defs><style>.a{fill:#fff;}.b{fill:#1d1e1f;}</style></defs><g transform="translate(0.313)"><circle class="a" cx="12.5" cy="12.5" r="12.5" transform="translate(-0.313)"/><g transform="translate(5.859 7.174)"><path class="b" d="M13.29,58.718a5.444,5.444,0,0,1-1.565.429,2.737,2.737,0,0,0,1.2-1.507,5.5,5.5,0,0,1-1.732.662,2.728,2.728,0,0,0-4.645,2.485A7.74,7.74,0,0,1,.927,57.939a2.729,2.729,0,0,0,.844,3.639,2.726,2.726,0,0,1-1.235-.342v.034a2.729,2.729,0,0,0,2.186,2.673,2.761,2.761,0,0,1-.718.1,2.616,2.616,0,0,1-.513-.051,2.728,2.728,0,0,0,2.546,1.893A5.47,5.47,0,0,1,.651,67.046,5.793,5.793,0,0,1,0,67.009,7.706,7.706,0,0,0,4.18,68.236a7.7,7.7,0,0,0,7.756-7.756l-.009-.353A5.444,5.444,0,0,0,13.29,58.718Z" transform="translate(-0.001 -57.441)"/></g></g></svg>