<svg xmlns="http://www.w3.org/2000/svg" width="151.259" height="140.477" viewBox="0 0 151.259 140.477"><defs><style>.a{fill:#f5f5f5;}.b{fill:#ebebeb;}.c{fill:#407bff;}.d,.n,.o{opacity:0.2;}.e,.l,.n{fill:#fff;}.f{fill:#0082c3;}.g{fill:#e0e0e0;}.h{fill:#f0f0f0;}.i{fill:#455a64;}.j{fill:#37474f;}.k{fill:#263238;}.l{opacity:0.7;}.m,.o{fill:#3362cc;}.m{opacity:0.1;}.p{fill:#ffa8a7;}.q{fill:#f28f8f;}.r{opacity:0.3;}</style></defs><g transform="translate(0 68.386)"><path class="a" d="M95.7,307.213c29.536,14.076,77.422,14.08,106.958,0s29.532-36.9,0-50.976-77.422-14.076-106.958,0S66.17,293.137,95.7,307.213Z" transform="translate(-73.551 -245.68)"/></g><g transform="translate(119.156 110.13)"><ellipse class="b" cx="9.85" cy="4.693" rx="9.85" ry="4.693" transform="translate(0)"/></g><g transform="translate(10.572 57.914)"><path class="c" d="M120,335.308l3.485-2.01a13.947,13.947,0,0,0,4.286-6.031c1.076-2.966.926-5.221.154-6.352-.947-1.393-3.4-1.149-3.5,1.783C124.218,328.476,122.533,332.484,120,335.308Z" transform="translate(-110.663 -277.726)"/><path class="d" d="M120,335.308l3.485-2.01a13.947,13.947,0,0,0,4.286-6.031c1.076-2.966.926-5.221.154-6.352-.947-1.393-3.4-1.149-3.5,1.783C124.218,328.476,122.533,332.484,120,335.308Z" transform="translate(-110.663 -277.726)"/><path class="e" d="M119.718,337.328a.214.214,0,0,1-.12-.39c8.058-5.572,6.5-13.343,6.481-13.42a.219.219,0,1,1,.429-.09c0,.081,1.646,8.118-6.652,13.862A.223.223,0,0,1,119.718,337.328Z" transform="translate(-110.381 -279.532)"/><path class="f" d="M100.571,336.291a2.587,2.587,0,0,1-.922-2.323c.291-1.337,1.076-2.3-.266-4.02s-1.714-4.02-.111-5.263c1.222-.964,3.129.4,3.815-2.143.506-1.86.334-5.979,2.7-7.351s3.858.694,3.485,3.489c-.326,2.5-.789,4.9-.429,5.572.694,1.286,1.882,1.11,1.826,3.459-.047,2.186-2.117,3.995-2.117,3.995Z" transform="translate(-98.216 -274.676)"/><path class="e" d="M112.522,337.732a.219.219,0,0,1-.214-.189c-.613-5.079.857-13.849,2.057-16.455a.214.214,0,0,1,.3-.12.21.21,0,0,1,.1.283c-1.187,2.572-2.606,11.367-2.019,16.223a.214.214,0,0,1-.189.236Z" transform="translate(-106.186 -278.212)"/><path class="e" d="M109.293,345.89a.179.179,0,0,1-.094-.021c-1.487-.724-2.43-3.309-2.469-3.429a.214.214,0,1,1,.4-.146c0,.026.922,2.529,2.255,3.176a.214.214,0,0,1-.094.407Z" transform="translate(-103.072 -290.327)"/><path class="e" d="M112.386,348.817a.21.21,0,0,1-.2-.137.214.214,0,0,1,.116-.279c2.5-1,4.063-3.982,4.08-4.016a.215.215,0,1,1,.381.2c-.069.129-1.65,3.155-4.286,4.218A.183.183,0,0,1,112.386,348.817Z" transform="translate(-106.191 -291.539)"/><path class="f" d="M314.019,276.251a15.453,15.453,0,0,1-2.057-6.331c-.184-3.3.54-4.668,1.534-5.062s1.072.819,1.582,1.534,1.552.309,1.937-1.924,1.792-6,4.715-6.734c3.215-.8,1.492,2.975.682,4.445s-1.436,3.476-.9,4.02,1.359-.463,2.143.472c.956,1.127-2.014,5.186-3.72,6.168Z" transform="translate(-220.33 -242.033)"/><path class="e" d="M322.516,277.809h0a.214.214,0,0,1-.206-.223,30.861,30.861,0,0,1,4.8-14.916.21.21,0,0,1,.3-.047.214.214,0,0,1,.047.3,30.467,30.467,0,0,0-4.715,14.689.214.214,0,0,1-.227.2Z" transform="translate(-226.259 -244.864)"/><path class="e" d="M320.687,288.163a.227.227,0,0,1-.1-.026,5.53,5.53,0,0,1-1.89-2.717.213.213,0,1,1,.4-.137,5.2,5.2,0,0,0,1.714,2.477.218.218,0,0,1,.081.291A.21.21,0,0,1,320.687,288.163Z" transform="translate(-224.186 -257.751)"/><path class="e" d="M323.567,285.248a.214.214,0,0,1-.206-.163.21.21,0,0,1,.154-.257c3.095-.784,4.166-2.4,4.175-2.422a.216.216,0,1,1,.364.232c-.047.073-1.162,1.774-4.432,2.606Z" transform="translate(-226.856 -256.135)"/><path class="c" d="M187.086,248.8s-4.11-1-4.325-8.7c-.227-8.307,1.007-18-3.858-18.786s-7.565,5.143-7.505,12.066c.056,6.061,2.5,19.219,15.67,21.8Z" transform="translate(-140.031 -221.247)"/><path class="d" d="M187.086,248.8s-4.11-1-4.325-8.7c-.227-8.307,1.007-18-3.858-18.786s-7.565,5.143-7.505,12.066c.056,6.061,2.5,19.219,15.67,21.8Z" transform="translate(-140.031 -221.247)"/><path class="e" d="M193.344,258.081H193.3a10.764,10.764,0,0,1-7.171-4.848c-5.323-7.942-3.648-22.773-3.095-25.361a.219.219,0,0,1,.253-.167.223.223,0,0,1,.167.257c-.544,2.572-2.212,17.213,3.03,25.031a10.338,10.338,0,0,0,6.892,4.663.214.214,0,0,1,.171.253A.21.21,0,0,1,193.344,258.081Z" transform="translate(-146.288 -224.935)"/><path class="f" d="M174.089,293.445c-4.248.574-11.144.566-15.126-2.572s-3.15-5.838-1.62-6.965,2.859-2.413.227-4.916-6.858-6.524-8.23-12.554-.694-9.8,2-11.058c2.61-1.217,3.3.72,4.9,4.715s5.195.57,8.272,1.817,2.953,3.716,3.146,5.838,1.209,2.709,2.953,2.709,3.48,1,3.48,3Z" transform="translate(-127.033 -240.543)"/><path class="e" d="M179.864,297.369a.128.128,0,0,1-.056,0c-.184-.051-4.578-1.329-10.977-7.205-6.815-6.258-10.03-15.645-10.064-15.739a.219.219,0,0,1,.137-.27.214.214,0,0,1,.27.133c.03.094,3.215,9.378,9.948,15.559,6.309,5.8,10.754,7.1,10.8,7.111a.214.214,0,0,1,.146.266.21.21,0,0,1-.206.146Z" transform="translate(-132.809 -251.471)"/><path class="e" d="M183.882,299.31a.206.206,0,0,1-.2-.137c-1.376-3.532-1.689-11.088-1.715-11.41a.219.219,0,0,1,.206-.223.227.227,0,0,1,.223.206c0,.077.321,7.805,1.672,11.273a.214.214,0,0,1-.124.279A.225.225,0,0,1,183.882,299.31Z" transform="translate(-146.072 -259.125)"/><path class="e" d="M184.52,324.218a10.125,10.125,0,0,1-1.183-.06.216.216,0,0,1,.051-.429c.039,0,4.029.454,5.859-1.41a.214.214,0,1,1,.3.3C188.227,323.986,185.917,324.218,184.52,324.218Z" transform="translate(-146.744 -278.954)"/></g><g transform="translate(10.578 0)"><path class="g" d="M156.7,129.8l-.463-2.67-2.383,1.569a3.3,3.3,0,0,0-.9-1.1l1.14-3.086-2.143-.476-1.569,3a5.842,5.842,0,0,0-1.633.531l-.682-2.263-2.546,2,.167,2.657a14.3,14.3,0,0,0-1.406,1.86l-2.1-.107-1.474,3.3,1.8.772a10.574,10.574,0,0,0-.356,2.092L139.86,140l.459,2.675,2.387-1.569a3.24,3.24,0,0,0,.9,1.1l-1.119,3.09,2.143.471,2.246-2.186c.519-.081.39-1.059.956-1.337l.682,2.255,2.542-2L151,141.451c.514-.574,2.46-1.839,2.88-2.5l.527-.857,1.474-3.3-.686-1.243-.763-1.62Zm-7.779,8.791c-1.955,1.534-2.572,1.873-2.9-.18a8.011,8.011,0,0,1,2.743-6.712c1.954-1.539,2.7-1.646,3.052.4S150.88,137.079,148.921,138.6Z" transform="translate(-122.017 -107.791)"/><path class="a" d="M166.009,124.04l2.782,1.6-1.569,2.992-2.782-1.6Z" transform="translate(-136.061 -107.791)"/><path class="a" d="M177.675,132.863l-2.383,1.569-2.782-1.6,2.383-1.569Z" transform="translate(-140.672 -111.916)"/><path class="g" d="M177.556,149.67l-1.8-.767-2.782-1.6,1.8.767Z" transform="translate(-140.935 -121.081)"/><path class="g" d="M145.99,169.5l2.782,1.6,1.14-3.086-2.782-1.6Z" transform="translate(-125.519 -132)"/><path class="g" d="M161.879,170.358l-2.777-1.6-.681-2.255,2.782,1.6Z" transform="translate(-132.621 -132.052)"/><path class="b" d="M163.209,133.545l-.459-2.67-2.383,1.569a3.317,3.317,0,0,0-.909-1.1l1.14-3.086-2.122-.476-1.573,3a5.843,5.843,0,0,0-1.633.531l-.677-2.255-2.546,2,.167,2.657a14.3,14.3,0,0,0-1.406,1.873l-2.1-.107-1.474,3.3,1.8.772a10.888,10.888,0,0,0-.356,2.1l-2.289,2.079.459,2.675,2.383-1.569a3.3,3.3,0,0,0,.909,1.1L149,149.022l2.143.476,1.569-3a5.7,5.7,0,0,0,1.637-.536l.677,2.255,2.546-2-.167-2.657a14.3,14.3,0,0,0,1.406-1.86l2.1.1,1.474-3.3-1.83-.767a10.635,10.635,0,0,0,.36-2.1Zm-7.771,8.808c-1.95,1.534-3.819,1.119-4.175-.93s.943-4.959,2.9-6.494,3.819-1.114,4.175.934S157.393,140.819,155.438,142.353Z" transform="translate(-125.748 -109.928)"/><path class="a" d="M158.428,128.6l-2.782-1.6-2.546,2,2.782,1.6Z" transform="translate(-129.582 -109.482)"/><path class="g" d="M153.1,131.67l.167,2.657,2.782,1.6-.167-2.657Z" transform="translate(-129.582 -112.151)"/><path class="a" d="M150.192,143.676l-2.782-1.6-2.1-.1,2.777,1.6Z" transform="translate(-125.131 -118.036)"/><path class="g" d="M143.344,141.97l-1.474,3.3,2.777,1.6,1.474-3.3Z" transform="translate(-123.165 -118.036)"/><path class="a" d="M144.971,157.953l-2.777-1.6-2.293,2.109,2.777,1.6Z" transform="translate(-122.039 -126.252)"/><path class="g" d="M143.14,165.548l-2.782-1.6-.459-2.675,2.777,1.6Z" transform="translate(-122.039 -129.064)"/><path class="a" d="M170.882,125.643l-2.782-1.6,2.126.476,2.777,1.6Z" transform="translate(-138.152 -107.791)"/><path class="g" d="M120.458,96.023v-3.99l-3.176,1.432a5.727,5.727,0,0,0-.857-1.89l2-4.033-2.443-1.41-2.495,3.75a5.662,5.662,0,0,0-2.066.2l-.351-3.468-3.455,2-.347,3.858a17.008,17.008,0,0,0-2.066,2.186l-2.495-.857-2.443,4.235,2,1.714a17.235,17.235,0,0,0-.857,2.88l-3.176,2.233v3.995l3.176-1.432a5.727,5.727,0,0,0,.857,1.89l-1.989,4.038,2.443,1.41,2.495-3.75a5.671,5.671,0,0,0,2.066-.2l.347,3.468,3.455-2,.351-3.858a6.515,6.515,0,0,0,2.769-1.946l1.792.63,2.443-4.23-1.5-1.286a8.919,8.919,0,0,0,.356-3.313Zm-11.114,9.97c-2.649,1.53-4.286.429-4.286-2.619a10.727,10.727,0,0,1,4.843-8.345c2.653-1.53,4.256-.429,4.256,2.645A10.615,10.615,0,0,1,109.344,105.992Z" transform="translate(-98.23 -86.13)"/><path class="a" d="M139.1,87.729l-2.777-1.6-2.495,3.75,2.777,1.6Z" transform="translate(-118.571 -86.13)"/><path class="a" d="M148.638,101.5l-2.782-1.6-3.176,1.432,2.782,1.6Z" transform="translate(-123.628 -93.998)"/><path class="g" d="M122.445,148.781l-2.777-1.6-.347-3.467,2.777,1.6Z" transform="translate(-110.28 -119.03)"/><path class="g" d="M102.97,144.263l2.782,1.6,2-4.033-2.782-1.6Z" transform="translate(-100.938 -117.042)"/><path class="b" d="M126.948,99.79V95.8l-3.176,1.419a5.645,5.645,0,0,0-.857-1.89l2-4.033-2.443-1.414-2.495,3.755a5.572,5.572,0,0,0-2.066.2l-.351-3.476-3.455,2-.351,3.858a17.307,17.307,0,0,0-2.066,2.186l-2.495-.857-2.443,4.235,2,1.714a16.839,16.839,0,0,0-.857,2.88l-3.176,2.233V112.6l3.176-1.432a5.64,5.64,0,0,0,.857,1.89l-2,4.033,2.443,1.41,2.495-3.75a5.662,5.662,0,0,0,2.066-.2l.351,3.468,3.455-2,.347-3.858a17.008,17.008,0,0,0,2.066-2.186l2.495.857,2.443-4.23-2-1.715a16.859,16.859,0,0,0,.857-2.88Zm-11.114,9.97c-2.653,1.53-4.8.287-4.8-2.773a10.6,10.6,0,0,1,4.8-8.32c2.662-1.534,4.8-.287,4.8,2.773a10.6,10.6,0,0,1-4.8,8.3Z" transform="translate(-101.938 -88.273)"/><path class="h" d="M111.175,104.874l2.777,1.6-2.495-.87L108.68,104Z" transform="translate(-104.201 -96.341)"/><rect class="a" width="4.891" height="3.21" transform="translate(2.035 11.9) rotate(-60.02)"/><path class="g" d="M102.97,113.88l2.782,1.6,2,1.723-2.782-1.6Z" transform="translate(-100.938 -101.986)"/><path class="a" d="M101.406,124.63l2.782,1.6-3.176,2.233-2.782-1.6Z" transform="translate(-98.23 -108.128)"/><path class="g" d="M98.23,129.84l2.782,1.6v3.995l-2.782-1.6Z" transform="translate(-98.23 -111.105)"/><path class="a" d="M126.366,88.863l-2.782-1.6-3.455,2,2.777,1.6Z" transform="translate(-110.743 -86.776)"/></g><g transform="translate(56.334 0.015)"><path class="g" d="M210.51,322.8l40.29-23.265a.454.454,0,0,0,0-.857l-3.725-2.143a1.654,1.654,0,0,0-1.487,0l-40.3,23.244a.454.454,0,0,0,0,.857l3.738,2.143A1.654,1.654,0,0,0,210.51,322.8Z" transform="translate(-204.982 -206.265)"/><path class="i" d="M258.4,93.862l-36.33,20.977a4.106,4.106,0,0,0-1.856,3.215v86.183c0,1.183.832,1.663,1.856,1.072l36.33-20.977a4.093,4.093,0,0,0,1.856-3.215V94.934C260.252,93.751,259.424,93.271,258.4,93.862Z" transform="translate(-213.683 -90.418)"/><path class="j" d="M215.826,110.585l36.33-20.977c.917-.531,1.676-.2,1.83.72a4.149,4.149,0,0,0-1.83-2.863l-1.509-.857a4.1,4.1,0,0,0-3.712,0L210.6,107.568a3.819,3.819,0,0,0-1.312,1.384l5.225,3A3.75,3.75,0,0,1,215.826,110.585Z" transform="translate(-207.443 -86.164)"/><path class="k" d="M208,227.366a4.106,4.106,0,0,0,1.856,3.215l1.513.857a4.158,4.158,0,0,0,3.395.146c-.857.334-1.539-.159-1.539-1.217V144.2a3.772,3.772,0,0,1,.544-1.83l-5.225-3a3.819,3.819,0,0,0-.544,1.813Z" transform="translate(-206.706 -116.565)"/><path class="e" d="M225.4,143.3l34.345-19.824c.617-.351,1.114-.064,1.114.643V187.91a2.456,2.456,0,0,1-1.114,1.929l-34.332,19.824c-.617.356-1.114.069-1.114-.643V145.233A2.46,2.46,0,0,1,225.4,143.3Z" transform="translate(-216.02 -107.4)"/><path class="j" d="M266.052,126.173a1.449,1.449,0,0,0-.652,1.132c0,.429.291.587.652.377a1.436,1.436,0,0,0,.651-1.132C266.7,126.134,266.412,125.967,266.052,126.173Z" transform="translate(-239.503 -108.974)"/><path class="j" d="M263.492,308.27a5.7,5.7,0,0,0-2.572,4.466c0,1.642,1.153,2.31,2.572,1.487a5.7,5.7,0,0,0,2.572-4.466C266.072,308.116,264.915,307.447,263.492,308.27Z" transform="translate(-236.944 -212.87)"/><path class="j" d="M250.816,141.533a2.885,2.885,0,0,0-1.286,2.263c0,.831.583,1.17,1.286.754a2.885,2.885,0,0,0,1.307-2.263C252.123,141.456,251.54,141.117,250.816,141.533Z" transform="translate(-230.436 -117.699)"/><path class="j" d="M260,132.269c0,.557.429.767.93.471l8.572-4.959a1.989,1.989,0,0,0,.93-1.543c0-.553-.429-.763-.93-.467l-8.572,4.959A1.989,1.989,0,0,0,260,132.269Z" transform="translate(-236.418 -108.718)"/><path class="j" d="M213.372,176.182a2.31,2.31,0,0,1,1.046,1.809c0,.669-.467.939-1.046.6a2.315,2.315,0,0,1-1.042-1.809C212.33,176.122,212.8,175.852,213.372,176.182Z" transform="translate(-209.18 -137.518)"/><path class="j" d="M213.372,194.959a2.31,2.31,0,0,1,1.046,1.809c0,.664-.467.934-1.046.6a2.315,2.315,0,0,1-1.042-1.809C212.33,194.895,212.8,194.625,213.372,194.959Z" transform="translate(-209.18 -148.245)"/><path class="i" d="M212.606,176.566a2.31,2.31,0,0,1,1.046,1.809c0,.664-.467.934-1.046.6a2.31,2.31,0,0,1-1.046-1.809C211.564,176.5,212.031,176.245,212.606,176.566Z" transform="translate(-208.74 -137.74)"/><path class="i" d="M212.606,195.332a2.31,2.31,0,0,1,1.046,1.813c0,.664-.467.934-1.046.6a2.3,2.3,0,0,1-1.046-1.809C211.564,195.272,212.031,195,212.606,195.332Z" transform="translate(-208.74 -148.46)"/><path class="e" d="M277.081,128.829c0-.712-.5-1-1.114-.643l-4.11,2.37L241.634,148.01a2.456,2.456,0,0,0-1.114,1.929v63.77c0,.711.5,1,1.114.643l30.235-17.458,4.1-2.366a2.456,2.456,0,0,0,1.114-1.929Z" transform="translate(-225.287 -110.088)"/><path class="c" d="M276.933,128.239a1.1,1.1,0,0,0-1.757-1.016l-3.922,2.267h0l-30.411,17.573a2.855,2.855,0,0,0-1.329,2.3v63.753a1.187,1.187,0,0,0,.54,1.093.981.981,0,0,0,.506.133,1.465,1.465,0,0,0,.712-.21L271.7,196.561h0l3.913-2.259a2.893,2.893,0,0,0,1.329-2.3Zm-5.671,67.589h0l-.352.206h0l-30.051,17.35a.429.429,0,0,1-.36.077c-.056-.034-.111-.154-.111-.352V149.348a2.062,2.062,0,0,1,.9-1.56l30.021-17.359h0l4.286-2.482a.429.429,0,0,1,.36-.077c.056.034.111.154.111.351v63.787a2.061,2.061,0,0,1-.9,1.56l-3.913,2.259Z" transform="translate(-224.711 -109.497)"/><path class="f" d="M273.885,163.19c3.858-2.22,6.965-.429,6.965,4.025a15.351,15.351,0,0,1-6.965,12.061c-3.845,2.2-6.965.429-6.965-4.02A15.4,15.4,0,0,1,273.885,163.19Z" transform="translate(-240.372 -129.631)"/><path class="c" d="M280.159,172.208c1.247-.72,2.259-.137,2.259,1.286a4.993,4.993,0,0,1-2.259,3.913c-1.247.72-2.259.137-2.259-1.286A4.993,4.993,0,0,1,280.159,172.208Z" transform="translate(-246.646 -135.152)"/><path class="c" d="M281.83,187.008c0-2.366-1.659-3.326-3.712-2.143l-1.286.742a8.209,8.209,0,0,0-3.712,6.429v.639a5.287,5.287,0,0,0,4.286-.759,13.714,13.714,0,0,0,4.4-4.359Z" transform="translate(-243.915 -142.271)"/><path class="l" d="M280.159,172.208c1.247-.72,2.259-.137,2.259,1.286a4.993,4.993,0,0,1-2.259,3.913c-1.247.72-2.259.137-2.259-1.286A4.993,4.993,0,0,1,280.159,172.208Z" transform="translate(-246.646 -135.152)"/><path class="l" d="M281.83,187.008c0-2.366-1.659-3.326-3.712-2.143l-1.286.742a8.209,8.209,0,0,0-3.712,6.429v.639a5.287,5.287,0,0,0,4.286-.759,13.714,13.714,0,0,0,4.4-4.359Z" transform="translate(-243.915 -142.271)"/><path class="c" d="M250.742,217.808l8.962-5.173c.429-.236.742-.047.742.429v.3a1.637,1.637,0,0,1-.742,1.286l-8.962,5.173c-.407.236-.741.043-.741-.429v-.3A1.641,1.641,0,0,1,250.742,217.808Z" transform="translate(-230.704 -158.369)"/><path class="m" d="M250.742,217.808l8.962-5.173c.429-.236.742-.047.742.429v.3a1.637,1.637,0,0,1-.742,1.286l-8.962,5.173c-.407.236-.741.043-.741-.429v-.3A1.641,1.641,0,0,1,250.742,217.808Z" transform="translate(-230.704 -158.369)"/><path class="c" d="M250.373,218.474l27.114-15.653c.2-.12.369-.026.369.214V206.2a.831.831,0,0,1-.369.643l-27.114,15.653c-.206.12-.373.021-.373-.214v-3.163A.823.823,0,0,1,250.373,218.474Z" transform="translate(-230.704 -152.79)"/><path class="n" d="M250.373,218.474l27.114-15.653c.2-.12.369-.026.369.214V206.2a.831.831,0,0,1-.369.643l-27.114,15.653c-.206.12-.373.021-.373-.214v-3.163A.823.823,0,0,1,250.373,218.474Z" transform="translate(-230.704 -152.79)"/><path class="c" d="M250.742,250.639l8.962-5.173c.429-.236.742-.043.742.429v.3a1.633,1.633,0,0,1-.742,1.286l-8.962,5.173c-.407.24-.741.047-.741-.429v-.3A1.65,1.65,0,0,1,250.742,250.639Z" transform="translate(-230.704 -177.129)"/><path class="m" d="M250.742,250.639l8.962-5.173c.429-.236.742-.043.742.429v.3a1.633,1.633,0,0,1-.742,1.286l-8.962,5.173c-.407.24-.741.047-.741-.429v-.3A1.65,1.65,0,0,1,250.742,250.639Z" transform="translate(-230.704 -177.129)"/><path class="c" d="M250.373,251.3l27.114-15.653c.2-.12.369-.021.369.214v3.163a.831.831,0,0,1-.369.643l-27.114,15.653c-.206.12-.373.026-.373-.214v-3.163a.823.823,0,0,1,.373-.643Z" transform="translate(-230.704 -171.549)"/><path class="o" d="M250.373,251.3l27.114-15.653c.2-.12.369-.021.369.214v3.163a.831.831,0,0,1-.369.643l-27.114,15.653c-.206.12-.373.026-.373-.214v-3.163a.823.823,0,0,1,.373-.643Z" transform="translate(-230.704 -171.549)"/><path class="c" d="M275.112,268.059l10.715-6.176c.429-.24.746-.047.746.429v3.309a1.637,1.637,0,0,1-.746,1.286l-10.715,6.181c-.429.236-.742.043-.742-.429v-3.313A1.654,1.654,0,0,1,275.112,268.059Z" transform="translate(-244.629 -186.507)"/><path class="m" d="M275.112,268.059l10.715-6.176c.429-.24.746-.047.746.429v3.309a1.637,1.637,0,0,1-.746,1.286l-10.715,6.181c-.429.236-.742.043-.742-.429v-3.313A1.654,1.654,0,0,1,275.112,268.059Z" transform="translate(-244.629 -186.507)"/></g><g transform="translate(101.296 45.596)"><path class="p" d="M320.776,224.518s-5.263-7.261-5.572-8.144a4.394,4.394,0,0,1,.077-2.07c.077-.45.146-1.453.223-1.714.129-.489-.5-.39-.857.056s-.476,1.337-.66,1.483-1.586-1.9-2.319-2.842-1.192-1.517-1.642-1.166c-.321.253-.081.8.45,1.607a14.463,14.463,0,0,1,.857,1.35c.081.176-.356.189-.591.553-.184.283,0,.742-.257.96a.81.81,0,0,0-.206,1.059,7,7,0,0,0,1.813,1.92,4.333,4.333,0,0,1,1.573,1.479c.467.741,4.659,8.315,4.942,8.77s.827,1.38,1.654,1.406,7.6-5.8,7.947-6.095c1.114-.93,1.47-1.063,1.659-.227a8.23,8.23,0,0,1,.146.9c.133,1.063.857,4.861.857,4.861s3.429,1.659,6.245.857a7.6,7.6,0,0,0,3.767-2l-1.41-2.3a49.4,49.4,0,0,0,2.713-7.475l-8.83-1.427c-.18-.039-.471-.111-.857-.21a2.746,2.746,0,0,0-2.645.261c-3.035,2.645-9.07,8.144-9.07,8.144" transform="translate(-309.881 -202.512)"/><path class="j" d="M374.032,347.7l-1.582,2.2a5.255,5.255,0,0,0,2.3.493c1.419.051,1.809-.429,1.86-.523.24-.514-.133-1.44-.236-2.237Z" transform="translate(-345.632 -281.142)"/><path class="j" d="M365.508,350.043s-1.92-.124-3.245-.287-2.375.48-2.066,1.024a3.809,3.809,0,0,0,2.182,1.38c.973.33,2.143.566,3.155.857s1.714.673,2.3.467c.656-.227.939-.489.883-.969a20.794,20.794,0,0,0-.531-2.023Z" transform="translate(-338.6 -282.342)"/><path class="q" d="M378.636,342.326s-.24,2-.257,2.426-1.95.566-2.319-.219L376,342.09Z" transform="translate(-347.66 -277.976)"/><path class="p" d="M370.2,345.5l.69,3.035s.064.369-1.513.6-4.055-.827-4.479-1.042-.472-.647,1.08-.561,2.1.09,2.1.09l-.506-1.342Z" transform="translate(-341.173 -279.925)"/><path class="q" d="M382.573,227.594l1.093-.3s2.285,7.231,2.537,7.929a2.485,2.485,0,0,1,.047,2.3c-.587,1.024-3.678,5.143-3.678,5.143l-1.963-1.92,2.229-4.08-1.972-3.986Z" transform="translate(-350.294 -212.382)"/><path class="j" d="M358.5,198.33a3.223,3.223,0,0,1,.047-3.116c1.089-2.019,3.515-3,6.4-2.627a5.469,5.469,0,0,1,3.776,2.945c.952,1.839,1.042,5.542,1.286,6.944Z" transform="translate(-337.442 -192.508)"/><path class="p" d="M358.047,207.94s-.686,1.307-.566,1.427a1.8,1.8,0,0,0,.574.214Z" transform="translate(-337.071 -201.326)"/><path class="p" d="M360.89,197.591c-.746.484-2.032,1.376-2.087,4.312-.06,3,.369,3.99.814,4.338a6,6,0,0,0,6.528-2.945c.922-1.92.733-4.715-.634-5.572a4.775,4.775,0,0,0-4.62-.133Z" transform="translate(-337.831 -195.109)"/><path class="c" d="M376.436,250.82c1.32,2.057,2.572,3.858,2.846,6.181.566,4.882-1.286,10.463-1.684,14.076a6.512,6.512,0,0,1,1.243,3.523c0,1.5-2.4,15.576-2.4,15.576s-1.749.532-2.636-.236l-1.65-25.9.857-3.155Z" transform="translate(-345.46 -225.826)"/><path class="d" d="M376.436,250.82c1.32,2.057,2.572,3.858,2.846,6.181.566,4.882-1.286,10.463-1.684,14.076a6.512,6.512,0,0,1,1.243,3.523c0,1.5-2.4,15.576-2.4,15.576s-1.749.532-2.636-.236l-1.65-25.9.857-3.155Z" transform="translate(-345.46 -225.826)"/><path class="c" d="M372.15,274.958l.857-3.155a21.063,21.063,0,0,0,4.715-1.873,6.343,6.343,0,0,1-3.455,2.516l-1.324,4.05-.111,9.28Z" transform="translate(-345.46 -236.746)"/><path class="r" d="M372.15,274.958l.857-3.155a21.063,21.063,0,0,0,4.715-1.873,6.343,6.343,0,0,1-3.455,2.516l-1.324,4.05-.111,9.28Z" transform="translate(-345.46 -236.746)"/><path class="f" d="M365.248,250.82c.707,1.157,2.4,3.129,2.036,5.028-.429,2.3-1.672,3.913-5.452,5.036l-3.549,12.859a10.424,10.424,0,0,1,2.413,3.373c.566,1.659,2.606,14.295,2.606,14.295s-.634,1.033-2.627.784c0,0-6.948-15.859-7.437-16.892a5.143,5.143,0,0,1-.587-3.45c.219-1.663,2.572-19.866,2.572-19.866Z" transform="translate(-334.272 -225.826)"/><path class="d" d="M365.248,250.82c.707,1.157,2.4,3.129,2.036,5.028-.429,2.3-1.672,3.913-5.452,5.036l-3.549,12.859a10.424,10.424,0,0,1,2.413,3.373c.566,1.659,2.606,14.295,2.606,14.295s-.634,1.033-2.627.784c0,0-6.948-15.859-7.437-16.892a5.143,5.143,0,0,1-.587-3.45c.219-1.663,2.572-19.866,2.572-19.866Z" transform="translate(-334.117 -225.112)"/><path class="c" d="M368.751,225.817l-8.83-1.427c-.18-.039-.471-.111-.857-.21h0s-.377,5.538-2.645,6.807h0c.056.266.1.561.146.9.133,1.063.857,4.861.857,4.861s3.429,1.659,6.245.857a7.6,7.6,0,0,0,3.768-2l-1.41-2.3A46.817,46.817,0,0,0,368.751,225.817Z" transform="translate(-336.473 -210.605)"/><path class="l" d="M368.751,225.817l-8.83-1.427c-.18-.039-.471-.111-.857-.21h0s-.377,5.538-2.645,6.807h0c.056.266.1.561.146.9.133,1.063.857,4.861.857,4.861s3.429,1.659,6.245.857a7.6,7.6,0,0,0,3.768-2l-1.41-2.3A46.817,46.817,0,0,0,368.751,225.817Z" transform="translate(-336.473 -210.605)"/><path class="c" d="M374.863,243.35a24.92,24.92,0,0,1-3.673,1.813,6.9,6.9,0,0,0,3.287-.909Z" transform="translate(-344.912 -221.558)"/><path class="j" d="M363.05,196.676s-.429,2.786.583,4.423c0,0,.377-1.11,1.316-.9s.99,1.449.33,2.143a1.367,1.367,0,0,1-1.389.429s-.15,2.015-.231,3.7-.527,5.371,1.372,6.858,6.665,2.01,8.9-1.11c1.243-1.736-.407-4.8-1.174-8.247-.707-3.163-1.106-7.852-4.462-8.607A5.564,5.564,0,0,0,363.05,196.676Z" transform="translate(-340.209 -194.048)"/></g><g transform="translate(120.883 7.23)"><path class="b" d="M371.147,105.926l-.707.429a3.725,3.725,0,0,0,.1-.767c0-1.436-1.007-2.014-2.25-1.286a3.97,3.97,0,0,0-1,.857h0c0-1.929-1.354-2.713-3.026-1.749a6.691,6.691,0,0,0-3.026,5.242v.287a1.835,1.835,0,0,0-1.23.283,4.972,4.972,0,0,0-2.25,3.9,2.615,2.615,0,0,0,.056.54l-.377.219a3.614,3.614,0,0,0-1.856,2.572c0,.827.832,1.024,1.856.429l13.716-7.908a3.614,3.614,0,0,0,1.856-2.572C373.008,105.57,372.172,105.33,371.147,105.926Z" transform="translate(-355.58 -102.997)"/></g></svg>