<svg xmlns="http://www.w3.org/2000/svg" width="32.104" height="32.104" viewBox="0 0 32.104 32.104"><defs><style>.a{fill:#e82337;}</style></defs><path class="a" d="M16.052,0A16.052,16.052,0,1,0,32.1,16.052,16.043,16.043,0,0,0,16.052,0Zm0,29.6A13.544,13.544,0,1,1,29.6,16.052,13.536,13.536,0,0,1,16.052,29.6Z"/><g transform="translate(10.193 10.193)"><path class="a" d="M173.907,172.134l-3.718-3.718,3.718-3.718a1.254,1.254,0,1,0-1.773-1.774l-3.719,3.718-3.719-3.718a1.254,1.254,0,1,0-1.773,1.774l3.718,3.718-3.718,3.718a1.254,1.254,0,1,0,1.773,1.773l3.719-3.718,3.719,3.718a1.254,1.254,0,1,0,1.773-1.773Z" transform="translate(-162.555 -162.556)"/></g></svg>