<svg xmlns="http://www.w3.org/2000/svg" width="257.889" height="306.515" viewBox="0 0 257.889 306.515"><defs><style>.a{opacity:0.8;}.b{fill:#003c77;}.c{fill:#09468e;}.d,.m{fill:none;stroke-miterlimit:10;}.d{stroke:#001e42;}.e{fill:#012456;}.f{fill:#001e42;}.g{fill:#0e72cc;}.h{fill:#2b7fe3;}.i{fill:#efefef;}.j,.o{fill:#fff;}.j,.k,.l{opacity:0.9;}.k{fill:#bcbcbc;}.l{fill:#c6c6c6;}.m{stroke:#f5ae3d;}.n{fill:#eba883;}.p{fill:#001524;}.q{fill:#0244a3;}.r{fill:#00418f;}.s{fill:#707070;}.t{fill:#e8551a;}.u{fill:#d63700;}.v{fill:#f9662b;}.w{fill:#ebbca3;}</style></defs><g class="a" transform="translate(-82.773 -50.908)"><g transform="translate(168.63 142.06)"><rect class="b" width="64.277" height="207.311" transform="translate(0 0.061)"/><rect class="c" width="43.48" height="207.311" transform="translate(20.797)"/></g><g transform="translate(203.918 154.267)"><line class="d" x2="12.535" y2="59.385"/><line class="d" x2="12.535" y2="59.385" transform="translate(26.316)"/><line class="d" x1="26.316" transform="translate(8.051 38.641)"/><line class="d" x1="26.316" transform="translate(11.168 51.641)"/><line class="d" x1="26.316" transform="translate(2.673 12.64)"/><line class="d" x1="26.316" transform="translate(5.567 25.64)"/></g><g transform="translate(257.443 263.602)"><rect class="e" width="54.179" height="85.831" transform="translate(0 0)"/><rect class="f" width="22.939" height="85.831" transform="translate(0 0)"/></g><g transform="translate(129.553 234.342)"><rect class="g" width="54.179" height="115.09" transform="translate(0)"/><rect class="h" width="43.152" height="115.09" transform="translate(0)"/></g><g transform="translate(163.381 278.573)"><rect class="i" width="54.179" height="70.859" transform="translate(0)"/><rect class="j" width="33.652" height="70.859" transform="translate(0)"/></g><g transform="translate(210.797 213.223)"><rect class="k" width="54.179" height="136.209" transform="translate(0 0.039)"/><rect class="l" width="34.742" height="136.209" transform="translate(19.437)"/></g><g transform="translate(174.74 217.506)"><g transform="translate(0 16.837)"><line class="m" x1="24.445" y2="115.652" transform="translate(26.316)"/><line class="m" x1="24.445" y2="115.652"/><line class="m" x2="26.316" transform="translate(8.034 77.642)"/><line class="m" x2="26.316" transform="translate(5.289 90.643)"/><line class="m" x2="26.316" transform="translate(2.362 103.643)"/><line class="m" x2="26.316" transform="translate(16.394 38.641)"/><line class="m" x2="26.316" transform="translate(13.277 51.641)"/><line class="m" x2="26.316" transform="translate(11.287 64.642)"/><line class="m" x2="26.316" transform="translate(21.772 12.64)"/><line class="m" x2="26.316" transform="translate(18.878 25.64)"/></g><g transform="translate(20.23)"><path class="i" d="M233.594,276.268a27.123,27.123,0,0,1,11.73-9.3v2.394s-5.664,3.545-5.805,7.081S233.594,276.268,233.594,276.268Z" transform="translate(-229.497 -266.966)"/><path class="n" d="M266.753,270.32c-.8.8-1.88,1.016-2.413.483s-.317-1.614.483-2.413,1.88-1.016,2.413-.483S267.552,269.52,266.753,270.32Z" transform="translate(-236.468 -267.114)"/><path class="n" d="M235.734,275.592c-1.188.977-3.207.487-4.508-1.1s-1.394-3.658-.205-4.635,3.862-.643,5.163.939l-.452.42C236.836,272.762,236.857,274.668,235.734,275.592Z" transform="translate(-228.716 -267.503)"/><path class="n" d="M236.363,279.259l-2.77-.7.09-1.012,1.792-.555Z" transform="translate(-229.497 -269.262)"/><path class="o" d="M232.879,276.978a59.536,59.536,0,0,0-2.41,11.888l8.085-.039a14.863,14.863,0,0,1,1.8-5.07c1.234-1.846,1.5-2.814,6.961-4.1s10.3-7.982,10.3-7.982l-1.285-1.606s-5.462,6.1-10.763,6.747A84.277,84.277,0,0,1,232.879,276.978Z" transform="translate(-228.781 -267.677)"/><path class="p" d="M232.468,275.256a8.155,8.155,0,0,1-3.385-1.912,2.621,2.621,0,0,1,.032-3.805l2.7-2.572.357.491a1.623,1.623,0,0,1-.1,2.033l-.356.4a2.97,2.97,0,0,0-.352,3.454Z" transform="translate(-228.28 -266.966)"/><g transform="translate(0.749 21.19)"><path class="f" d="M234.306,294.447H230.19s-2.4,5.25.474,8.525c0,0,.471,7.223.126,15.442-.037.888-.231,4.961-.226,6.864h3.393C235.136,317.722,237.374,300.15,234.306,294.447Z" transform="translate(-229.252 -294.447)"/></g><g transform="translate(1.155 21.151)"><path class="e" d="M246.679,303.017c-1.591-3.015-4.465-7.237-8.284-8.62l-8.085.039s-3.476,8.079,7.325,8.079c4.532,0,5.384,2.85,5.426,6l.133,3.656h3.393S247.355,304.3,246.679,303.017Z" transform="translate(-229.778 -294.397)"/></g></g></g><g transform="translate(82.773 349.471)"><path class="q" d="M82.773,446.062H340.5l.159-7.952H82.933Z" transform="translate(-82.773 -438.111)"/><path class="r" d="M82.773,446.062h58.694l.036-7.952H82.81Z" transform="translate(-82.773 -438.111)"/></g><g transform="translate(209.543 256.431)"><path class="p" d="M247.179,320.309h7.471v-.756h0a.757.757,0,0,0-.756-.757h0a3.356,3.356,0,0,1-1.612-.412l-1.709-.936h-3.393Z" transform="translate(-247.179 -317.448)"/><rect class="s" width="7.471" height="0.595" transform="translate(0 2.862)"/></g><g transform="translate(197.033 269.526)"><path class="p" d="M230.955,337.292h7.471v-.757h0a.757.757,0,0,0-.757-.756h0a3.356,3.356,0,0,1-1.612-.413l-1.709-.935h-3.393Z" transform="translate(-230.955 -334.431)"/><rect class="s" width="7.471" height="0.595" transform="translate(0 2.861)"/></g><g transform="translate(180.01 50.908)"><g transform="translate(6.905 44.896)"><path class="n" d="M235.3,110.641s-8,2.279-8.459,2.124-8.53-3.454-8.956-2.556c-.716,1.505,5.657,6.028,9.322,4.936a79.3,79.3,0,0,0,8.685-3.437Z" transform="translate(-217.834 -109.344)"/><path class="n" d="M238.395,111.943c.227.972,1.484,1.377,2.809.906s2.216-1.641,1.989-2.613-1.484-1.377-2.81-.906S238.168,110.971,238.395,111.943Z" transform="translate(-222.533 -109.133)"/></g><g transform="translate(24.171)"><path class="t" d="M307.832,74.222,280.879,84.643V61.74Z" transform="translate(-249.532 -53.388)"/><path class="u" d="M280.879,88.348l5.24-9.637-5.24-.783Z" transform="translate(-249.532 -57.094)"/><path class="v" d="M276.812,72.526l-36.587,1.285v-22.9l36.587,4.756Z" transform="translate(-240.225 -50.908)"/><line class="m" y2="91.213"/></g><g transform="translate(0 34.693)"><path class="n" d="M237.607,118.739c0,1.011,1.117,1.831,2.5,1.831s2.5-.82,2.5-1.831-1.118-1.831-2.5-1.831S237.607,117.728,237.607,118.739Z" transform="translate(-215.455 -100.71)"/><rect class="n" width="2.87" height="4.313" transform="matrix(-0.99, -0.139, 0.139, -0.99, 10.396, 9.375)"/><path class="n" d="M221.188,104.366c-1.468-.461-2.161-2.42-1.547-4.374s2.3-3.167,3.77-2.706,2.649,2.882,2.035,4.838l-.6-.149C224.16,103.744,222.576,104.8,221.188,104.366Z" transform="translate(-211.291 -96.196)"/><path class="b" d="M224.931,124.82H214.144s.623-15.067,2.044-17.359c.8-1.29,4.41-.561,6.313,2.02C224.014,111.534,224.266,115.745,224.931,124.82Z" transform="translate(-210.084 -98.405)"/><path class="n" d="M234.436,116.871s-8.311-.311-8.7-.6-7.04-5.926-7.724-5.2c-1.147,1.21,3.512,7.484,7.335,7.58a79.179,79.179,0,0,0,9.322-.579Z" transform="translate(-210.928 -99.358)"/><path class="f" d="M224.168,130.159s.9,11.315-5.946,19.635c-2,2.427-4.35,4.755-4.35,4.755l-3.061-1.463,7.014-13.356a26.936,26.936,0,0,0,.322-3.938c.01-2.062-.266-4.407-1.392-5.634Z" transform="translate(-209.321 -103.743)"/><path class="e" d="M214.175,130.159s-1.224,4.118,2.415,5.475a7.4,7.4,0,0,1,3.035,1.794c1.73,1.993,2.064,4.222,2.064,6.861l-.241,12.518h3.393l1.844-14.3a14.56,14.56,0,0,0-1.837-7.9c-2.279-3.569-3.939-4.449-3.939-4.449Z" transform="translate(-210.046 -103.743)"/><path class="p" d="M219.328,101.371a8.162,8.162,0,0,1,.531-3.851,2.622,2.622,0,0,1,3.55-1.372l3.386,1.563-.325.514a1.625,1.625,0,0,1-1.927.656l-.5-.183a2.969,2.969,0,0,0-3.341.945Z" transform="translate(-211.259 -95.901)"/><path class="c" d="M222.508,113.83l-1.591,2.746-2.932-2.434c-1.8-1.787-1.2-4.534,1.922-2.425Z" transform="translate(-210.733 -99.347)"/><g transform="translate(11.402 53.063)"><path class="p" d="M223.666,167.579h7.47v-.757h0a.756.756,0,0,0-.756-.756h0a3.352,3.352,0,0,1-1.612-.413l-1.709-.935h-3.393Z" transform="translate(-223.666 -164.718)"/><rect class="s" width="7.471" height="0.595" transform="translate(0 2.861)"/></g><g transform="translate(0 49.343)"><path class="p" d="M209.211,162.476l6.741,3.222.326-.683h0a.757.757,0,0,0-.356-1.009h0a3.357,3.357,0,0,1-1.277-1.066l-1.139-1.581-3.061-1.463Z" transform="translate(-208.955 -159.894)"/><rect class="s" width="7.471" height="0.595" transform="matrix(0.902, 0.431, -0.431, 0.902, 0.257, 2.582)"/></g></g></g><g transform="translate(203.19 312.57)"><path class="n" d="M242.987,403.443c-1.039-.446-1.641-1.369-1.344-2.061s1.38-.894,2.42-.448,1.641,1.368,1.344,2.06S244.027,403.888,242.987,403.443Z" transform="translate(-239.542 -392.644)"/><path class="b" d="M262.622,399.85s-4.4,4.621-6.563,4.544-9.781-2.79-9.781-2.79l-.844,2.232s10.227,4.754,14.231,2.883a27.2,27.2,0,0,0,7.019-4.953Z" transform="translate(-240.427 -392.451)"/><path class="n" d="M240.7,411.922c-1.108-.223-1.886-1-1.738-1.742s1.168-1.157,2.276-.935,1.887,1,1.739,1.742S241.805,412.144,240.7,411.922Z" transform="translate(-238.941 -394.588)"/><path class="n" d="M261.521,399.217c.978-1.188.487-3.207-1.1-4.509s-3.658-1.393-4.636-.2-.643,3.862.94,5.163l.419-.452C258.692,400.319,260.6,400.34,261.521,399.217Z" transform="translate(-242.672 -391.035)"/><path class="c" d="M266.121,399.435l3.836,1.817s8.029,3.315,8.913,8.84l-8.029,1.1-2.652-2.284a3.873,3.873,0,0,1-4.151-1.281C262.517,405.525,266.121,399.435,266.121,399.435Z" transform="translate(-244.6 -392.355)"/><path class="c" d="M261.472,399.435s-5.465,8.51-7.6,8.878-10.145-.726-10.145-.726l-.369,2.357s10.984,2.556,14.52-.1,7.431-8.6,7.431-8.6Z" transform="translate(-239.952 -392.355)"/><path class="f" d="M280.8,413.256s1.824,5.054-1.058,6.94-2.7,6.795-2.7,6.795l8.112-1.729v3.226l-10.211,3.092-2.205-1.992s-2.642-12.976,2.841-15.614Z" transform="translate(-246.531 -395.519)"/><path class="e" d="M278.282,413.256s1.154,7.5-6.175,6.657-3.552,2.353-3.552,2.353l2.3,2.794a11.469,11.469,0,0,1,2.246,4.411l.059.228h-3.226s-17.748-12.935-2.938-14.037c3.685-.48,3.259-1.3,3.259-1.3Z" transform="translate(-244.012 -395.519)"/><path class="p" d="M260.2,393.71a3.2,3.2,0,1,1-2.939-3.446A3.2,3.2,0,0,1,260.2,393.71Z" transform="translate(-242.343 -390.254)"/><path class="p" d="M265.546,395.065a2.239,2.239,0,1,1-2.055-2.41A2.239,2.239,0,0,1,265.546,395.065Z" transform="translate(-244.008 -390.802)"/><path class="n" d="M266.057,399.172l-2.325-.888-.346,1.989,1.164,1.134Z" transform="translate(-244.537 -392.092)"/><path class="p" d="M274.63,437.3h-1.383l.014-.64h-.117a3.359,3.359,0,0,0-1.394.3l-.74.338h-2.764a.72.72,0,0,1-.719-.72h0a.72.72,0,0,1,.719-.719h0a3.2,3.2,0,0,0,1.533-.392l1.625-.89h3.226Z" transform="translate(-245.484 -400.401)"/><path class="p" d="M291.745,428.827v1.383l-.641-.014v.117a3.356,3.356,0,0,0,.3,1.394l.338.74v2.764a.72.72,0,0,1-.719.719h0a.72.72,0,0,1-.719-.719h0a3.191,3.191,0,0,0-.392-1.533l-.889-1.625v-3.226Z" transform="translate(-250.406 -399.084)"/></g><g transform="translate(147.491 175.695)"><path class="n" d="M177.893,221.849c-1.363.713-3.239-.18-4.189-2s-.616-3.865.747-4.579,3.912.16,4.862,1.976l-.528.318C179.551,219.3,179.182,221.175,177.893,221.849Z" transform="translate(-168.183 -213.265)"/><path class="e" d="M182.505,225.97s6.031,2.829,4.109,11.737-2.833,12.488-2.833,12.488l-1.276-10.764Z" transform="translate(-170.322 -215.77)"/><path class="f" d="M170.868,239.263h9.723s1.8-12.648-.75-13.461-6.42-.7-7.7,0S170.868,239.263,170.868,239.263Z" transform="translate(-167.658 -215.602)"/><path class="e" d="M171.191,225.97s-6.03,2.829-4.108,11.737,2.832,12.488,2.832,12.488V239.431Z" transform="translate(-166.705 -215.77)"/><path class="n" d="M171.017,243.427h5.239l-.074,32.855h-1.788S172.178,251.5,171.017,243.427Z" transform="translate(-167.692 -219.766)"/><path class="w" d="M177.694,243.427l1.341,32.855h1.788s.49-26.767,1.325-32.855Z" transform="translate(-169.22 -219.766)"/><path class="n" d="M177.149,226.6h0a1.314,1.314,0,0,1-1.314-1.314v-3.2a1.314,1.314,0,0,1,1.314-1.314h0a1.314,1.314,0,0,1,1.314,1.314v3.2A1.314,1.314,0,0,1,177.149,226.6Z" transform="translate(-168.795 -214.581)"/><path class="p" d="M177.525,214.5a1.762,1.762,0,1,1-1.763-1.763A1.763,1.763,0,0,1,177.525,214.5Z" transform="translate(-168.375 -212.742)"/><path class="p" d="M174.789,216.565a1.762,1.762,0,1,1-1.762-1.762A1.762,1.762,0,0,1,174.789,216.565Z" transform="translate(-167.749 -213.214)"/><path class="p" d="M175.409,220.253a1.762,1.762,0,1,1-1.762-1.763A1.762,1.762,0,0,1,175.409,220.253Z" transform="translate(-167.891 -214.058)"/><path class="p" d="M176.249,288.169h-.962l.009-.445h-.082a2.333,2.333,0,0,0-.969.211l-.515.235h-1.923a.5.5,0,0,1-.5-.5h0a.5.5,0,0,1,.5-.5h0a2.22,2.22,0,0,0,1.066-.272l1.587-.859h1.788Z" transform="translate(-167.758 -229.521)"/><path class="p" d="M179.433,288.169h.962l-.009-.445h.082a2.335,2.335,0,0,1,.969.211l.515.235h1.922a.5.5,0,0,0,.5-.5h0a.5.5,0,0,0-.5-.5h0a2.219,2.219,0,0,1-1.066-.272l-1.587-.859h-1.788Z" transform="translate(-169.619 -229.521)"/><path class="p" d="M180.679,261.577H170.6c-1.908-5.866-1.017-12.012-.05-18.15h9.723C182.06,250.515,182.71,255.955,180.679,261.577Z" transform="translate(-167.339 -219.766)"/><path class="o" d="M175.6,225.236l-.8.1.8,3.028,1.314-.745,1.314.745,1.017-2.925s-.418-.068-.558-.086c-.114-.014-.459-.042-.459-.042l-1.287,1.954Z" transform="translate(-168.558 -215.602)"/></g></g></svg>