<svg xmlns="http://www.w3.org/2000/svg" width="31.763" height="46.2" viewBox="0 0 31.763 46.2"><g transform="translate(-80)"><path d="M109.958,3.609h-5.234V1.8a1.8,1.8,0,0,0-1.8-1.8H88.843a1.8,1.8,0,0,0-1.8,1.8v1.8H81.8a1.8,1.8,0,0,0-1.8,1.8V44.4a1.8,1.8,0,0,0,1.8,1.8h28.153a1.8,1.8,0,0,0,1.8-1.8V5.414A1.8,1.8,0,0,0,109.958,3.609Zm-19.31,0h10.467V7.219H90.648Zm17.506,38.981H83.609V7.219h3.429v1.8a1.8,1.8,0,0,0,1.8,1.8H102.92a1.8,1.8,0,0,0,1.8-1.8v-1.8h3.429Zm-3.429-24.724a1.8,1.8,0,0,1-1.8,1.8H88.843a1.8,1.8,0,0,1,0-3.609H102.92A1.8,1.8,0,0,1,104.724,17.866Zm0,8.843a1.8,1.8,0,0,1-1.8,1.8H88.843a1.8,1.8,0,0,1,0-3.609H102.92A1.8,1.8,0,0,1,104.724,26.709Zm-7.038,8.843a1.8,1.8,0,0,1-1.8,1.8H88.843a1.8,1.8,0,0,1,0-3.609h7.038A1.8,1.8,0,0,1,97.686,35.552Z"/></g></svg>