<svg xmlns="http://www.w3.org/2000/svg" width="136.477" height="40.018" viewBox="0 0 136.477 40.018"><defs><style>.a{fill:#fff;}.b{fill:#08c;}</style></defs><g transform="translate(0 -0.033)"><g transform="translate(1.628 0.6)"><path class="a" d="M13.543,1.294c1.883-.018,3.771-.023,5.659.018-.077,2.593-.041,5.186-.045,7.779.041,5.459,0,10.918.014,16.377,1.219,0,2.438.009,3.658.023-.036,1.7-.036,3.407,0,5.109-1.219.014-2.434.014-3.653.018,0,2.643,0,5.286,0,7.925.009.532.018,1.06.027,1.592-1.811.032-3.621.027-5.432.009.014-.528.027-1.051.036-1.579-.014-2.648-.059-5.3.014-7.943-3.394-.014-6.792,0-10.19-.009.1-2.238-.4-4.622.61-6.724,2.079-4.918,4.053-9.881,6.123-14.808,1.06-2.6,2.138-5.186,3.189-7.788m-5.2,24.175c1.82.009,3.639.014,5.455,0-.1-4.69.055-9.376.023-14.066C11.691,15.956,10.335,20.847,8.347,25.469Z" transform="translate(-3.58 -1.28)"/><path class="a" d="M62.287,1.28c1.879,0,3.758,0,5.636.014-.041,2.6-.027,5.2-.036,7.8q.061,8.189.009,16.373c1.215,0,2.425,0,3.639.018-.027,1.706-.027,3.416-.009,5.122-1.206.009-2.416.009-3.621.018.023,2.639,0,5.282-.009,7.92,0,.532.014,1.065.023,1.6-1.806.023-3.612.018-5.418.018.009-.532.014-1.065.018-1.6-.014-2.648-.032-5.291,0-7.938-3.4-.014-6.792.009-10.186-.023.127-2.261-.409-4.668.641-6.778,2.065-4.895,4.035-9.831,6.087-14.73,1.083-2.6,2.124-5.218,3.221-7.811M57.074,25.473c1.824.009,3.648.009,5.473-.018-.2-4.731.173-9.485-.173-14.207C60.672,16.01,58.948,20.773,57.074,25.473Z" transform="translate(-30.142 -1.28)"/><path class="a" d="M110.988,1.286q2.811-.007,5.618,0c-.014,2.6-.009,5.2-.023,7.793.041,5.459.059,10.923-.009,16.382l1.4.018c.751.009,1.506.009,2.261.014-.018,1.706-.014,3.416-.009,5.122-.746,0-1.492,0-2.238,0h-1.4c.036,2.652.027,5.3-.009,7.957,0,.528,0,1.055.009,1.583-1.8,0-3.6,0-5.4-.018l.027-1.583c0-2.648-.018-5.3,0-7.943-3.394,0-6.792.018-10.19-.014.146-2.175-.378-4.49.555-6.546,2.1-4.972,4.1-9.986,6.182-14.962,1.074-2.6,2.134-5.209,3.212-7.806M110.779,12.1c-1.588,4.49-3.266,8.944-4.977,13.384,1.811,0,3.621,0,5.436-.009q-.055-7.008.018-14.016Z" transform="translate(-56.693 -1.281)"/></g><g transform="translate(0 0.033)"><path class="b" d="M159.438,3.207c3.521-4.563,11.641-4.149,14.553.873,1.765,2.8,1.406,6.251,1.479,9.412q-2.975.014-5.95-.009c-.041-2,.214-4.058-.364-6a3.049,3.049,0,0,0-4.881-1.219c-1.237,1.206-1.11,3.08-1.2,4.668q-.075,9.1,0,18.215c.073,1.674,0,3.7,1.456,4.854a2.967,2.967,0,0,0,4.572-1.451,27.575,27.575,0,0,0,.414-6.847q2.982-.027,5.955-.009c-.1,3.421.359,7.16-1.574,10.19a8.519,8.519,0,0,1-7.042,4.163h-.842a8.672,8.672,0,0,1-6.806-3.471c-1.774-2.211-1.947-5.168-1.993-7.884-.036-5.618-.018-11.232-.009-16.846C157.241,8.866,157.364,5.573,159.438,3.207Z" transform="translate(-85.682 -0.033)"/><path class="b" d="M211.486,1.294c2.538-.018,5.072-.018,7.615,0,2.293,12.938,4.436,25.908,6.815,38.832-2.029.041-4.058.032-6.087.014q-.662-4.272-1.342-8.539c-2.074-.036-4.144-.023-6.214-.018-.441,2.852-.9,5.7-1.333,8.562-1.952.014-3.9.018-5.85-.018,2.215-12.929,4.263-25.89,6.4-38.837m3.962,9.476c-1.1,5.063-1.519,10.254-2.37,15.363,1.519,0,3.034,0,4.554,0C216.877,21.015,215.963,15.915,215.449,10.77Z" transform="translate(-111.79 -0.713)"/><path class="b" d="M259.35,1.273c3.139.009,6.283-.077,9.421.036,2.716.1,5.564,1.292,6.933,3.753,1.774,3.235,1.715,7.1,1.369,10.672a9.662,9.662,0,0,1-3.708,6.656c1.556,5.8,2.866,11.673,4.476,17.46v.268q-3.1.041-6.2.009c-1.21-5.409-2.447-10.814-3.653-16.227q-1.406-.007-2.807,0c.032,5.409.014,10.823.014,16.232-1.952,0-3.9.009-5.85-.009q.061-19.427,0-38.855m5.814,5.468c.077,3.88.046,7.761.018,11.641,1.856-.073,4.572.546,5.477-1.615a11.672,11.672,0,0,0,.009-8.371C269.75,6.218,267.038,6.768,265.164,6.741Z" transform="translate(-141.366 -0.696)"/><path class="b" d="M0,18.448c2.8-.018,5.6-.009,8.4-.018-2.07,4.927-4.044,9.89-6.123,14.808-1.014,2.1-.514,4.486-.61,6.724,3.4.009,6.8,0,10.19.009-.073,2.648-.027,5.3-.014,7.943-3.949-.032-7.9,0-11.846-.014Z" transform="translate(0 -10.061)"/><path class="b" d="M37.82,18.439c4.449-.018,8.9,0,13.347,0-2.052,4.9-4.022,9.835-6.087,14.73-1.051,2.111-.514,4.517-.641,6.778,3.394.032,6.787.009,10.186.023-.036,2.648-.018,5.291,0,7.938-5.6-.023-11.2,0-16.791-.018,0-2.639.009-5.282,0-7.925,1.219,0,2.434,0,3.653-.018-.032-1.7-.032-3.407,0-5.109-1.219-.014-2.438-.018-3.658-.023C37.825,29.357,37.861,23.9,37.82,18.439Z" transform="translate(-20.615 -10.061)"/><path class="b" d="M86.55,18.444q6.667-.014,13.338,0c-2.084,4.977-4.085,9.99-6.182,14.962-.933,2.056-.409,4.372-.555,6.546,3.4.032,6.8.014,10.19.014-.023,2.648,0,5.3,0,7.943-5.591-.009-11.187,0-16.778-.014.009-2.639.032-5.282.009-7.92,1.206-.009,2.416-.009,3.621-.018-.018-1.706-.018-3.416.009-5.122-1.215-.014-2.425-.014-3.639-.018Q86.6,26.628,86.55,18.444Z" transform="translate(-47.176 -10.065)"/><path class="b" d="M135.219,18.42c.359,0,1.078.018,1.438.023-.041,5.459.036,10.918-.045,16.377l-1.4-.018C135.278,29.343,135.26,23.879,135.219,18.42Z" transform="translate(-73.7 -10.055)"/><path class="b" d="M14.06,37.6c1.988-4.622,3.344-9.512,5.477-14.066.032,4.69-.127,9.376-.023,14.066C17.7,37.61,15.88,37.605,14.06,37.6Z" transform="translate(-7.664 -12.841)"/><path class="b" d="M62.78,37.415c1.874-4.7,3.6-9.462,5.3-14.225.346,4.722-.032,9.476.173,14.207C66.428,37.425,64.6,37.425,62.78,37.415Z" transform="translate(-34.22 -12.655)"/><path class="b" d="M116.507,24.291l.478-.641q-.061,7.008-.018,14.016c-1.815,0-3.626,0-5.436.009C113.241,33.235,114.919,28.782,116.507,24.291Z" transform="translate(-60.792 -12.906)"/><path class="b" d="M135.239,65.77h1.4c.036,2.639.014,5.273.027,7.911-.355.014-1.074.036-1.433.045C135.266,71.074,135.275,68.422,135.239,65.77Z" transform="translate(-73.711 -35.865)"/></g></g></svg>