<svg xmlns="http://www.w3.org/2000/svg" width="42.017" height="49.797" viewBox="0 0 42.017 49.797"><g transform="translate(-49 32.787)"><path d="M80.817,8.064,61.754.149a1.945,1.945,0,0,0-1.492,0L41.2,8.064A1.945,1.945,0,0,0,40,9.86v9.622A32.576,32.576,0,0,0,60.273,49.653a1.946,1.946,0,0,0,1.47,0A32.576,32.576,0,0,0,82.017,19.482V9.86A1.945,1.945,0,0,0,80.817,8.064ZM78.126,19.482A28.692,28.692,0,0,1,61.008,45.74,28.693,28.693,0,0,1,43.89,19.482V11.159L61.008,4.052l17.118,7.107ZM58.858,26.038l8.361-8.361a1.945,1.945,0,1,1,2.751,2.751l-9.736,9.736a1.945,1.945,0,0,1-2.751,0l-5.436-5.436A1.945,1.945,0,1,1,54.8,21.978Z" transform="translate(9 -32.787)"/></g></svg>